<?xml version="1.0" encoding="UTF-8"?>
<svg width="178px" height="55px" viewBox="0 0 178 55" version="1.1" xmlns="http://www.w3.org/2000/svg" xmlns:xlink="http://www.w3.org/1999/xlink">
    <title>Group 4@3x</title>
    <defs>
        <rect id="path-1" x="0" y="0" width="55.0792453" height="55"></rect>
        <polygon id="path-3" points="0 0 26.9223254 0 26.9223254 24.80539 0 24.80539"></polygon>
        <polygon id="path-5" points="0 0 23.6145442 0 23.6145442 23.5282378 0 23.5282378"></polygon>
        <polygon id="path-7" points="0 0 18.9677681 0 18.9677681 18.7608429 0 18.7608429"></polygon>
    </defs>
    <g id="Host-onboarding" stroke="none" stroke-width="1" fill="none" fill-rule="evenodd">
        <g id="host-onboarding" transform="translate(-106.000000, -23.000000)">
            <g id="Group-4" transform="translate(106.000000, 23.000000)">
                <g id="Group-7">
                    <mask id="mask-2" fill="white">
                        <use xlink:href="#path-1"></use>
                    </mask>
                    <g id="Mask"></g>
                    <g mask="url(#mask-2)">
                        <g transform="translate(11.083019, 5.701220)">
                            <g id="Group-3">
                                <mask id="mask-4" fill="white">
                                    <use xlink:href="#path-3"></use>
                                </mask>
                                <g id="Clip-2"></g>
                                <path d="M18.3631278,0 C18.8800479,0.0620970365 19.4026276,0.0947136618 19.9131018,0.191309052 C23.2878601,0.830469458 26.1041938,3.617466 26.7388672,6.98011461 C27.3046808,9.97802154 26.5671894,12.6300041 24.4501441,14.8496595 C23.1326898,16.2308481 21.4898022,17.0566133 19.6085781,17.3802706 C19.0171386,17.4820407 18.409506,17.5303384 17.8091053,17.5323769 C13.8469951,17.5453922 9.88472765,17.5388062 5.92246022,17.5392766 C5.22553003,17.5394334 4.65311343,17.9546681 4.47703361,18.5844199 C4.22486217,19.4868655 4.89034953,20.374414 5.82923225,20.4103237 C6.17133017,20.4234958 6.52757736,20.4372951 6.84939466,20.5389085 C7.83685654,20.8506481 8.45172096,21.8619203 8.31620239,22.8767992 C8.17581018,23.9269604 7.33109872,24.7401807 6.28248055,24.7952212 C4.63188952,24.8816239 3.14763103,24.4207573 1.93755396,23.284507 C0.189018535,21.6428558 -0.404307548,19.612314 0.272970874,17.3206825 C0.936728882,15.074526 2.51091385,13.7212497 4.81708775,13.2473678 C5.18323943,13.1720987 5.56574138,13.1473226 5.94069706,13.1463817 C8.8653513,13.1383844 11.7898483,13.1397957 14.7145026,13.1430887 C15.7577755,13.1441864 16.8013628,13.1808801 17.8440068,13.1609651 C18.9674589,13.139482 20.030698,12.8758832 20.9085816,12.1297779 C22.2573216,10.9836486 22.825965,9.52719079 22.4195665,7.79302127 C22.00798,6.03627102 20.8639328,4.91915161 19.0984183,4.52492951 C16.5590958,3.95805884 14.2489916,5.5156595 13.7770348,8.06555827 C13.7110049,8.42198898 13.7165074,8.79206223 13.6416734,9.14598398 C13.4589906,10.011579 12.9970955,10.6570119 12.0924855,10.8782718 C10.7424879,11.2085151 9.48194508,10.3024629 9.34343944,8.91656993 C9.26105924,8.09252971 9.39484845,7.28526823 9.62453828,6.50325328 C10.5734827,3.27201203 12.6748066,1.18047094 15.9396722,0.296685841 C16.5463615,0.13250504 17.1909394,0.108042571 17.8180665,0.0196013373 C17.8737203,0.0117608024 17.9298457,0.00642923863 17.985814,0 L18.3631278,0 Z" id="Fill-1" fill="#00A299" mask="url(#mask-4)"></path>
                            </g>
                            <g id="Group-6" transform="translate(9.298663, 20.069323)">
                                <mask id="mask-6" fill="white">
                                    <use xlink:href="#path-5"></use>
                                </mask>
                                <g id="Clip-5"></g>
                                <path d="M7.38882921,0 C8.72137608,0.0222671192 10.054709,0.021326255 11.3861554,0.0729169747 C12.8685273,0.130466501 14.3461828,0.2491722 15.7773029,0.692319233 C17.4355974,1.20571746 18.8923435,2.05437696 20.112325,3.28675224 C21.6171786,4.80687515 22.5914345,6.63607194 23.156462,8.68213793 C23.942061,11.526684 23.7329662,14.302547 22.4070223,16.9490411 C20.977946,19.8015846 18.7348149,21.7921396 15.7208631,22.8586091 C11.4391365,24.3734005 6.69315674,23.2666306 3.4790713,20.0607926 C1.6629338,18.2490018 0.53445086,16.0828188 0.132926002,13.5503261 C0.026963686,12.8824693 -0.0538443708,12.2072424 0.0442572391,11.5284089 C0.178046454,10.6040099 0.850451238,9.84614375 1.69877862,9.65624599 C3.02865285,9.35846248 4.22693886,10.2188828 4.3877689,11.5782747 C4.46558989,12.236566 4.4835123,12.9144587 4.66147868,13.546249 C5.50964885,16.5556031 7.47199548,18.4690072 10.5683275,19.0020068 C14.864675,19.7415261 18.3600165,16.8287673 19.0737686,13.0315963 C19.8254093,9.03166898 17.0078178,5.24814045 13.1875148,4.5746385 C12.3850939,4.43303844 11.5793715,4.3957175 10.7659457,4.41547564 C9.95503526,4.43507698 9.14333877,4.42002315 8.33195671,4.42002315 C6.53311276,4.42017996 4.73442603,4.42174807 2.93558209,4.41908229 C2.45057654,4.41845505 1.98616603,4.31903706 1.56090184,4.07786221 C0.745746636,3.61542746 0.352554125,2.77821514 0.500807039,1.8321762 C0.634281826,0.980223675 1.30448561,0.302487837 2.22670363,0.105219979 C2.44586011,0.0583335798 2.6739778,0.0335574894 2.89800792,0.0326166252 C4.39484354,0.0263441973 5.89167916,0.0293236006 7.38835757,0.0293236006 C7.38851478,0.0196013373 7.388672,0.0097222633 7.38882921,0" id="Fill-4" fill="#0080D0" mask="url(#mask-6)"></path>
                            </g>
                        </g>
                    </g>
                </g>
                <g id="https://www.myfonts.com/collections/welland-font-factory738" transform="translate(55.079245, 13.750000)">
                    <path d="M9.7513286,0.77067083 L9.7513286,13.1557862 C10.9779135,13.1557862 12.1703909,13.1602929 13.3624392,13.1549278 C15.3196551,13.1459143 16.437053,12.3171067 16.6796671,10.3950972 C16.8905333,8.72439102 16.927215,7.01848951 16.8763754,5.33319016 C16.8472017,4.3764775 16.5642591,3.4036694 16.2549315,2.48558579 C15.9413136,1.55484043 15.2164744,0.865955806 14.2202764,0.797067344 C12.7512919,0.695129588 11.2700801,0.77067083 9.7513286,0.77067083 L9.7513286,0.77067083 Z M9.73759977,26.85107 C11.2975378,26.85107 12.7965541,26.9062237 14.2899931,26.8371206 C16.1813536,26.7495614 17.4068659,25.7153761 17.9349967,23.9131166 C18.5427119,21.8389515 18.612214,19.7257282 18.0755027,17.633107 C17.5559524,15.6067991 16.3042695,14.2127198 14.1664336,13.8796516 C13.1897563,13.7274961 12.1740376,13.8221372 11.1761235,13.8096901 C10.7011918,13.8036811 10.2260457,13.8086171 9.73759977,13.8086171 L9.73759977,26.85107 Z M15.8531488,13.325754 C17.3279252,13.7073231 18.8408848,13.9826624 20.2678248,14.4966432 C22.195438,15.190893 23.6772933,16.4570672 24.2013483,18.5441087 C24.9780996,21.6370075 23.5741125,24.5389071 20.6393612,26.0186141 C18.7093884,26.9916368 16.6309727,27.4506786 14.5012883,27.4830841 C9.73373854,27.5551916 4.96447265,27.5133435 0.195850302,27.5167772 C0.143938173,27.5167772 0.0922405583,27.5015402 0,27.486947 L0,26.8873384 L3.7057108,26.8873384 L3.7057108,0.692339713 L0.300747123,0.692339713 L0.300747123,0.047878493 C0.449619093,0.0367189913 0.602995836,0.015473017 0.756158065,0.015473017 C4.88188517,0.0137561706 9.00804131,-0.0261605083 13.1331249,0.0294223941 C15.5457518,0.0620424758 17.8719299,0.556708847 19.9775888,1.8314673 C23.6305294,4.04319469 23.5101877,8.50699535 21.7550429,10.7230148 C20.6824783,12.0776067 19.2059858,12.7467475 17.5823375,13.1465582 C17.0151653,13.2860519 16.4293305,13.3506483 15.8518617,13.4493669 C15.8522907,13.4081626 15.8527198,13.3669583 15.8531488,13.325754 L15.8531488,13.325754 Z" id="Fill-1" fill="#000000"></path>
                    <path d="M77.8153577,16.8656981 C77.7316976,16.0055581 77.679142,15.1758921 77.5645921,14.3548103 C77.3974865,13.1555931 77.1477935,11.9720421 76.4885952,10.9260534 C75.9737642,10.1094783 75.272736,9.59249295 74.2546576,9.61073444 C73.1132343,9.6313366 72.4179979,10.2959708 71.9312681,11.2310082 C71.2793633,12.4830185 71.0697842,13.8534911 70.9339975,15.2368401 C70.8812273,15.7746423 70.8599906,16.3154489 70.8237379,16.8656981 L77.8153577,16.8656981 Z M83.7728107,17.6646755 L70.7686081,17.6646755 C70.8164444,18.6640948 70.7964947,19.6261726 70.924988,20.5680774 C71.0732164,21.654412 71.2589846,22.7529791 71.5934103,23.793388 C72.3720922,26.2160729 73.8387171,27.0948836 76.3661084,26.7618154 C78.6618257,26.4590067 80.4324154,25.3215959 81.6639341,23.357309 C82.0335399,22.7680015 82.0326818,22.7673577 82.8051429,22.8562045 C82.0052242,24.5591015 80.8048098,25.8467363 79.1290348,26.6738271 C75.3926487,28.5183639 70.4860945,27.5717377 67.4676831,24.4348447 C63.2342706,20.0352112 64.203869,13.5360891 69.5632599,10.2562687 C73.837001,7.6410824 78.6285762,8.87420733 81.6750888,12.5379576 C82.8922351,14.0019983 83.595194,15.683864 83.7728107,17.6646755 L83.7728107,17.6646755 Z" id="Fill-3" fill="#000000"></path>
                    <path d="M56.8121397,16.8656552 C56.7280506,16.0055152 56.6748514,15.1758491 56.560516,14.3547674 C56.3906218,13.1375233 56.1362094,11.9370184 55.4562035,10.880514 C54.8536366,9.94418893 54.0125315,9.47162696 52.8769,9.64395542 C51.9193143,9.78902894 51.3435616,10.4298419 50.926763,11.2324676 C50.2763598,12.4855508 50.0667807,13.8558089 49.9292779,15.2387286 C49.8758642,15.7761016 49.8572016,16.3169082 49.8220214,16.8656552 L56.8121397,16.8656552 Z M62.7833215,17.6575506 L49.8275988,17.6575506 C49.8275988,18.3309836 49.8057185,18.9653584 49.8321036,19.5975871 C49.8917381,21.0247156 50.0920932,22.429096 50.5661668,23.7864777 C51.4130638,26.2117379 52.876042,27.1173743 55.4023607,26.7598411 C57.6746961,26.438147 59.4289828,25.3112519 60.6547097,23.3697132 C61.0262461,22.7812641 61.0251735,22.7806203 61.8004232,22.8424268 C61.2030047,24.1731973 60.3479562,25.2842116 59.1426081,26.0606554 C55.9671732,28.1067071 52.6392197,28.1090677 49.3237079,26.4915838 C46.5813747,25.1537313 44.6915158,23.014326 44.0166581,19.9664944 C43.3896368,17.1349855 44.1940603,14.6431975 46.0122719,12.4600127 C47.6091061,10.5425099 49.6508401,9.30423444 52.1301805,8.93790233 C54.3896452,8.60397571 56.48608,9.16774515 58.3714341,10.4568822 C60.8878853,12.1771623 62.4304477,14.5037038 62.7833215,17.6575506 L62.7833215,17.6575506 Z" id="Fill-5" fill="#000000"></path>
                    <g id="Group-9" transform="translate(103.952987, 8.846329)">
                        <mask id="mask-8" fill="white">
                            <use xlink:href="#path-7"></use>
                        </mask>
                        <g id="Clip-8"></g>
                        <path d="M12.9907087,8.01924055 C12.9435158,7.36962879 12.9182033,6.75177869 12.8504172,6.13864991 C12.7030468,4.80852316 12.4810259,3.49256039 11.826118,2.29849371 C11.3243722,1.38384379 10.614978,0.764491448 9.49951078,0.764491448 C8.38082587,0.764491448 7.63174673,1.37719101 7.19671451,2.31587678 C6.82732325,3.11292273 6.5426646,3.9702729 6.36783657,4.83062756 C6.1576139,5.86567133 6.10312762,6.93226217 5.97720853,8.01924055 L12.9907087,8.01924055 Z M18.0294028,13.9981582 C16.8347803,16.4277104 14.9781709,17.9164309 12.4003691,18.507026 C7.30204036,19.67534 1.92570289,16.7028351 0.406093321,11.8016678 C-0.613057592,8.51433613 0.347102266,5.65235317 2.6029202,3.18417185 C4.1396908,1.5025208 6.06129759,0.422195196 8.32633958,0.0929898971 C10.6284923,-0.241580546 12.7517413,0.336996693 14.6594047,1.66197291 C16.9746427,3.27022878 18.4766622,5.4128531 18.9138396,8.23749465 C18.9404392,8.40896468 18.9475181,8.58322459 18.9678968,8.80233711 L6.00809839,8.80233711 C6.00809839,9.31653261 5.993297,9.79081143 6.01067254,10.2638026 C6.07095068,11.9061808 6.25114153,13.5294591 6.83118449,15.0840635 C7.72055508,17.4674755 9.25904179,18.3198898 11.7660544,17.8928242 C14.0767876,17.4990226 15.809623,16.3075312 16.9993117,14.3026838 C17.219402,13.931845 17.2243358,13.9346348 18.0294028,13.9981582 L18.0294028,13.9981582 Z" id="Fill-7" fill="#000000" mask="url(#mask-8)"></path>
                    </g>
                    <path d="M34.1633072,26.8796126 L36.1140877,26.8796126 L36.1140877,27.5901724 L26.1574703,27.5901724 L26.1574703,26.8944204 L28.1251973,26.8944204 L28.1251973,10.4034668 L26.9009721,10.4034668 L26.9009721,9.67981605 L34.1079628,9.67981605 L34.1079628,11.1957914 C34.2332384,11.1249715 34.2967342,11.1058716 34.3362046,11.0642381 C35.3255382,10.0201808 36.5491199,9.4928944 37.9719842,9.3486793 C40.0900848,9.1340735 42.3053598,11.3767041 42.0333574,13.4888544 C41.8707566,14.7513803 40.6278687,15.708093 39.395492,15.5190253 C38.0777391,15.3168666 37.1130744,14.1045585 37.3852913,12.8418179 C37.5348068,12.1475682 37.9110625,11.5028923 38.1753424,10.8320346 C38.2493494,10.6442545 38.2886053,10.4427397 38.3437351,10.2474484 C38.1405913,10.2086047 37.935517,10.1285568 37.7343039,10.137141 C36.1668579,10.204098 35.0769177,11.0524348 34.2587654,12.3147461 C34.1684555,12.4540252 34.1238368,12.6478143 34.1236223,12.816709 C34.1167579,17.4021912 34.118474,21.9878879 34.1204046,26.5735847 C34.1206191,26.659427 34.1437865,26.7452693 34.1633072,26.8796126" id="Fill-10" fill="#000000"></path>
                    <path d="M95.2385909,10.3324323 C93.3206309,10.3933803 91.5206529,10.3714905 89.737836,10.534591 C88.5395668,10.6442545 87.6729345,11.4249904 87.2582811,12.5639034 C86.9573194,13.3903503 86.7891413,14.264869 86.5488868,15.1668572 L86.0928323,15.1668572 C86.269591,13.333909 86.4433464,11.5310057 86.6209631,9.68840028 L101.412916,9.68840028 C98.1986548,15.4033528 95.0032703,21.0850413 91.7525414,26.865234 C92.1067022,26.865234 92.3484583,26.8654486 92.5904289,26.865234 C93.9478667,26.865234 95.3053045,26.8725306 96.6627422,26.8630879 C99.0554194,26.8463487 100.508315,25.6949885 101.058541,23.3774605 C101.161078,22.9458882 101.23959,22.5055171 101.287855,22.0647168 C101.331402,21.6683399 101.515668,21.5897942 101.888277,21.7211329 C101.888277,21.8110528 101.894713,21.8971097 101.887419,21.9820936 C101.723531,23.8446573 101.557927,25.7072211 101.390393,27.5961813 L85.6408536,27.5961813 C88.8302318,21.8595537 91.9970861,16.1630573 95.2385909,10.3324323" id="Fill-12" fill="#000000"></path>
                </g>
            </g>
        </g>
    </g>
</svg>