<?xml version="1.0" encoding="UTF-8"?>
<svg width="14px" height="14px" viewBox="0 0 14 14" version="1.1" xmlns="http://www.w3.org/2000/svg" xmlns:xlink="http://www.w3.org/1999/xlink">
    <title>􀁣@3x</title>
    <g id="Host-prop" stroke="none" stroke-width="1" fill="none" fill-rule="evenodd">
        <g id="Host-rooms-Add-details" transform="translate(-339.000000, -729.000000)" fill-rule="nonzero">
            <g id="Group-21" transform="translate(336.000000, 168.000000)">
                <g id="Group-22" transform="translate(3.000000, 514.000000)">
                    <g id="Group-20" transform="translate(0.000000, 46.000000)">
                        <g id="􀁣" transform="translate(0.000000, 1.000000)">
                            <path d="M7,14 C7.95620915,14 8.85637255,13.8169935 9.7004902,13.4509804 C10.5446078,13.0849673 11.2892157,12.5794118 11.9343137,11.9343137 C12.5794118,11.2892157 13.0849673,10.5446078 13.4509804,9.7004902 C13.8169935,8.85637255 14,7.95620915 14,7 C14,6.04379085 13.8169935,5.14362745 13.4509804,4.2995098 C13.0849673,3.45539216 12.5794118,2.71078431 11.9343137,2.06568627 C11.2892157,1.42058824 10.5434641,0.91503268 9.69705882,0.549019608 C8.85065359,0.183006536 7.94934641,0 6.99313725,0 C6.0369281,0 5.13676471,0.183006536 4.29264706,0.549019608 C3.44852941,0.91503268 2.70506536,1.42058824 2.0622549,2.06568627 C1.41944444,2.71078431 0.91503268,3.45539216 0.549019608,4.2995098 C0.183006536,5.14362745 0,6.04379085 0,7 C0,7.95620915 0.183006536,8.85637255 0.549019608,9.7004902 C0.91503268,10.5446078 1.42058824,11.2892157 2.06568627,11.9343137 C2.71078431,12.5794118 3.45539216,13.0849673 4.2995098,13.4509804 C5.14362745,13.8169935 6.04379085,14 7,14 Z" id="Shape" fill="#1EBBBA"></path>
                            <rect id="Rectangle" fill="#1EBBBA" x="4.11764706" y="1.64705882" width="7.41176471" height="9.88235294"></rect>
                            <path d="M6.23137255,10.3490196 C6.1124183,10.3490196 6.00490196,10.3238562 5.90882353,10.2735294 C5.8127451,10.2232026 5.71895425,10.1385621 5.62745098,10.0196078 L3.90490196,7.90588235 C3.85457516,7.8372549 3.81454248,7.76519608 3.78480392,7.68970588 C3.75506536,7.61421569 3.74019608,7.5375817 3.74019608,7.45980392 C3.74019608,7.30424837 3.79281046,7.17042484 3.89803922,7.05833333 C4.00326797,6.94624183 4.13366013,6.89019608 4.28921569,6.89019608 C4.38986928,6.89019608 4.48022876,6.91078431 4.56029412,6.95196078 C4.64035948,6.99313725 4.72385621,7.07091503 4.81078431,7.18529412 L6.20392157,8.98333333 L9.13431373,4.2754902 C9.2624183,4.06503268 9.42712418,3.95980392 9.62843137,3.95980392 C9.7748366,3.95980392 9.90751634,4.00669935 10.0264706,4.1004902 C10.1454248,4.19428105 10.204902,4.32124183 10.204902,4.48137255 C10.204902,4.55915033 10.1866013,4.6369281 10.15,4.71470588 C10.1133987,4.79248366 10.0745098,4.86568627 10.0333333,4.93431373 L6.80784314,10.0196078 C6.73464052,10.1294118 6.65,10.2117647 6.55392157,10.2666667 C6.45784314,10.3215686 6.3503268,10.3490196 6.23137255,10.3490196 Z" id="Path" fill="#FFFFFF"></path>
                        </g>
                    </g>
                </g>
            </g>
        </g>
    </g>
</svg>