<?xml version="1.0" encoding="UTF-8"?>
<svg width="24px" height="24px" viewBox="0 0 24 24" version="1.1" xmlns="http://www.w3.org/2000/svg" xmlns:xlink="http://www.w3.org/1999/xlink">
    <title>delete@3x</title>
    <g id="Team" stroke="none" stroke-width="1" fill="none" fill-rule="evenodd">
        <g id="delete">
            <rect id="Rectangle" fill="#FFE4E4" x="0" y="0" width="24" height="24" rx="1.5483871"></rect>
            <g id="Trash" transform="translate(3.4839, 3.4839)" fill="#E02020" fill-rule="nonzero">
                <path d="M0.532000313,2.98978698 L2.18309062,2.98978698 L2.95168327,16.530323 C2.96776295,16.8119687 3.20078521,17.0322581 3.48288512,17.0322581 L13.5602845,17.0322581 C13.8425786,17.0322581 14.0756779,16.8116463 14.0914863,16.5297907 L14.8478368,2.98978698 L16.5,2.98978698 C16.7939543,2.98978698 17.0322581,2.75147948 17.0322581,2.45751228 C17.0322581,2.16354508 16.7939543,1.92523758 16.5,1.92523758 L14.5087832,1.92523758 C14.4795085,1.92523758 14.4539597,1.9374799 14.4257496,1.9417381 C14.3980718,1.9374799 14.372523,1.92523758 14.3443129,1.92523758 L11.5520434,1.92523758 L11.5520434,0.532274698 C11.5520434,0.2383075 11.3137397,0 11.019777,0 L6.01168269,0 C5.71772008,0 5.47941631,0.2383075 5.47941631,0.532274698 L5.47941631,1.92523758 L2.68608235,1.92523758 C2.6615981,1.92523758 2.63977517,1.93641535 2.61582319,1.939609 C2.59133893,1.93588308 2.56951601,1.92523758 2.54396723,1.92523758 L0.532532579,1.92523758 C0.342372117,1.9251425 0.166605879,2.02650563 0.0714433064,2.19114445 C-0.0237192664,2.35578327 -0.0238207158,2.55868524 0.0711771732,2.72341915 C0.166175062,2.88815305 0.341839851,2.9896919 0.532000313,2.98978698 Z M6.54394906,1.0645494 L10.4875107,1.0645494 L10.4875107,1.92523758 L6.54394906,1.92523758 L6.54394906,1.0645494 Z M13.7817073,2.98978698 L13.0567605,15.9682409 L3.98587685,15.9682409 L3.24922018,2.98978698 L13.7817073,2.98978698 Z" id="Shape"></path>
                <path d="M5.88021289,14.9702259 L5.91108434,14.9696936 C6.05199995,14.9617339 6.18396976,14.8980757 6.27791781,14.7927444 C6.37186585,14.6874131 6.42008339,14.5490515 6.411947,14.4081438 L5.85200277,4.54243227 C5.83205883,4.25052589 5.58275012,4.02791691 5.29046174,4.04102951 C5.14954613,4.04898924 5.01757632,4.11264743 4.92362828,4.2179787 C4.82968023,4.32330998 4.78146269,4.46167159 4.78959908,4.60257931 L5.34954331,14.4682908 C5.36561104,14.7497316 5.59831849,14.9698385 5.88021289,14.9702259 L5.88021289,14.9702259 Z M11.1017461,14.9696936 L11.1326175,14.9702259 C11.4145119,14.9698385 11.6472194,14.7497316 11.6632871,14.4682908 L12.2232313,4.60257931 C12.239875,4.30923919 12.0156917,4.05789261 11.7223687,4.04102951 C11.4299779,4.02762907 11.1804971,4.25039168 11.1608276,4.54243227 L10.6008834,14.4081438 C10.5842397,14.7014839 10.808423,14.9528305 11.1017461,14.9696936 L11.1017461,14.9696936 Z M8.515996,14.9702259 C8.8099586,14.9702259 9.04826238,14.7319184 9.04826238,14.4379512 L9.04826238,4.57223966 C9.04826238,4.27827246 8.8099586,4.03996496 8.515996,4.03996496 C8.22203339,4.03996496 7.98372962,4.27827246 7.98372962,4.57223966 L7.98372962,14.4379512 C7.98372962,14.7319184 8.22203339,14.9702259 8.515996,14.9702259 Z" id="Shape"></path>
            </g>
        </g>
    </g>
</svg>