<?xml version="1.0" encoding="UTF-8"?>
<svg width="12.21px" height="16.1736393px" viewBox="0 0 12.21 16.1736393" version="1.1" xmlns="http://www.w3.org/2000/svg" xmlns:xlink="http://www.w3.org/1999/xlink">
    <title>Location@3x</title>
    <g id="Establishment-Updates" stroke="none" stroke-width="1" fill="none" fill-rule="evenodd">
        <g id="Mgmt-property" transform="translate(-347.895, -3547.895)" fill="#0E7ECA" fill-rule="nonzero" stroke="#0E7ECA" stroke-width="0.21">
            <g id="Group-25" transform="translate(334, 3499)">
                <g id="Group-51" transform="translate(10, 0)">
                    <g id="Location" transform="translate(4, 49)">
                        <path d="M6,16 L5.67857143,15.627907 C5.46428571,15.3572939 0,9.30232558 0,5.68287526 C0,2.53699789 2.71428571,0 6,0 C9.28571429,0 12,2.57082452 12,5.68287526 C12,9.30232558 6.53571429,15.3911205 6.32142857,15.627907 L6,16 Z M6,0.778012685 C3.14285714,0.778012685 0.857142857,2.97674419 0.857142857,5.64904863 C0.857142857,8.49048626 4.82142857,13.3276956 6,14.7145877 C7.17857143,13.3276956 11.1428571,8.5243129 11.1428571,5.64904863 C11.1428571,2.97674419 8.85714286,0.778012685 6,0.778012685 Z" id="Shape"></path>
                        <path d="M6.09031051,7.46666667 C4.89712869,7.46666667 3.90849233,6.5 3.90849233,5.33333333 C3.90849233,4.16666667 4.89712869,3.2 6.09031051,3.2 C7.28349233,3.2 8.27212869,4.16666667 8.27212869,5.33333333 C8.27212869,6.5 7.28349233,7.46666667 6.09031051,7.46666667 Z M6.09031051,4 C5.34031051,4 4.72667415,4.6 4.72667415,5.33333333 C4.72667415,6.06666667 5.34031051,6.66666667 6.09031051,6.66666667 C6.84031051,6.66666667 7.45394688,6.06666667 7.45394688,5.33333333 C7.45394688,4.6 6.84031051,4 6.09031051,4 Z" id="Shape"></path>
                    </g>
                </g>
            </g>
        </g>
    </g>
</svg>