<?xml version="1.0" encoding="UTF-8"?>
<svg width="9.84375px" height="13.9999994px" viewBox="0 0 9.84375 13.9999994" version="1.1" xmlns="http://www.w3.org/2000/svg" xmlns:xlink="http://www.w3.org/1999/xlink">
    <title>684850@3x</title>
    <g id="Support" stroke="none" stroke-width="1" fill="none" fill-rule="evenodd">
        <g id="Establishment-support---ticke-list" transform="translate(-1004, -444)" fill="#000000" fill-rule="nonzero">
            <g id="Group-14" transform="translate(979, 381)">
                <g id="684850" transform="translate(25, 63)">
                    <path d="M4.921875,3.28125 C4.01704297,3.28125 3.28125,4.01704297 3.28125,4.921875 C3.28125,5.83102734 4.01573047,6.5625 4.921875,6.5625 C5.84426172,6.5625 6.5625,5.81724609 6.5625,4.921875 C6.5625,4.01704297 5.82670703,3.28125 4.921875,3.28125 Z" id="Path"></path>
                    <path d="M4.921875,0 C2.20778906,0 0,2.20778906 0,4.921875 C0,5.83871094 0.253941406,6.73353516 0.734207031,7.50979688 L4.64151953,13.8059414 C4.80353125,14.0675938 5.18552344,14.0636016 5.34247656,13.8003359 L9.15003906,7.44329688 C9.60342578,6.68346875 9.84375,5.81147656 9.84375,4.921875 C9.84375,2.20778906 7.63596094,0 4.921875,0 Z M4.921875,7.38828125 C3.54525391,7.38828125 2.45546875,6.26776172 2.45546875,4.921875 C2.45546875,3.56483203 3.56483203,2.45546875 4.921875,2.45546875 C6.27891797,2.45546875 7.38828125,3.56483203 7.38828125,4.921875 C7.38828125,6.25589453 6.31315234,7.38828125 4.921875,7.38828125 Z" id="Shape"></path>
                </g>
            </g>
        </g>
    </g>
</svg>