<?xml version="1.0" encoding="UTF-8"?>
<svg width="24px" height="17px" viewBox="0 0 24 17" version="1.1" xmlns="http://www.w3.org/2000/svg" xmlns:xlink="http://www.w3.org/1999/xlink">
    <title>mail@3x</title>
    <g id="Support" stroke="none" stroke-width="1" fill="none" fill-rule="evenodd">
        <g id="Establishment-support---ticke-list" transform="translate(-1004, -589)" fill="#231F20" fill-rule="nonzero">
            <g id="Group-14" transform="translate(979, 381)">
                <g id="Group-21" transform="translate(25, 158.0035)">
                    <g id="mail" transform="translate(0, 49.9965)">
                        <path d="M12,7.4885 L22.9542857,0.51 C22.5138789,0.182421964 21.979083,0.00365589545 21.4285714,0 L2.57142857,0 C2.02091702,0.00365589545 1.48612105,0.182421964 1.04571429,0.51 L12,7.4885 Z" id="Path"></path>
                        <path d="M12.4628571,9.214 L12.4628571,9.214 L12.3171429,9.282 L12.2485714,9.282 C12.1696461,9.31696688 12.0858409,9.33989291 12,9.35 L12,9.35 C11.9288526,9.35888903 11.8568616,9.35888903 11.7857143,9.35 L11.7171429,9.35 L11.5714286,9.282 L11.5714286,9.282 L0.0857142857,1.921 C0.0308384613,2.12630847 0.00204403253,2.33761159 0,2.55 L0,14.45 C0,15.8583261 1.15126779,17 2.57142857,17 L21.4285714,17 C22.8487322,17 24,15.8583261 24,14.45 L24,2.55 C23.997956,2.33761159 23.9691615,2.12630847 23.9142857,1.921 L12.4628571,9.214 Z" id="Path"></path>
                    </g>
                </g>
            </g>
        </g>
    </g>
</svg>