<?xml version="1.0" encoding="UTF-8"?>
<svg width="18.0000244px" height="17.3601976px" viewBox="0 0 18.0000244 17.3601976" version="1.1" xmlns="http://www.w3.org/2000/svg" xmlns:xlink="http://www.w3.org/1999/xlink">
    <title>953780@3x</title>
    <g id="Support" stroke="none" stroke-width="1" fill="none" fill-rule="evenodd">
        <g id="Establishment-support---ticke-list" transform="translate(-1005, -539.0035)" fill="#000000" fill-rule="nonzero">
            <g id="Group-14" transform="translate(979, 381)">
                <g id="Group-21" transform="translate(25, 158.0035)">
                    <g id="953780" transform="translate(1, -0)">
                        <path d="M17.3102642,3.35552687 C16.6195845,2.40514796 15.4100337,1.54733546 13.9044673,0.940187022 C12.4069869,0.336343272 10.6682994,0.00239405332 9.00860796,0 C7.34877593,-0.00410985293 5.6079439,0.326394053 4.1083189,0.925526866 C2.60011577,1.52814015 1.38771733,2.38222608 0.694506397,3.33035499 C0.0287173346,4.24097218 -0.163165478,5.22249952 0.139564991,6.16883546 C0.33598296,6.78269874 0.908854053,7.19578468 1.56543218,7.1967339 L3.81370952,7.19884327 C3.81448296,7.19884327 3.81522124,7.19884327 3.81595952,7.19884327 C4.26427202,7.19880812 4.68547905,7.00256593 4.97172124,6.66017921 C5.25493999,6.32144874 5.37222124,5.87876124 5.29361187,5.44556593 C5.29129155,5.43283937 5.28851421,5.42021827 5.28531499,5.40766749 L5.16701421,4.94775343 C5.82211577,4.63517921 7.30641265,4.03126515 9.00168218,4.0408628 C10.6957212,4.0495464 12.1789986,4.6531089 12.8348736,4.96582374 L12.7146744,5.42313624 C12.7112642,5.4361089 12.7083462,5.44911671 12.7059556,5.46222999 C12.6261158,5.89517921 12.7421666,6.33818312 13.0243658,6.67772218 C13.3101509,7.0215503 13.7316392,7.21905812 14.1811119,7.21972608 L16.4293892,7.22183546 C16.4301626,7.22183546 16.4309009,7.22183546 16.4316392,7.22183546 C17.0869869,7.22183546 17.6600337,6.81064796 17.8578931,6.1980503 C18.1635064,5.25196046 17.9741548,4.26906202 17.3102642,3.35552687 Z" id="Path"></path>
                        <path d="M14.0834478,9.5170464 L12.4068462,7.75659718 C12.3054556,7.65014405 12.1649009,7.5899214 12.0179126,7.5899214 L10.934397,7.5899214 L10.934397,6.8578628 C10.934397,6.56124952 10.6939283,6.32074562 10.3972798,6.32074562 C10.1006314,6.32074562 9.86016265,6.56121437 9.86016265,6.8578628 L9.86016265,7.5899214 L8.14024858,7.5899214 L8.14024858,6.8578628 C8.14024858,6.56124952 7.89977983,6.32074562 7.6031314,6.32074562 C7.30648296,6.32074562 7.06601421,6.56121437 7.06601421,6.8578628 L7.06601421,7.5899214 L5.98253374,7.5899214 C5.83554546,7.5899214 5.69495562,7.65017921 5.59360015,7.75659718 L3.91699858,9.5170464 C2.60243608,10.8973511 1.87846343,12.7072651 1.87846343,14.6133667 L1.87846343,16.8230425 C1.87846343,17.1196909 2.11893218,17.3601597 2.41558062,17.3601597 L15.5848306,17.3601597 C15.8814791,17.3601597 16.1219478,17.1196909 16.1219478,16.8230425 L16.1219478,14.6133667 C16.1219478,12.7072651 15.3980103,10.8973862 14.0834478,9.5170464 Z M9.00020562,15.3968237 C7.45016655,15.3968237 6.18914702,14.1357691 6.18914702,12.58573 C6.18914702,11.0357261 7.45020171,9.7746714 9.00020562,9.7746714 C10.5502095,9.7746714 11.8112642,11.0357261 11.8112642,12.58573 C11.8112642,14.1357691 10.5502095,15.3968237 9.00020562,15.3968237 Z" id="Shape"></path>
                        <path d="M9.00020562,10.8489058 C8.04247905,10.8489058 7.2633814,11.6280386 7.2633814,12.58573 C7.2633814,13.5434566 8.04251421,14.3225894 9.00020562,14.3225894 C9.95789702,14.3225894 10.7370298,13.5434566 10.7370298,12.58573 C10.7370298,11.6280737 9.95789702,10.8489058 9.00020562,10.8489058 Z" id="Path"></path>
                    </g>
                </g>
            </g>
        </g>
    </g>
</svg>