<?xml version="1.0" encoding="UTF-8"?>
<svg width="15.3779125px" height="20px" viewBox="0 0 15.3779125 20" version="1.1" xmlns="http://www.w3.org/2000/svg" xmlns:xlink="http://www.w3.org/1999/xlink">
    <title>115893@3x</title>
    <g id="Support" stroke="none" stroke-width="1" fill="none" fill-rule="evenodd">
        <g id="Establishment-support---ticke-list" transform="translate(-1005.0215, -499)" fill="#000000" fill-rule="nonzero">
            <g id="Group-14" transform="translate(979, 381)">
                <g id="115893" transform="translate(26.0215, 118)">
                    <path d="M7.68956229,7.89333333 C9.86579125,7.89333333 11.636229,6.12289562 11.636229,3.94666667 C11.636229,1.77043771 9.86579125,0 7.68956229,0 C5.51333333,0 3.74289562,1.77043771 3.74289562,3.94666667 C3.74289562,6.12289562 5.51333333,7.89333333 7.68956229,7.89333333 Z" id="Path"></path>
                    <path d="M12.9854545,9.80592593 C12.983771,9.80538721 12.9805387,9.80417508 12.9788552,9.80377104 C12.4649832,9.67824916 10.8913805,9.45811448 10.8913805,9.45811448 C10.7137374,9.40343434 10.5239057,9.49750842 10.46,9.67279461 L8.09138047,16.1717172 C7.95474747,16.5465993 7.42451178,16.5465993 7.28787879,16.1717172 L4.91925926,9.67279461 C4.86767677,9.53124579 4.73407407,9.44249158 4.59090909,9.44249158 C4.5569697,9.44249158 2.9389899,9.66936027 2.4003367,9.80329966 C0.928417508,10.1692929 0,11.6167003 0,13.1251178 L0,18.5326599 C0,19.3430303 0.656969697,20 1.46734007,20 L13.9105724,20 C14.7209428,20 15.3779125,19.3430303 15.3779125,18.5326599 L15.3779125,13.107138 C15.3779125,11.6052525 14.413064,10.2723906 12.9854545,9.80592593 Z" id="Path"></path>
                    <path d="M8.58282828,9.33420875 C8.48828283,9.23117845 8.35010101,9.17939394 8.21030303,9.17939394 L7.16754209,9.17939394 C7.02774411,9.17939394 6.88949495,9.23124579 6.79501684,9.33420875 C6.64868687,9.49367003 6.62740741,9.7240404 6.73131313,9.9040404 L7.28875421,10.7443771 L7.02781145,12.9457239 L7.5416835,14.3127273 C7.59178451,14.4502357 7.78619529,14.4502357 7.8362963,14.3127273 L8.35016835,12.9457239 L8.08922559,10.7443771 L8.64666667,9.9040404 C8.75043771,9.7240404 8.72915825,9.49367003 8.58282828,9.33420875 L8.58282828,9.33420875 Z" id="Path"></path>
                </g>
            </g>
        </g>
    </g>
</svg>