<?xml version="1.0" encoding="UTF-8"?>
<svg width="45px" height="45px" viewBox="0 0 45 45" version="1.1" xmlns="http://www.w3.org/2000/svg" xmlns:xlink="http://www.w3.org/1999/xlink">
    <title>Group 41</title>
    <g id="Host-Property" stroke="none" stroke-width="1" fill="none" fill-rule="evenodd">
        <g id="Group-41">
            <g id="Group-7">
                <rect id="Rectangle" x="0" y="0" width="45" height="45"></rect>
            </g>
            <g id="Group-24" transform="translate(6.000000, 8.000000)">
                <g id="Group-31" stroke="#142222" stroke-linecap="round">
                    <line x1="1.48888768" y1="8.5324089" x2="15.2436066" y2="0.501906406" id="Line-6"></line>
                    <line x1="0.628589686" y1="16.001321" x2="10.3099472" y2="9.4542341" id="Line-6" transform="translate(5.469268, 12.727778) rotate(124.068803) translate(-5.469268, -12.727778) "></line>
                    <line x1="24.7679661" y1="6.8729046" x2="24.8429875" y2="20.7140918" id="Line-6"></line>
                    <line x1="15.2436066" y1="8.5324089" x2="28.9983254" y2="0.501906406" id="Line-6" transform="translate(22.120966, 4.517158) scale(-1, 1) translate(-22.120966, -4.517158) "></line>
                </g>
                <path d="M17.1434129,10.5 C17.4057482,10.5 17.6432482,10.6063324 17.8151644,10.7782486 C17.9870805,10.9501647 18.0934129,11.1876647 18.0934129,11.45 L18.0934129,23.7857143 L11.8901194,23.7857143 L11.8901194,11.45 C11.8901194,11.1876647 11.9964517,10.9501647 12.1683679,10.7782486 C12.3402841,10.6063324 12.5777841,10.5 12.8401194,10.5 Z" id="Rectangle" stroke="#000000"></path>
                <g id="Group-30" transform="translate(2.154468, 17.907762)" fill="#FFFFFF" stroke="#000000">
                    <path d="M17.1549132,0.5 C18.4382406,0.5 19.1691416,0.930205945 19.8455522,1.41394757 L20.2772632,1.72840664 C21.1902202,2.39239111 22.1718108,3.03093363 24.075489,3.03093363 C26.1581695,3.03093363 28.2044783,2.61475433 30.2139763,1.78035023 L30.3373108,9.34251969 L0.5,9.34251969 L0.5,1.34950989 C1.88368961,0.78238856 3.37405453,0.5 4.97058061,0.5 C6.00021556,0.5 6.55824172,0.750709474 7.07720928,1.03568291 C8.11920881,1.61900259 8.91155657,2.02290524 10.5919249,2.02290524 C12.2427487,2.02290524 13.129874,1.62795119 14.0229897,1.22611674 C14.823165,0.866098419 15.6288163,0.5 17.1549132,0.5 Z" id="Rectangle"></path>
                    <path d="M17.1549132,3.87457818 C18.6316571,3.87457818 19.3840178,4.37341465 20.156885,4.87467665 L20.4589476,5.06885608 C21.3237071,5.61568568 22.2921404,6.11626225 24.075489,6.11626225 C26.158707,6.11626225 28.2052586,5.74597908 30.2149314,5.00431805 L30.3362403,11.5922385 L0.5,11.5922385 L0.5,4.62318926 C1.88420016,4.12332551 3.37454991,3.87457818 4.97058061,3.87457818 C5.95728934,3.87457818 6.51491023,4.07519566 7.01283309,4.31180825 C8.0820991,4.84172872 8.86313048,5.22343711 10.5919249,5.22343711 C12.2333633,5.22343711 13.1150376,4.87501233 14.0029323,4.5211824 C14.8082321,4.20026692 15.6192912,3.87457818 17.1549132,3.87457818 Z" id="Rectangle"></path>
                </g>
            </g>
        </g>
    </g>
</svg>