<?xml version="1.0" encoding="UTF-8"?>
<svg width="45px" height="45px" viewBox="0 0 45 45" version="1.1" xmlns="http://www.w3.org/2000/svg" xmlns:xlink="http://www.w3.org/1999/xlink">
    <title>Group 11</title>
    <g id="Host-Property" stroke="none" stroke-width="1" fill="none" fill-rule="evenodd">
        <g id="Group-11">
            <rect id="Rectangle" x="0" y="0" width="45" height="45"></rect>
            <g id="Group-25" transform="translate(8.000000, 8.000000)" stroke="#142222">
                <path d="M27.64,4.1 C28.1536248,4.1 28.6186248,4.30818759 28.9552186,4.64478139 C29.2918124,4.98137518 29.5,5.44637518 29.5,5.96 L29.5,28.82 C29.5,29.0077768 29.4238884,29.1777768 29.3008326,29.3008326 C29.1777768,29.4238884 29.0077768,29.5 28.82,29.5 L17.98,29.5 C17.7922232,29.5 17.6222232,29.4238884 17.4991674,29.3008326 C17.3761116,29.1777768 17.3,29.0077768 17.3,28.82 L17.3,5.96 C17.3,5.44637518 17.5081876,4.98137518 17.8447814,4.64478139 C18.1813752,4.30818759 18.6463752,4.1 19.16,4.1 Z" id="Rectangle"></path>
                <path d="M15.64,0.5 C16.1536248,0.5 16.6186248,0.708187591 16.9552186,1.04478139 C17.2918124,1.38137518 17.5,1.84637518 17.5,2.36 L17.5,28.82 C17.5,29.0077768 17.4238884,29.1777768 17.3008326,29.3008326 C17.1777768,29.4238884 17.0077768,29.5 16.82,29.5 L1.18,29.5 C0.992223185,29.5 0.822223185,29.4238884 0.699167389,29.3008326 C0.576111593,29.1777768 0.5,29.0077768 0.5,28.82 L0.5,2.36 C0.5,1.84637518 0.708187591,1.38137518 1.04478139,1.04478139 C1.38137518,0.708187591 1.84637518,0.5 2.36,0.5 Z" id="Rectangle"></path>
                <path d="M12.02,20.9 C12.2077768,20.9 12.3777768,20.9761116 12.5008326,21.0991674 C12.6238884,21.2222232 12.7,21.3922232 12.7,21.58 L12.7,29.5 L6.5,29.5 L6.5,21.58 C6.5,21.3922232 6.57611159,21.2222232 6.69916739,21.0991674 C6.82222319,20.9761116 6.99222319,20.9 7.18,20.9 Z" id="Rectangle"></path>
                <rect id="Rectangle" x="4.1" y="5.3" width="1.4" height="1.4"></rect>
                <rect id="Rectangle" x="12.5" y="5.3" width="1.4" height="1.4"></rect>
                <rect id="Rectangle" x="12.5" y="11.3" width="1.4" height="1.4"></rect>
                <rect id="Rectangle" x="4.1" y="11.3" width="1.4" height="1.4"></rect>
                <rect id="Rectangle" x="22.1" y="8.9" width="1.4" height="1.4"></rect>
                <rect id="Rectangle" x="22.1" y="13.7" width="1.4" height="1.4"></rect>
            </g>
        </g>
    </g>
</svg>