<?xml version="1.0" encoding="UTF-8"?>
<svg width="45px" height="45px" viewBox="0 0 45 45" version="1.1" xmlns="http://www.w3.org/2000/svg" xmlns:xlink="http://www.w3.org/1999/xlink">
    <title>Group 7</title>
    <g id="Host-Property" stroke="none" stroke-width="1" fill="none" fill-rule="evenodd">
        <g id="Group-18">
            <rect id="Rectangle" x="0" y="0" width="45" height="45"></rect>
            <g id="House" transform="translate(9.000000, 9.000000)" stroke="#000000" stroke-linecap="round" stroke-linejoin="round">
                <path d="M17.1809192,25.8069664 L17.1809192,18.654311 C17.1809192,17.9959409 16.6314505,17.4622266 15.9536465,17.4622266 L11.0445556,17.4622266 C10.3667516,17.4622266 9.81728284,17.9959409 9.81728284,18.654311 L9.81728284,25.8069664 C9.81728285,26.4652782 9.26790762,26.9989685 8.59016352,26.9990508 L1.22742614,27 C0.901906593,27 0.589705559,26.8744553 0.359514096,26.6508918 C0.129322633,26.4273283 0,26.1240944 0,25.8079081 L0,12.0303331 C0,11.6945048 0.145833962,11.3742545 0.401641875,11.1483307 L12.6735254,0.31008256 C13.1416333,-0.103340298 13.8565909,-0.103363525 14.3247273,0.310028916 L26.5982983,11.1483247 C26.8541426,11.3742507 27,11.6945249 27,12.0303807 L27,25.8079156 C27,26.1241018 26.8706774,26.4273358 26.6404859,26.6508992 C26.4102944,26.8744627 26.0980934,27 25.7725739,27 L18.4080385,26.9990582 C17.7302914,26.998976 17.180915,26.4652811 17.1809192,25.8069664 Z" id="Path"></path>
            </g>
        </g>
    </g>
</svg>