<?xml version="1.0" encoding="UTF-8"?>
<svg width="26px" height="26px" viewBox="0 0 26 26" version="1.1" xmlns="http://www.w3.org/2000/svg" xmlns:xlink="http://www.w3.org/1999/xlink">
    <title>add@3x</title>
    <g id="Home" stroke="none" stroke-width="1" fill="none" fill-rule="evenodd">
        <g transform="translate(-330, -423)" fill="#0E7ECA" fill-rule="nonzero" id="Group-8">
            <g transform="translate(195, 353)">
                <g id="Group-5" transform="translate(78, 70)">
                    <g id="add" transform="translate(57, 0)">
                        <path d="M1.625,14.625 L11.375,14.625 L11.375,24.375 C11.375,25.2711948 12.1038052,26 13,26 C13.8961948,26 14.625,25.2711948 14.625,24.375 L14.625,14.625 L24.375,14.625 C25.2711948,14.625 26,13.8961948 26,13 C26,12.1038052 25.2711948,11.375 24.375,11.375 L14.625,11.375 L14.625,1.625 C14.625,0.728805161 13.8961948,0 13,0 C12.1038052,0 11.375,0.728805161 11.375,1.625 L11.375,11.375 L1.625,11.375 C0.728805161,11.375 0,12.1038052 0,13 C0,13.8961948 0.728805161,14.625 1.625,14.625 Z" id="Path"></path>
                    </g>
                </g>
            </g>
        </g>
    </g>
</svg>