<?xml version="1.0" encoding="UTF-8"?>
<svg width="77.8px" height="77.8px" viewBox="0 0 77.8 77.8" version="1.1" xmlns="http://www.w3.org/2000/svg" xmlns:xlink="http://www.w3.org/1999/xlink">
    <title>pavo_dashboard@3x</title>
    <defs>
        <circle id="path-1" cx="29.9" cy="29.9" r="29.9"></circle>
        <filter x="-21.7%" y="-20.1%" width="150.2%" height="150.2%" filterUnits="objectBoundingBox" id="filter-3">
            <feOffset dx="2" dy="3" in="SourceAlpha" result="shadowOffsetOuter1"></feOffset>
            <feGaussianBlur stdDeviation="4.5" in="shadowOffsetOuter1" result="shadowBlurOuter1"></feGaussianBlur>
            <feColorMatrix values="0 0 0 0 0.764705882   0 0 0 0 0.756862745   0 0 0 0 0.756862745  0 0 0 1 0" type="matrix" in="shadowBlurOuter1"></feColorMatrix>
        </filter>
    </defs>
    <g id="dashboard" stroke="none" stroke-width="1" fill="none" fill-rule="evenodd">
        <g id="Dashboard" transform="translate(-849, -365)">
            <g id="Group-20" transform="translate(835, 336)">
                <g id="pavo_dashboard" transform="translate(21, 35)">
                    <mask id="mask-2" fill="white">
                        <use xlink:href="#path-1"></use>
                    </mask>
                    <g id="Oval">
                        <use fill="black" fill-opacity="1" filter="url(#filter-3)" xlink:href="#path-1"></use>
                        <use fill="#019F98" fill-rule="evenodd" xlink:href="#path-1"></use>
                    </g>
                    <g id="Group-16" mask="url(#mask-2)" fill="#FFFFFF" fill-rule="nonzero" stroke="#FFFFFF" stroke-width="0.582255537">
                        <g transform="translate(14, 14)" id="Path">
                            <path d="M8.64884489,2.88721106 C15.5548801,-0.993591883 24.2851928,1.15449775 28.6056169,7.79756608 L24.7267496,7.20075416 C24.5535264,7.17475167 24.3795995,7.24320544 24.2704855,7.38032961 C24.1613716,7.51745378 24.1336475,7.70241592 24.1977568,7.86554257 C24.261866,8.02866922 24.4080689,8.14517757 24.5812921,8.17118005 L29.4589677,8.92811225 L29.536545,8.92811225 C29.7767404,8.93120598 29.9829889,8.75783055 30.0214034,8.52053337 L30.7583882,3.62473474 C30.7990872,3.36097399 30.6192854,3.11383668 30.3559557,3.07159198 C30.0923877,3.03086322 29.845431,3.21079652 29.8032171,3.47431872 L29.2504785,7.03578176 C24.9913765,0.741401819 16.8969309,-1.68859665 9.8789752,1.22034663 C2.86101953,4.12928991 -1.14581257,11.5752691 0.289885977,19.0399501 C0.334613741,19.2714491 0.539169022,19.4372601 0.774744383,19.4329726 C0.805243314,19.4380402 0.836368549,19.4380402 0.86686748,19.4329726 C0.993670252,19.4094316 1.10587656,19.3363058 1.17866914,19.2297688 C1.25146172,19.1232318 1.27884202,18.9920629 1.2547542,18.8652734 C0.0086765808,12.4996664 2.99170315,6.05357499 8.64884489,2.88721106 Z"></path>
                            <path d="M31.6893163,12.8486329 C31.6555378,12.675283 31.5319117,12.5331349 31.3650067,12.4757344 C31.1981017,12.4183339 31.0132747,12.4544015 30.8801483,12.5703509 C30.7470218,12.6863003 30.685821,12.864516 30.7195995,13.0378659 C32.1014042,20.084448 28.3131582,27.1257655 21.6741814,29.8508345 C15.0352045,32.5759034 7.39726241,30.2246385 3.43661703,24.2365807 L7.31548427,24.6296032 C7.58326418,24.6564008 7.82205053,24.4608873 7.84882852,24.1929116 C7.87560651,23.9249359 7.68023586,23.6859749 7.41245596,23.6591773 L2.49599172,23.1739644 L2.44750588,23.1739644 C2.19924298,23.1724572 1.98995233,23.3588621 1.96264748,23.6058039 L1.47778907,28.5210111 C1.46426623,28.6498296 1.50277255,28.7787115 1.58473425,28.8789602 C1.66669596,28.9792088 1.78530846,29.0425014 1.91416164,29.0547453 L1.96264748,29.0547453 C2.20833417,29.0430224 2.40632447,28.8490586 2.42326296,28.6034973 L2.78205818,25.0177736 C5.77713241,29.3933738 10.738244,32.0064901 16.038087,32 C20.8247621,31.9884465 25.3548577,29.8328922 28.3852032,26.1248626 C31.4155487,22.4168329 32.6278114,17.5458502 31.6893163,12.8486329 Z"></path>
                            <path d="M16.4017308,24.8625054 L16.4017308,22.5917088 L16.6005227,22.5577439 C18.6078365,22.2277991 19.9024085,20.8400901 19.9024085,19.0253937 C19.9024085,17.2106973 18.9326917,16.1383766 16.6150685,15.1873593 C14.6756349,14.39161 13.7059181,13.7317204 13.7059181,12.4362019 C13.7059181,11.3638812 14.510783,10.2818564 16.2999105,10.2818564 C17.2291152,10.2724246 18.1458939,10.4959486 18.9666318,10.9320417 L19.3448213,9.92765092 C18.5457294,9.51310379 17.6605545,9.29206375 16.760526,9.2823177 L16.5229454,9.2823177 L16.5229454,7.12797222 L15.6405031,7.12797222 L15.6405031,9.33569113 L15.4368626,9.36965603 C13.531369,9.68019232 12.2949801,10.9902673 12.2949801,12.703069 C12.2949801,14.3091238 13.2646969,15.3232189 15.8005064,16.3130533 C17.1144727,16.8467875 18.4575304,17.6037197 18.4575304,19.1806618 C18.4575304,20.6023358 17.2744759,21.6067266 15.5774715,21.6067266 C14.5013411,21.6013466 13.445193,21.3153761 12.5131664,20.7770124 L12.144674,21.810516 C13.0933464,22.3426255 14.1603145,22.6279144 15.2477678,22.6402301 L15.4853484,22.6402301 L15.4853484,24.8770618 L16.4017308,24.8625054 Z"></path>
                        </g>
                    </g>
                </g>
            </g>
        </g>
    </g>
</svg>