<?xml version="1.0" encoding="UTF-8"?>
<svg width="13.7109375px" height="18px" viewBox="0 0 13.7109375 18" version="1.1" xmlns="http://www.w3.org/2000/svg" xmlns:xlink="http://www.w3.org/1999/xlink">
    <title>2991108@3x</title>
    <g id="Support" stroke="none" stroke-width="1" fill="none" fill-rule="evenodd">
        <g id="Establishment-support---ticket-list" transform="translate(-273, -513)" fill-rule="nonzero">
            <g id="Group-8" transform="translate(234, 138)">
                <g id="Group-30" transform="translate(19, 340)">
                    <g id="2991108" transform="translate(20, 35)">
                        <g id="Docs_3_">
                            <path d="M13.7109375,4.74609375 L10.0195312,3.69140625 L8.96484375,0 L1.58203125,0 C0.708292969,0 0,0.708292969 0,1.58203125 L0,16.4179688 C0,17.291707 0.708292969,18 1.58203125,18 L12.1289062,18 C13.0026445,18 13.7109375,17.291707 13.7109375,16.4179688 L13.7109375,4.74609375 Z" id="Path" fill="#4086F4"></path>
                            <path d="M13.7109375,4.74609375 L13.7109375,16.4179688 C13.7109375,17.291707 13.0026445,18 12.1289062,18 L6.85546875,18 L6.85546875,0 L8.96484375,0 L10.0195312,3.69140625 L13.7109375,4.74609375 Z" id="Path" fill="#4175DF"></path>
                            <path d="M13.7109375,4.74609375 L10.0195312,4.74609375 C9.43945312,4.74609375 8.96484375,4.27148438 8.96484375,3.69140625 L8.96484375,0 C9.10195312,0 9.2390625,0.052734375 9.33394922,0.158238281 L13.5526992,4.37698828 C13.6582031,4.471875 13.7109375,4.60898437 13.7109375,4.74609375 Z" id="Path" fill="#80AEF8"></path>
                            <path d="M10.0195312,8.47265625 L3.69140625,8.47265625 C3.39992578,8.47265625 3.1640625,8.23679297 3.1640625,7.9453125 C3.1640625,7.65383203 3.39992578,7.41796875 3.69140625,7.41796875 L10.0195312,7.41796875 C10.3110117,7.41796875 10.546875,7.65383203 10.546875,7.9453125 C10.546875,8.23679297 10.3110117,8.47265625 10.0195312,8.47265625 Z" id="Path" fill="#FFF5F5"></path>
                            <path d="M10.0195312,10.5820312 L3.69140625,10.5820312 C3.39992578,10.5820312 3.1640625,10.346168 3.1640625,10.0546875 C3.1640625,9.76320703 3.39992578,9.52734375 3.69140625,9.52734375 L10.0195312,9.52734375 C10.3110117,9.52734375 10.546875,9.76320703 10.546875,10.0546875 C10.546875,10.346168 10.3110117,10.5820312 10.0195312,10.5820312 Z" id="Path" fill="#FFF5F5"></path>
                            <path d="M10.0195312,12.6914062 L3.69140625,12.6914062 C3.39992578,12.6914062 3.1640625,12.455543 3.1640625,12.1640625 C3.1640625,11.872582 3.39992578,11.6367188 3.69140625,11.6367188 L10.0195312,11.6367188 C10.3110117,11.6367188 10.546875,11.872582 10.546875,12.1640625 C10.546875,12.455543 10.3110117,12.6914062 10.0195312,12.6914062 Z" id="Path" fill="#FFF5F5"></path>
                            <path d="M7.91015625,14.8007812 L3.69140625,14.8007812 C3.39992578,14.8007812 3.1640625,14.564918 3.1640625,14.2734375 C3.1640625,13.981957 3.39992578,13.7460938 3.69140625,13.7460938 L7.91015625,13.7460938 C8.20163672,13.7460938 8.4375,13.981957 8.4375,14.2734375 C8.4375,14.564918 8.20163672,14.8007812 7.91015625,14.8007812 Z" id="Path" fill="#FFF5F5"></path>
                        </g>
                        <g id="Group" transform="translate(6.8555, 7.418)" fill="#E3E7EA">
                            <path d="M0,7.3828125 L1.0546875,7.3828125 C1.34616797,7.3828125 1.58203125,7.14694922 1.58203125,6.85546875 C1.58203125,6.56398828 1.34616797,6.328125 1.0546875,6.328125 L0,6.328125 L0,7.3828125 Z" id="Path"></path>
                            <path d="M0,5.2734375 L3.1640625,5.2734375 C3.45554297,5.2734375 3.69140625,5.03757422 3.69140625,4.74609375 C3.69140625,4.45461328 3.45554297,4.21875 3.1640625,4.21875 L0,4.21875 L0,5.2734375 Z" id="Path"></path>
                            <path d="M0,3.1640625 L3.1640625,3.1640625 C3.45554297,3.1640625 3.69140625,2.92819922 3.69140625,2.63671875 C3.69140625,2.34523828 3.45554297,2.109375 3.1640625,2.109375 L0,2.109375 L0,3.1640625 Z" id="Path"></path>
                            <path d="M0,1.0546875 L3.1640625,1.0546875 C3.45554297,1.0546875 3.69140625,0.818824219 3.69140625,0.52734375 C3.69140625,0.235863281 3.45554297,0 3.1640625,0 L0,0 L0,1.0546875 Z" id="Path"></path>
                        </g>
                    </g>
                </g>
            </g>
        </g>
    </g>
</svg>