<?xml version="1.0" encoding="UTF-8"?>
<svg width="11px" height="12px" viewBox="0 0 11 12" version="1.1" xmlns="http://www.w3.org/2000/svg" xmlns:xlink="http://www.w3.org/1999/xlink">
    <title>Combined Shape@3x</title>
    <g id="Support" stroke="none" stroke-width="1" fill="none" fill-rule="evenodd">
        <g id="Establishment-support---ticket-list" transform="translate(-476, -516)" fill="#444A4A" fill-rule="nonzero">
            <g id="Group-8" transform="translate(234, 138)">
                <g id="Group-30" transform="translate(19, 340)">
                    <g id="860801" transform="translate(228.5, 44) scale(-1, 1) translate(-228.5, -44)translate(223, 38)">
                        <path d="M10.5769154,8 C10.8105825,8 11,8.17908559 11,8.40000703 L11,10.8000023 C11,11.4627432 10.4317474,12 9.73077114,12 L1.26922886,12 C0.568252602,12 0,11.4627432 0,10.8000023 L0,8.40000703 C0,8.17908559 0.189417534,8 0.423084551,8 C0.656751567,8 0.846169101,8.17908559 0.846169101,8.40000703 L0.846169101,10.8000023 C0.846169101,11.0209238 1.03558664,11.2000094 1.26925365,11.2000094 L9.73074635,11.2000094 C9.96441336,11.2000094 10.1538309,11.0209238 10.1538309,10.8000023 L10.1538309,8.40000703 C10.1538309,8.17908559 10.3432484,8 10.5769154,8 Z M5.49959071,0 C5.73015056,0 5.91704934,0.186541981 5.91704934,0.416661693 L5.91704934,8.57722033 L7.2925568,7.20519319 C7.45431071,7.04926548 7.71077369,7.04926548 7.87255205,7.20519319 C8.03839078,7.36505144 8.04298925,7.62881267 7.88280079,7.79433481 L5.79555657,9.87759445 C5.63157681,10.0408461 5.36726217,10.0405044 5.20443202,9.87759445 L3.11718781,7.79433481 C2.9609374,7.63286528 2.9609374,7.37689189 3.11718781,7.21542236 C3.27735181,7.04992464 3.54161753,7.04533494 3.70745625,7.20519319 L5.08213208,8.57724474 L5.08213208,0.416661693 C5.08213208,0.186541981 5.26903085,0 5.49959071,0 Z" id="Combined-Shape"></path>
                    </g>
                </g>
            </g>
        </g>
    </g>
</svg>