<?xml version="1.0" encoding="UTF-8"?>
<svg width="77.8px" height="77.8px" viewBox="0 0 77.8 77.8" version="1.1" xmlns="http://www.w3.org/2000/svg" xmlns:xlink="http://www.w3.org/1999/xlink">
    <title>pavo_dashboard@3x</title>
    <defs>
        <circle id="path-1" cx="29.9" cy="29.9" r="29.9"></circle>
        <filter x="-21.7%" y="-20.1%" width="150.2%" height="150.2%" filterUnits="objectBoundingBox" id="filter-2">
            <feOffset dx="2" dy="3" in="SourceAlpha" result="shadowOffsetOuter1"></feOffset>
            <feGaussianBlur stdDeviation="4.5" in="shadowOffsetOuter1" result="shadowBlurOuter1"></feGaussianBlur>
            <feColorMatrix values="0 0 0 0 0.764705882   0 0 0 0 0.756862745   0 0 0 0 0.756862745  0 0 0 1 0" type="matrix" in="shadowBlurOuter1"></feColorMatrix>
        </filter>
    </defs>
    <g id="dashboard" stroke="none" stroke-width="1" fill="none" fill-rule="evenodd">
        <g id="Dashboard" transform="translate(-1136, -365)">
            <g id="Group-28" transform="translate(1122, 336)">
                <g id="pavo_dashboard" transform="translate(21, 35)">
                    <g id="Oval">
                        <use fill="black" fill-opacity="1" filter="url(#filter-2)" xlink:href="#path-1"></use>
                        <use fill="#0E7ECA" fill-rule="evenodd" xlink:href="#path-1"></use>
                    </g>
                    <g id="Users" transform="translate(11, 16)" fill="#FFFFFF" fill-rule="nonzero">
                        <path d="M31.4604651,17.0709677 C32.7418605,16.0258065 33.5813953,14.4145161 33.5813953,12.6290323 C33.5813953,9.62419355 31.1069767,6.96774194 28.2790698,6.96774194 C25.4511628,6.96774194 22.9767442,9.62419355 22.9767442,12.6290323 C22.9767442,14.4145161 23.8162791,16.0258065 25.0976744,17.0709677 C24.5232558,17.2887097 23.9930233,17.5064516 23.4627907,17.8112903 C21.7837209,15.8516129 19.5744186,14.3274194 17.0116279,13.5870968 C18.955814,12.2370968 20.3255814,9.92903226 20.3255814,7.40322581 C20.3255814,3.44032258 17.0116279,0 13.255814,0 C9.5,0 6.18604651,3.44032258 6.18604651,7.40322581 C6.18604651,9.92903226 7.55581395,12.2370968 9.5,13.5870968 C4.02093023,15.1983871 0,20.2064516 0,26.1290323 C0,26.6080645 0.397674419,27 0.88372093,27 L37.1162791,27 C37.6023256,27 38,26.6080645 38,26.1290323 C38,21.9483871 35.2604651,18.3774194 31.4604651,17.0709677 Z M24.744186,12.6290323 C24.744186,10.8 26.2906977,8.70967742 28.2790698,8.70967742 C30.2674419,8.70967742 31.8139535,10.8 31.8139535,12.6290323 C31.8139535,14.4580645 30.2674419,16.5483871 28.2790698,16.5483871 C26.2906977,16.5483871 24.744186,14.4580645 24.744186,12.6290323 Z M7.95348837,7.40322581 C7.95348837,4.74677419 10.2069767,1.74193548 13.255814,1.74193548 C16.3046512,1.74193548 18.5581395,4.74677419 18.5581395,7.40322581 C18.5581395,10.0596774 16.3046512,13.0645161 13.255814,13.0645161 C10.2069767,13.0645161 7.95348837,10.0596774 7.95348837,7.40322581 Z M1.81162791,25.2580645 C2.25348837,19.4225806 7.24651163,14.8064516 13.255814,14.8064516 C19.3093023,14.8064516 24.2581395,19.4225806 24.7,25.2580645 L1.81162791,25.2580645 Z M26.4674419,25.2580645 C26.3348837,23.0806452 25.627907,20.9903226 24.4790698,19.2483871 C25.627907,18.6387097 26.9093023,18.2903226 28.2790698,18.2903226 C32.3883721,18.2903226 35.7465116,21.3387097 36.1883721,25.2580645 L26.4674419,25.2580645 L26.4674419,25.2580645 Z" id="Shape"></path>
                    </g>
                </g>
            </g>
        </g>
    </g>
</svg>