<?xml version="1.0" encoding="UTF-8"?>
<svg width="17px" height="17px" viewBox="0 0 17 17" version="1.1" xmlns="http://www.w3.org/2000/svg" xmlns:xlink="http://www.w3.org/1999/xlink">
    <title>ion-information-circled - Ionicons@3x</title>
    <g id="Home" stroke="none" stroke-width="1" fill="none" fill-rule="evenodd">
        <g transform="translate(-590, -521)" fill="#2771ED" fill-rule="nonzero" id="ion-information-circled---Ionicons">
            <g transform="translate(590, 521)">
                <path d="M16.9994207,8.38616847 C17.0247166,10.7386867 16.2215719,12.7497104 14.5899867,14.4192394 C12.9584015,16.0887685 10.9663498,16.9488289 8.61383153,16.9994207 C6.2613133,17.0247166 4.25028965,16.2215719 2.58076058,14.5899867 C0.911231514,12.9584015 0.0511710852,10.9663498 0.000579295304,8.61383153 C-0.0247165997,6.2613133 0.778428065,4.25028965 2.41001329,2.58076058 C4.04159851,0.911231514 6.03365024,0.0511710852 8.38616847,0.000579295304 C10.7386867,-0.0247165997 12.7497104,0.778428065 14.4192394,2.41001329 C16.0887685,4.04159851 16.9488289,6.03365024 16.9994207,8.38616847 Z M9.37270838,3.37758127 C9.14504532,3.14991822 8.85414253,3.03608669 8.5,3.03608669 C8.14585747,3.03608669 7.85495468,3.14991822 7.62729162,3.37758127 C7.39962857,3.60524433 7.28579704,3.89614712 7.28579704,4.25028965 C7.28579704,4.60443218 7.39962857,4.89533497 7.62729162,5.12299802 C7.85495468,5.35066108 8.14585747,5.46449261 8.5,5.46449261 C8.85414253,5.46449261 9.14504532,5.35066108 9.37270838,5.12299802 C9.60037143,4.89533497 9.71420296,4.60443218 9.71420296,4.25028965 C9.71420296,3.89614712 9.60037143,3.60524433 9.37270838,3.37758127 Z M10.1695291,13.7741941 L10.1695291,13.3568118 L9.33476453,13.3568118 L9.33476453,6.83047093 L6.83047093,6.83047093 L6.83047093,7.28579704 L7.66523547,7.28579704 L7.66523547,13.3568118 L6.83047093,13.3568118 L6.83047093,13.7741941 L10.1695291,13.7741941 Z" id="Shape"></path>
            </g>
        </g>
    </g>
</svg>