<?xml version="1.0" encoding="UTF-8"?>
<svg width="77.8px" height="77.8px" viewBox="0 0 77.8 77.8" version="1.1" xmlns="http://www.w3.org/2000/svg" xmlns:xlink="http://www.w3.org/1999/xlink">
    <title>pavo_dashboard@3x</title>
    <defs>
        <circle id="path-1" cx="29.9" cy="29.9" r="29.9"></circle>
        <filter x="-21.7%" y="-20.1%" width="150.2%" height="150.2%" filterUnits="objectBoundingBox" id="filter-3">
            <feOffset dx="2" dy="3" in="SourceAlpha" result="shadowOffsetOuter1"></feOffset>
            <feGaussianBlur stdDeviation="4.5" in="shadowOffsetOuter1" result="shadowBlurOuter1"></feGaussianBlur>
            <feColorMatrix values="0 0 0 0 0.764705882   0 0 0 0 0.756862745   0 0 0 0 0.756862745  0 0 0 1 0" type="matrix" in="shadowBlurOuter1"></feColorMatrix>
        </filter>
    </defs>
    <g id="dashboard" stroke="none" stroke-width="1" fill="none" fill-rule="evenodd">
        <g id="Dashboard" transform="translate(-564, -365)">
            <g id="Group-20" transform="translate(550, 336)">
                <g id="pavo_dashboard" transform="translate(21, 35)">
                    <mask id="mask-2" fill="white">
                        <use xlink:href="#path-1"></use>
                    </mask>
                    <g id="Oval">
                        <use fill="black" fill-opacity="1" filter="url(#filter-3)" xlink:href="#path-1"></use>
                        <use fill="#0E7ECA" fill-rule="evenodd" xlink:href="#path-1"></use>
                    </g>
                    <g id="Share" mask="url(#mask-2)" fill="#FFFFFF" fill-rule="nonzero">
                        <g transform="translate(15, 15)" id="Shape">
                            <path d="M24.0014787,18.0196053 C22.2075971,18.031453 20.5132005,18.8445933 19.3830697,20.2359783 L11.735704,16.7167374 C12.0952622,15.6171587 12.0952622,14.4318545 11.735704,13.3322759 L19.3830697,9.81303494 C21.2455101,12.0575202 24.4553682,12.6371618 26.9868739,11.1861427 C29.5183797,9.73512357 30.6364605,6.67477571 29.6354858,3.93651186 C28.6345111,1.19824801 25.8051334,-0.422823047 22.9329982,0.0963710504 C20.060863,0.615565148 17.9799513,3.12426617 18.0035449,6.03921061 C18.0080549,6.39597449 18.0431714,6.75169607 18.1085087,7.10247064 L10.191236,10.7415155 C7.8352746,8.44083621 4.06213142,8.46903837 1.74091346,10.804677 C-0.580304488,13.1403157 -0.580304488,16.9086976 1.74091346,19.2443362 C4.06213142,21.5799749 7.8352746,21.6081771 10.191236,19.3074977 L18.1085087,22.9465426 C18.0431714,23.2973172 18.0080549,23.6530388 18.0035449,24.0098027 C18.0035449,27.3180973 20.6889113,30 24.0014787,30 C27.3140461,30 29.9994125,27.3180973 29.9994125,24.0098027 C29.9994125,20.701508 27.3140461,18.0196053 24.0014787,18.0196053 Z M24.0014787,3.04411194 C25.6577624,3.04411194 27.0004456,4.38506329 27.0004456,6.03921061 C27.0004456,7.69335793 25.6577624,9.03430928 24.0014787,9.03430928 C22.345195,9.03430928 21.0025118,7.69335793 21.0025118,6.03921061 C21.0025118,4.38506329 22.345195,3.04411194 24.0014787,3.04411194 Z M6.00767719,18.0196053 C4.3513935,18.0196053 3.00871028,16.678654 3.00871028,15.0245066 C3.00871028,13.3703593 4.3513935,12.029408 6.00767719,12.029408 C7.66396089,12.029408 9.00664411,13.3703593 9.00664411,15.0245066 C9.00664411,16.678654 7.66396089,18.0196053 6.00767719,18.0196053 Z M24.0014787,27.0049013 C22.345195,27.0049013 21.0025118,25.66395 21.0025118,24.0098027 C21.0025118,22.3556553 22.345195,21.014704 24.0014787,21.014704 C25.6577624,21.014704 27.0004456,22.3556553 27.0004456,24.0098027 C27.0004456,25.66395 25.6577624,27.0049013 24.0014787,27.0049013 Z"></path>
                        </g>
                    </g>
                </g>
            </g>
        </g>
    </g>
</svg>