<?xml version="1.0" encoding="UTF-8"?>
<svg width="77.8px" height="77.8px" viewBox="0 0 77.8 77.8" version="1.1" xmlns="http://www.w3.org/2000/svg" xmlns:xlink="http://www.w3.org/1999/xlink">
    <title>Group 35@3x</title>
    <defs>
        <circle id="path-1" cx="29.9" cy="29.9" r="29.9"></circle>
        <filter x="-21.7%" y="-20.1%" width="150.2%" height="150.2%" filterUnits="objectBoundingBox" id="filter-2">
            <feOffset dx="2" dy="3" in="SourceAlpha" result="shadowOffsetOuter1"></feOffset>
            <feGaussianBlur stdDeviation="4.5" in="shadowOffsetOuter1" result="shadowBlurOuter1"></feGaussianBlur>
            <feColorMatrix values="0 0 0 0 0.764705882   0 0 0 0 0.756862745   0 0 0 0 0.756862745  0 0 0 1 0" type="matrix" in="shadowBlurOuter1"></feColorMatrix>
        </filter>
    </defs>
    <g id="dashboard" stroke="none" stroke-width="1" fill="none" fill-rule="evenodd">
        <g id="Dashboard" transform="translate(-278, -365)">
            <g id="Group-11" transform="translate(264, 336)">
                <g id="Group-35" transform="translate(21, 35)">
                    <g id="Oval">
                        <use fill="black" fill-opacity="1" filter="url(#filter-2)" xlink:href="#path-1"></use>
                        <use fill="#019F98" fill-rule="evenodd" xlink:href="#path-1"></use>
                    </g>
                    <g id="Like" transform="translate(14, 12)" fill="#FFFFFF" fill-rule="nonzero">
                        <path d="M36,13.7075225 C36,11.7144224 34.3614855,10.0933744 32.3485712,10.0933744 L23.1742284,10.0933744 C23.848457,7.91246692 24.6491999,3.75423717 22.048457,1.21960019 C21.263657,0.455137392 20.2649142,0.0225186305 19.2358285,0.00114217403 C18.1990285,-0.0232880619 17.2954285,0.344692367 16.6222285,1.05673195 C16.2534916,1.4489169 16.0497103,1.96547471 16.0523999,2.50116965 L16.0523999,2.86304252 C16.0523999,6.58356387 14.3393142,10.0292451 11.4701142,12.0788401 C10.6219523,12.6850496 9.68990761,13.1670762 8.70274281,13.5100447 C8.65415605,12.6019924 7.89717381,11.8897096 6.97834282,11.8874699 L1.73365713,11.8874699 C0.776855133,11.8885911 0.00141681469,12.6557766 0,13.602676 L0,33.2842849 C0.00113355461,34.2313831 0.776654664,34.9988782 1.73365713,35 L6.97937139,35 C7.93597255,34.9985985 8.71109809,34.2314949 8.71251423,33.2847939 L8.71251423,32.5859873 C11.7699428,33.0969864 14.9240571,33.3540129 18.1594285,33.3540129 C21.7763999,33.3540129 25.4941713,33.0343839 29.2865141,32.3951261 C31.2060426,32.3422622 32.7350539,30.7882572 32.7373712,28.8878603 C32.7373712,28.3000078 32.5887427,27.7462558 32.3295427,27.2591779 C33.8091427,26.8112903 34.8891426,25.4472688 34.8891426,23.8384359 C34.8891426,23.0851703 34.6515427,22.3878907 34.2488569,21.8107264 C35.3321313,21.1827323 35.9983988,20.0340111 36,18.7915564 C36,17.8031497 35.5834284,16.9114461 34.9163998,16.2732062 C35.6100185,15.5959724 36,14.6718076 36,13.7075225 L36,13.7075225 Z M6.65537139,32.964147 L2.05714284,32.964147 L2.05714284,13.9233229 L6.65537139,13.9233229 L6.65537139,32.964147 L6.65537139,32.964147 Z M32.4575998,17.3221795 C33.2763427,17.3221795 33.9428569,17.9812869 33.9428569,18.7920653 C33.9428569,19.6028438 33.2763427,20.2614422 32.4575998,20.2614422 L26.3710284,20.2614422 C25.8029641,20.2614422 25.342457,20.7171834 25.342457,21.2793687 C25.342457,21.841554 25.8029641,22.2972952 26.3710284,22.2972952 L31.2747427,22.2972952 C32.1346401,22.2981373 32.8314328,22.9879465 32.8319998,23.8389449 C32.830866,24.6895458 32.134239,25.3787355 31.2747427,25.3795767 L27.7019998,25.3795767 C27.1339355,25.3795767 26.6734284,25.8353179 26.6734284,26.3975032 C26.6734284,26.9596884 27.1339355,27.4154297 27.7019998,27.4154297 L29.1923998,27.4154297 C30.0139529,27.4162717 30.6796615,28.0753184 30.6802284,28.8883693 C30.6790953,29.7011054 30.013635,30.3596786 29.1923998,30.3608 C29.1337713,30.3608 29.075657,30.3658896 29.0185713,30.3755599 C21.9075427,31.5823118 15.0809142,31.6276095 8.71251423,30.5180696 L8.71251423,15.6481993 C10.1350906,15.2390059 11.4756257,14.5898801 12.6750856,13.7294079 C16.0781142,11.2980905 18.110057,7.23605476 18.110057,2.86304252 L18.110057,2.50116965 C18.109484,2.4822046 18.114875,2.46353131 18.1254856,2.44772851 C18.3954856,2.16169117 18.7487999,2.02528902 19.193657,2.03648621 C19.6955999,2.04666547 20.1965142,2.27213619 20.6053713,2.67065442 C23.1346284,5.13505447 20.8573713,10.5071616 20.7750856,10.6964959 C20.723657,10.8094857 20.694857,10.9331638 20.6886856,11.0629494 C20.6886856,11.0761825 20.6850856,11.0894155 20.6845713,11.1021396 L20.684057,11.1113009 C20.684057,11.1459104 20.6907427,11.1789931 20.6943427,11.2130936 C20.6974284,11.2436314 20.6979427,11.2741692 20.7035999,11.3031801 C20.7102856,11.3388075 20.7226284,11.3723991 20.7329142,11.4064996 C20.7421713,11.4360195 20.748857,11.4660483 20.7606856,11.4940413 C20.7719999,11.5225432 20.7879427,11.5479914 20.8018284,11.5749665 C20.8187999,11.6075401 20.8342284,11.6411317 20.8547999,11.6716695 C20.8666284,11.6894832 20.8815427,11.7047521 20.8943999,11.7215479 C20.921657,11.7581932 20.9494284,11.7943296 20.9818284,11.8269033 C20.9910856,11.8360646 21.0023999,11.8436991 21.011657,11.8523514 C21.0507427,11.8889968 21.090857,11.9236063 21.1361142,11.9541441 C21.141257,11.9577068 21.1463999,11.9592337 21.1515427,11.9627965 C21.198857,11.9933342 21.2466856,12.0228541 21.3001713,12.0457575 C21.4421142,12.107851 21.5902284,12.1322812 21.7357713,12.1292274 L32.3485712,12.1292274 C33.2279998,12.1292274 33.9433712,12.8366864 33.9433712,13.7070135 C33.9433712,14.5773407 33.2285141,15.2858175 32.3490855,15.2858175 L25.7050284,15.2858175 C25.1369641,15.2858175 24.676457,15.7415587 24.676457,16.303744 C24.676457,16.8659293 25.1369641,17.3216705 25.7050284,17.3216705 L32.4570855,17.3216705 L32.4575998,17.3221795 Z" id="Shape"></path>
                    </g>
                </g>
            </g>
        </g>
    </g>
</svg>