<?xml version="1.0" encoding="UTF-8"?>
<svg width="17.6277696px" height="14px" viewBox="0 0 17.6277696 14" version="1.1" xmlns="http://www.w3.org/2000/svg" xmlns:xlink="http://www.w3.org/1999/xlink">
    <title>twitter@3x</title>
    <g id="influencer" stroke="none" stroke-width="1" fill="none" fill-rule="evenodd">
        <g id="profile-full-view" transform="translate(-773, -326)" fill="#000000" fill-rule="nonzero">
            <g id="Group-18" transform="translate(521, 99)">
                <g id="Group-16" transform="translate(40.8309, 51.3311)">
                    <g id="Group-15" transform="translate(3.1691, 175.6689)">
                        <g id="twitter" transform="translate(208, 0)">
                            <path d="M17.6223785,0.638871399 C17.6225834,0.420674019 17.4348655,0.243656931 17.2030993,0.243464003 C17.1277047,0.24341581 17.0537445,0.262462883 16.9889011,0.298628139 C16.3982429,0.630047011 15.7566217,0.873415484 15.0868299,1.02000548 C14.3553704,0.362182615 13.3817471,-0.00337631602 12.3701706,2.35035744e-05 C10.1808116,0.0026030472 8.40683931,1.67310278 8.40458571,3.73423607 C8.40458571,3.84070672 8.40950276,3.94872048 8.42015631,4.05750572 C5.88342963,3.80352886 3.55593281,2.61643873 1.94442737,0.754600408 C1.79727499,0.585587881 1.5324212,0.560899029 1.35289839,0.699436271 C1.31366461,0.729718707 1.2805771,0.76646267 1.25522367,0.807835733 C0.907394948,1.37953693 0.724594079,2.02694418 0.725003847,2.68577964 C0.723877006,3.40894122 0.945962927,4.11681688 1.36421783,4.72333323 C1.34782777,4.71484642 1.33066937,4.70635962 1.31422803,4.69710134 C1.1802902,4.63557206 1.02181839,4.64497508 0.897099971,4.72179019 C0.767310847,4.80111274 0.689201783,4.93714255 0.689765203,5.0828646 C0.686282215,5.17626754 0.692326108,5.26981514 0.707794252,5.36210902 C0.788156999,6.41712343 1.34337168,7.38958449 2.23371268,8.03472534 C2.15601338,8.05599054 2.08671396,8.09837628 2.03457294,8.15662656 C1.9395104,8.26044512 1.90847156,8.40327395 1.95262248,8.5339031 C2.34603609,9.68873379 3.31330821,10.5901179 4.54384624,10.9487813 C3.30577898,11.6012999 1.87984023,11.8676213 0.470906154,11.7095065 C0.240778856,11.6829371 0.0313441409,11.8370495 0.00312241144,12.0537038 C-0.0164432468,12.2041515 0.0570560713,12.3518506 0.192325668,12.4339699 C1.87835481,13.4561946 3.84147911,13.9996868 5.84691041,13.9993975 C10.5251574,14.0481966 14.6531068,11.1282577 15.9055154,6.88437918 C16.1899349,5.98569536 16.3350897,5.0531126 16.3365751,4.11537023 C16.3365751,4.02047245 16.3365751,3.92171704 16.3341166,3.8214186 C17.2167748,2.97650054 17.6838926,1.82253788 17.6223785,0.638871399 Z M15.588367,3.43025461 C15.5194774,3.50687687 15.4842899,3.60543935 15.4900264,3.70568959 C15.497402,3.8453359 15.497402,3.98421073 15.497402,4.11537023 C15.4957117,4.9775512 15.3621325,5.83505481 15.1007616,6.66140796 C13.9861322,10.5900214 10.1652411,13.2936918 5.84691041,13.2093542 C4.56643377,13.2097882 3.29886428,12.9687344 2.11898193,12.5003213 C3.50584055,12.3554672 4.82150473,11.8464526 5.91574887,11.0313347 C6.09803751,10.8964139 6.12963968,10.6479342 5.98632871,10.4763178 C5.90847576,10.3830112 5.79015972,10.327606 5.66416081,10.3253878 C4.5720167,10.3088482 3.5690449,9.75455458 3.02125698,8.864888 C3.37712708,8.8659006 3.73135811,8.81965724 4.07350143,8.72755629 C4.2960995,8.66737719 4.42471059,8.44874584 4.36078918,8.23917992 C4.3173555,8.09668859 4.19279074,7.98910888 4.03826279,7.96065879 C2.81008082,7.72944189 1.8491599,6.82718976 1.60023529,5.6715394 C1.95651507,5.78017999 2.32734116,5.84069659 2.70165008,5.85130513 C2.89167279,5.86461396 3.06494694,5.74902961 3.11468062,5.57587015 C3.17127765,5.40767729 3.10274657,5.22453618 2.9466821,5.12684157 C2.07964569,4.58334934 1.56033562,3.66639 1.56415586,2.68573145 C1.56392091,2.35985789 1.62036436,2.03615427 1.73135609,1.72749544 C3.59204227,3.61908577 6.16390522,4.75168677 8.89874726,4.88381076 C9.03140468,4.89702312 9.16165476,4.84335383 9.24130035,4.74262142 C9.32570934,4.64724148 9.35782375,4.52022891 9.32816787,4.39929209 C9.27264641,4.1814323 9.24427103,3.95826823 9.24375888,3.73423615 C9.24539787,2.10916003 10.6440369,0.792067655 12.3701706,0.79007883 C13.2331094,0.787776061 14.0577364,1.12546361 14.6443484,1.72132322 C14.7432524,1.82094657 14.8898926,1.86530939 15.0319743,1.83859527 C15.6274984,1.72831519 16.2064787,1.5500443 16.7561617,1.30778497 C16.6133629,2.1132105 16.2047885,2.85580485 15.588367,3.43025461 Z" id="Shape"></path>
                        </g>
                    </g>
                </g>
            </g>
        </g>
    </g>
</svg>