<?xml version="1.0" encoding="UTF-8"?>
<svg width="19.152px" height="17.152px" viewBox="0 0 19.152 17.152" version="1.1" xmlns="http://www.w3.org/2000/svg" xmlns:xlink="http://www.w3.org/1999/xlink">
    <title> copy 2@3x</title>
    <g id="influencer" stroke="none" stroke-width="1" fill="none" fill-rule="evenodd" stroke-linecap="round" stroke-linejoin="round">
        <g id="search-creators" transform="translate(-1373.2811, -270.424)" stroke="#5C6278" stroke-width="1.152">
            <g id="Group-18" transform="translate(268, 261)">
                <g id="Group-17" transform="translate(66, 0)">
                    <g id="Group-2" transform="translate(1030.8571, 0)">
                        <path d="M18,26 C18.1640625,26 18.3105469,25.9464286 18.4394531,25.8392857 L25.0664062,19.6964286 C25.6875,19.172619 26.1650391,18.5446429 26.4990234,17.8125 C26.8330078,17.0803571 27,16.297619 27,15.4642857 C27,14.702381 26.859375,13.9761905 26.578125,13.2857143 C26.3085938,12.6190476 25.9277344,12.0357143 25.4355469,11.5357143 C24.9433594,11.0357143 24.3955078,10.6547619 23.7919922,10.3928571 C23.1884766,10.1309524 22.5527344,10 21.8847656,10 C21.1347656,10 20.4228516,10.1666667 19.7490234,10.5 C19.0751953,10.8333333 18.4921875,11.3035714 18,11.9107143 C17.5078125,11.3035714 16.9248047,10.8333333 16.2509766,10.5 C15.5771484,10.1666667 14.8652344,10 14.1152344,10 C13.4472656,10 12.8115234,10.1309524 12.2080078,10.3928571 C11.6044922,10.6547619 11.0566406,11.0386905 10.5644531,11.5446429 C10.0722656,12.0505952 9.69140625,12.6369048 9.421875,13.3035714 C9.140625,13.9940476 9,14.7202381 9,15.4821429 C9.01171875,16.3154762 9.18164062,17.0922619 9.50976562,17.8125 C9.83789062,18.5327381 10.3007812,19.1547619 10.8984375,19.6785714 L15.609375,24.0357143 C16.4648438,24.8214286 17.1152344,25.422619 17.5605469,25.8392857 C17.6894531,25.9464286 17.8359375,26 18,26 Z" id="-copy-2"></path>
                    </g>
                </g>
            </g>
        </g>
    </g>
</svg>