<?xml version="1.0" encoding="UTF-8"?>
<svg width="109px" height="23px" viewBox="0 0 109 23" version="1.1" xmlns="http://www.w3.org/2000/svg" xmlns:xlink="http://www.w3.org/1999/xlink">
    <title>Group 4 Copy@0.5x</title>
    <g id="Host-onboarding" stroke="none" stroke-width="1" fill="none" fill-rule="evenodd">
        <g id="host-onboarding" transform="translate(-52.000000, -37.000000)" fill="#142222" fill-rule="nonzero">
            <g id="Group-38" transform="translate(52.000000, 0.000000)">
                <g id="Breeze-Copy" transform="translate(0.000000, 37.034530)">
                    <path d="M18.4701522,10.1147755 C20.6813676,9.08407856 21.7869753,7.5380331 21.7869753,5.50884843 C21.7869753,2.03024615 18.5026701,0.00106148632 12.1291668,0.00106148632 C8.71479011,0.00106148632 7.21896793,0.0976893275 4.91019891,0.0976893275 C3.47941247,0.0976893275 1.91855454,0.0654800471 0.617839598,0.00106148632 C0.357696609,-0.0311477941 0,0.677456375 0,1.06396774 C0,1.57931623 1.78848305,1.48268838 1.78848305,2.83547816 L1.78848305,18.8434905 C1.78848305,20.1962803 0,20.0996525 0,20.6150009 C0,21.0015123 0.357696609,21.7101165 0.617839598,21.6779072 C1.91855454,21.6134886 3.47941247,21.5812794 4.91019891,21.5812794 C7.21896793,21.5812794 8.71479011,21.6779072 12.1291668,21.6779072 C19.1205097,21.6779072 22.7625115,19.584304 22.7625115,15.6225625 C22.7625115,13.0780293 21.2666893,11.1776818 18.4701522,10.1147755 Z M8.35709351,9.21291568 L8.35709351,2.99652456 C8.35709351,2.22350183 8.81234373,2.25571111 10.4707553,2.25571111 C13.104703,2.25571111 14.665561,3.57629161 14.665561,5.7343134 C14.665561,7.92454446 13.104703,9.21291568 10.4707553,9.21291568 L8.35709351,9.21291568 Z M8.35709351,11.4675653 L10.7308983,11.4675653 C13.885132,11.4675653 15.6410972,12.8847736 15.6410972,15.4615161 C15.6410972,18.0382585 13.8526141,19.4232576 10.6008268,19.4232576 C9.98298718,19.4232576 8.35709351,19.4554668 8.35709351,18.6824441 L8.35709351,11.4675653 Z M24.5510175,7.40919598 C24.2908745,7.44140526 23.9656958,8.08559087 23.9656958,8.47210223 C23.9656958,8.98745072 25.3964822,8.89082288 25.3964822,10.2436127 L25.3964822,18.8112812 C25.3964822,20.1962803 23.9656958,20.0996525 23.9656958,20.6150009 C23.9656958,21.0015123 24.2908745,21.6779072 24.5510175,21.6779072 C25.8517324,21.6134886 27.1849652,21.5812794 28.5181981,21.5812794 C29.8514309,21.5812794 31.2171816,21.6134886 32.4853786,21.6779072 C32.7455216,21.6779072 33.1032182,21.0015123 33.1032182,20.6150009 C33.1032182,20.0996525 31.6399139,20.1962803 31.6399139,18.8112812 L31.6399139,14.4630284 C31.6399139,12.3050066 32.4853786,10.8233797 33.7535757,10.8233797 C35.5095409,10.8233797 35.4119873,12.2727973 36.0623447,12.2727973 C37.7207563,12.2727973 39.1515427,10.7589611 39.1515427,8.98745072 C39.1515427,7.05489389 37.7532742,5.573267 35.8672375,5.573267 C34.3063796,5.573267 32.6804859,7.3769867 31.6399139,9.53500848 L31.6399139,6.50733613 C31.6399139,6.24966188 30.9570386,5.8953598 30.5668241,5.8953598 C30.0465381,5.8953598 27.8678406,7.08710317 24.5510175,7.40919598 Z M51.0530995,18.3603513 C49.5572773,18.3603513 48.3215981,17.7805843 47.5086513,16.6854687 C50.6303672,16.3633759 55.7356733,14.5918655 55.7356733,11.1776818 C55.7356733,8.05338159 52.5164038,5.573267 48.3215981,5.573267 C43.4439171,5.573267 39.866951,9.05186928 39.866951,13.7866335 C39.866951,18.5858163 43.5414707,22 48.6467769,22 C54.7276192,22 56.7762453,17.7161657 56.7762453,16.6532595 C56.7762453,16.2667481 56.4510665,16.0734924 56.1584057,16.0734924 C55.9958163,16.0734924 55.8332269,16.137911 55.7031554,16.2667481 C54.5650299,17.5551193 52.7765468,18.3603513 51.0530995,18.3603513 Z M46.7607402,15.332679 C46.4030436,14.3664005 46.2079363,13.1424479 46.2079363,11.660821 C46.2079363,8.98745072 46.8908117,7.50582382 48.2565624,7.50582382 C49.394688,7.50582382 50.0125276,8.37547439 50.0125276,9.98593841 C50.0125276,12.466053 48.5492232,13.9476799 46.7607402,15.332679 Z M69.1330545,18.3603513 C67.6372323,18.3603513 66.4015531,17.7805843 65.5886062,16.6854687 C68.7103221,16.3633759 73.8156282,14.5918655 73.8156282,11.1776818 C73.8156282,8.05338159 70.5963588,5.573267 66.4015531,5.573267 C61.523872,5.573267 57.9469059,9.05186928 57.9469059,13.7866335 C57.9469059,18.5858163 61.6214257,22 66.7267318,22 C72.8075742,22 74.8562002,17.7161657 74.8562002,16.6532595 C74.8562002,16.2667481 74.5310215,16.0734924 74.2383606,16.0734924 C74.0757712,16.0734924 73.9131819,16.137911 73.7831104,16.2667481 C72.6449848,17.5551193 70.8565018,18.3603513 69.1330545,18.3603513 Z M64.8406951,15.332679 C64.4829985,14.3664005 64.2878913,13.1424479 64.2878913,11.660821 C64.2878913,8.98745072 64.9707666,7.50582382 66.3365173,7.50582382 C67.4746429,7.50582382 68.0924825,8.37547439 68.0924825,9.98593841 C68.0924825,12.466053 66.6291782,13.9476799 64.8406951,15.332679 Z M90.4322789,5.8953598 C88.1885456,5.95977836 86.2699911,5.99198764 84.3514365,5.99198764 C82.4003641,5.99198764 80.4818096,5.95977836 78.2380763,5.8953598 C77.5877188,5.8953598 77.295058,6.08861548 77.0999507,6.82942893 C76.9698792,7.31256814 76.254486,11.1776818 76.254486,11.435356 C76.254486,11.6930303 76.9698792,12.0473324 77.3600937,12.0473324 C77.9454154,12.0473324 78.6933265,8.15000943 83.2458288,8.15000943 L76.0918966,19.7453504 C75.9293073,20.0030246 75.7992358,20.2606989 75.7992358,20.5827917 C75.7992358,20.969303 76.0918966,21.6779072 76.3845575,21.6779072 C78.6282908,21.6134886 80.6769168,21.5812794 82.7255428,21.5812794 C84.7741689,21.5812794 86.8227949,21.6134886 89.0665282,21.6779072 C89.7168857,21.6779072 90.0095465,21.4524422 90.2046538,20.7438381 C90.3347253,20.2606989 91.0501185,16.3955852 91.0501185,16.137911 C91.0501185,15.8802367 90.3347253,15.5259346 89.9445108,15.5259346 C89.359189,15.5259346 88.1235099,19.4232576 83.5710076,19.4232576 L90.7249397,7.79570734 C90.8875291,7.50582382 91.0501185,7.28035886 91.0501185,6.95826605 C91.0501185,6.57175469 90.7249397,5.8953598 90.4322789,5.8953598 Z M103.276854,18.3603513 C101.781032,18.3603513 100.545353,17.7805843 99.732406,16.6854687 C102.854122,16.3633759 107.959428,14.5918655 107.959428,11.1776818 C107.959428,8.05338159 104.740159,5.573267 100.545353,5.573267 C95.6676718,5.573267 92.0907057,9.05186928 92.0907057,13.7866335 C92.0907057,18.5858163 95.7652255,22 100.870532,22 C106.951374,22 109,17.7161657 109,16.6532595 C109,16.2667481 108.674821,16.0734924 108.38216,16.0734924 C108.219571,16.0734924 108.056982,16.137911 107.92691,16.2667481 C106.788785,17.5551193 105.000302,18.3603513 103.276854,18.3603513 Z M98.9844949,15.332679 C98.6267983,14.3664005 98.4316911,13.1424479 98.4316911,11.660821 C98.4316911,8.98745072 99.1145664,7.50582382 100.480317,7.50582382 C101.618443,7.50582382 102.236282,8.37547439 102.236282,9.98593841 C102.236282,12.466053 100.772978,13.9476799 98.9844949,15.332679 Z" id="Combined-Shape"></path>
                </g>
            </g>
        </g>
    </g>
</svg>