<svg xmlns="http://www.w3.org/2000/svg" xmlns:xlink="http://www.w3.org/1999/xlink" width="42" height="42" viewBox="0 0 42 42">
  <defs>
    <clipPath id="clip-Sucuss">
      <rect width="42" height="42"/>
    </clipPath>
  </defs>
  <g id="Sucuss" clip-path="url(#clip-Sucuss)">
    <rect width="42" height="42" fill="#fff"/>
    <g id="Group_18" data-name="Group 18" transform="translate(-179.027 -10.774)">
      <g id="Group_17" data-name="Group 17" transform="translate(179.341 11.402)">
        <g id="Group_13" data-name="Group 13" transform="translate(0 0)">
          <path id="Path_34" data-name="Path 34" d="M231,49.889l1.764,3.573a.862.862,0,0,0,.649.472l3.943.573a.862.862,0,0,1,.478,1.47l-2.853,2.781a.862.862,0,0,0-.248.763l.674,3.927a.862.862,0,0,1-1.251.909L230.628,62.5a.861.861,0,0,0-.8,0L226.3,64.358a.862.862,0,0,1-1.251-.909l.673-3.927a.863.863,0,0,0-.248-.763l-2.853-2.781a.862.862,0,0,1,.478-1.47l3.943-.573a.863.863,0,0,0,.649-.472l1.763-3.573A.862.862,0,0,1,231,49.889Z" transform="translate(-208.299 -36.589)" fill="#27b012"/>
          <path id="Path_48" data-name="Path 48" d="M223.558,49.475l.245.5a.12.12,0,0,0,.09.065l.547.079a.12.12,0,0,1,.066.2l-.4.386a.12.12,0,0,0-.034.106l.093.545a.12.12,0,0,1-.174.126l-.489-.257a.119.119,0,0,0-.111,0l-.489.257a.12.12,0,0,1-.173-.126l.093-.545a.12.12,0,0,0-.034-.106l-.4-.386a.12.12,0,0,1,.066-.2l.547-.079a.12.12,0,0,0,.09-.065l.245-.5A.12.12,0,0,1,223.558,49.475Z" transform="translate(-218.088 -35.835)" fill="#27b012"/>
          <path id="Path_49" data-name="Path 49" d="M223.841,49.491l.3.613a.148.148,0,0,0,.111.081l.676.1a.148.148,0,0,1,.082.252l-.489.477a.148.148,0,0,0-.043.131l.116.674a.148.148,0,0,1-.215.156l-.6-.318a.148.148,0,0,0-.138,0l-.6.318a.148.148,0,0,1-.215-.156l.116-.674a.148.148,0,0,0-.043-.131l-.489-.477a.148.148,0,0,1,.082-.252l.676-.1a.148.148,0,0,0,.111-.081l.3-.613A.148.148,0,0,1,223.841,49.491Z" transform="translate(-194.094 -24.119)" fill="#27b012"/>
          <path id="Path_50" data-name="Path 50" d="M222.919,49.44l.114.232a.056.056,0,0,0,.042.031l.256.037a.056.056,0,0,1,.031.1l-.185.18a.056.056,0,0,0-.016.049l.044.255a.056.056,0,0,1-.081.059l-.229-.12a.056.056,0,0,0-.052,0l-.229.12a.056.056,0,0,1-.081-.059l.044-.255a.056.056,0,0,0-.016-.049l-.185-.18a.056.056,0,0,1,.031-.1l.256-.037a.056.056,0,0,0,.042-.031l.114-.232A.056.056,0,0,1,222.919,49.44Z" transform="translate(-191.394 -33.747)" fill="#27b012"/>
          <g id="Group_4" data-name="Group 4" transform="translate(6.103 6.251)">
            <path id="Path_35" data-name="Path 35" d="M208.643,39.344c-.033.035-2.271-2.043-5-4.641s-4.911-4.733-4.877-4.769,2.271,2.042,5,4.641S208.677,39.309,208.643,39.344Z" transform="translate(-198.768 -29.935)" fill="#00a7e1"/>
          </g>
          <g id="Group_5" data-name="Group 5" transform="translate(2.729 17.325)">
            <path id="Path_36" data-name="Path 36" d="M197.336,63.3c0,.049-1.924-.029-4.291-.173s-4.284-.3-4.281-.348,1.924.029,4.291.172S197.34,63.25,197.336,63.3Z" transform="translate(-188.765 -62.763)" fill="#b0d3f0"/>
          </g>
          <g id="Group_6" data-name="Group 6" transform="translate(16.272 6.246)">
            <path id="Path_37" data-name="Path 37" d="M231.239,35.13A23.193,23.193,0,0,1,230,32.56a23.173,23.173,0,0,1-1.08-2.642,23.283,23.283,0,0,1,1.241,2.57A23.257,23.257,0,0,1,231.239,35.13Z" transform="translate(-228.916 -29.918)" fill="#b0d3f0"/>
          </g>
          <g id="Group_7" data-name="Group 7" transform="translate(21.492)">
            <path id="Path_38" data-name="Path 38" d="M244.478,11.4c.049,0,.088,2.35.088,5.249s-.039,5.25-.088,5.25-.088-2.35-.088-5.25S244.429,11.4,244.478,11.4Z" transform="translate(-244.39 -11.402)" fill="#00a7e1"/>
          </g>
          <g id="Group_8" data-name="Group 8" transform="translate(25.153 6.343)">
            <path id="Path_39" data-name="Path 39" d="M257.634,30.207a22.142,22.142,0,0,1-1.115,2.546,22.04,22.04,0,0,1-1.274,2.471,22.16,22.16,0,0,1,1.115-2.546A22.027,22.027,0,0,1,257.634,30.207Z" transform="translate(-255.243 -30.207)" fill="#b0d3f0"/>
          </g>
          <g id="Group_9" data-name="Group 9" transform="translate(25.586 8.061)">
            <path id="Path_40" data-name="Path 40" d="M268.12,35.3c.028.04-2.545,1.883-5.746,4.116s-5.819,4.012-5.847,3.972,2.545-1.882,5.746-4.116S268.093,35.26,268.12,35.3Z" transform="translate(-256.527 -35.299)" fill="#00a7e1"/>
          </g>
          <g id="Group_10" data-name="Group 10" transform="translate(31.681 15.518)">
            <path id="Path_41" data-name="Path 41" d="M280.35,57.41a27.228,27.228,0,0,1-2.844,1.2,27.193,27.193,0,0,1-2.907,1.034,54.21,54.21,0,0,1,5.751-2.232Z" transform="translate(-274.598 -57.407)" fill="#b0d3f0"/>
          </g>
          <g id="Group_11" data-name="Group 11" transform="translate(0 22.708)">
            <path id="Path_42" data-name="Path 42" d="M195.678,78.724c.016.046-3.33,1.239-7.473,2.663s-7.514,2.543-7.53,2.5,3.329-1.238,7.473-2.663S195.662,78.678,195.678,78.724Z" transform="translate(-180.676 -78.723)" fill="#00a7e1"/>
          </g>
          <g id="Group_12" data-name="Group 12" transform="translate(28.265 22.708)">
            <path id="Path_43" data-name="Path 43" d="M277.578,82.4c-.013.047-2.958-.739-6.576-1.754s-6.543-1.876-6.529-1.923,2.957.738,6.577,1.754S277.591,82.354,277.578,82.4Z" transform="translate(-264.472 -78.721)" fill="#00a7e1"/>
          </g>
        </g>
        <g id="Group_14" data-name="Group 14" transform="translate(12.245 28.913)">
          <path id="Path_44" data-name="Path 44" d="M216.978,100.689a42.13,42.13,0,0,1,4.1-3.57,21.182,21.182,0,0,1-1.994,1.851A21.167,21.167,0,0,1,216.978,100.689Z" transform="translate(-216.978 -97.118)" fill="#b0d3f0"/>
        </g>
        <g id="Group_15" data-name="Group 15" transform="translate(21.8 27.87)">
          <path id="Path_45" data-name="Path 45" d="M245.363,106.9c-.049,0-.073-2.882-.054-6.437s.074-6.437.122-6.436.072,2.882.054,6.437S245.412,106.9,245.363,106.9Z" transform="translate(-245.303 -94.026)" fill="#00a7e1"/>
        </g>
        <g id="Group_16" data-name="Group 16" transform="translate(27.78 29.406)">
          <path id="Path_46" data-name="Path 46" d="M267.054,102.378a21.845,21.845,0,0,1-2.071-1.835,21.77,21.77,0,0,1-1.951-1.962,43.721,43.721,0,0,1,4.022,3.8Z" transform="translate(-263.031 -98.58)" fill="#b0d3f0"/>
        </g>
      </g>
    </g>
    <path id="Path_47" data-name="Path 47" d="M4084.576-753.861l1.963,1.71-.417.448.773-.855,2.585-2.859" transform="translate(-4019.646 988.212) rotate(-3)" fill="none" stroke="#fff" stroke-linecap="round" stroke-width="1.25"/>
  </g>
</svg>
