<?xml version="1.0" encoding="UTF-8"?>
<svg width="15px" height="13px" viewBox="0 0 15 13" version="1.1" xmlns="http://www.w3.org/2000/svg" xmlns:xlink="http://www.w3.org/1999/xlink">
    <title>ion-eye-disabled - Ionicons@2x</title>
    <g id="host-onboarding" stroke="none" stroke-width="1" fill="none" fill-rule="evenodd">
        <g id="create-password" transform="translate(-1205.000000, -272.000000)" fill="#182525" fill-rule="nonzero">
            <g id="Group-35" transform="translate(908.000000, 254.000000)">
                <g id="ion-eye-disabled---Ionicons" transform="translate(297.000000, 18.000000)">
                    <path d="M11.5178571,3.18229167 C12.5669643,3.88194444 13.7276786,5.01041667 15,6.56770833 C14.4642857,7.15451389 14.0848214,7.56076389 13.8616071,7.78645833 C13.6383929,8.01215278 13.2254464,8.39019097 12.6227679,8.92057292 C12.0200893,9.45095486 11.5011161,9.84027778 11.0658482,10.0885417 C10.6305804,10.3368056 10.0892857,10.5737847 9.44196429,10.7994792 C8.79464286,11.0251736 8.14732143,11.1380208 7.5,11.1380208 C6.38392857,11.1380208 5.35714286,10.8897569 4.41964286,10.3932292 L1.84151786,13 L1.07142857,12.2213542 L3.44866071,9.81770833 C2.77901786,9.34375 1.62946429,8.23784722 0,6.5 C1.42857143,4.92013889 2.71205357,3.75217014 3.85044643,2.99609375 C4.98883929,2.24001736 6.20535714,1.86197917 7.5,1.86197917 C8.52678571,1.86197917 9.55357143,2.12152778 10.5803571,2.640625 L13.1584821,0 L13.9285714,0.778645833 L11.5178571,3.18229167 Z M4.48660714,6.5 C4.48660714,7.109375 4.66517857,7.68489583 5.02232143,8.2265625 L5.92633929,7.3125 C5.81473214,7.109375 5.75892857,6.83854167 5.75892857,6.5 C5.75892857,6.00347222 5.92633929,5.58029514 6.26116071,5.23046875 C6.59598214,4.88064236 7.00892857,4.70572917 7.5,4.70572917 L7.76785714,4.70572917 C7.58928571,4.93142361 7.5,5.16840278 7.5,5.41666667 C7.5,5.52951389 7.51116071,5.61979167 7.53348214,5.6875 L9.24107143,3.99479167 C8.72767857,3.61111111 8.14732143,3.41927083 7.5,3.41927083 C6.67410714,3.41927083 5.96540179,3.72395833 5.37388393,4.33333333 C4.78236607,4.94270833 4.48660714,5.66493056 4.48660714,6.5 Z M7.5,9.58072917 C8.32589286,9.58072917 9.03459821,9.27604167 9.62611607,8.66666667 C10.2176339,8.05729167 10.5133929,7.33506944 10.5133929,6.5 C10.5133929,5.86805556 10.3348214,5.28125 9.97767857,4.73958333 L8.30357143,6.46614583 C8.37053571,6.48871528 8.45982143,6.5 8.57142857,6.5 C8.79464286,6.5 9.01785714,6.42100694 9.24107143,6.26302083 L9.24107143,6.5 C9.24107143,6.99652778 9.07366071,7.41970486 8.73883929,7.76953125 C8.40401786,8.11935764 7.99107143,8.29427083 7.5,8.29427083 C7.1875,8.29427083 6.91964286,8.2265625 6.69642857,8.09114583 L5.75892857,9.00520833 C6.27232143,9.38888889 6.85267857,9.58072917 7.5,9.58072917 Z" id="Shape"></path>
                </g>
            </g>
        </g>
    </g>
</svg>