<?xml version="1.0" encoding="UTF-8"?>
<svg width="123px" height="106px" viewBox="0 0 123 106" version="1.1" xmlns="http://www.w3.org/2000/svg" xmlns:xlink="http://www.w3.org/1999/xlink">
    <title>Alert@3x</title>
    <g id="Host-onboarding" stroke="none" stroke-width="1" fill="none" fill-rule="evenodd" opacity="0.928020659">
        <g id="resend-link" transform="translate(-1028.000000, -192.000000)" fill-rule="nonzero">
            <g id="Group" transform="translate(859.000000, 192.000000)">
                <g id="Alert" transform="translate(169.000000, 0.000000)">
                    <path d="M120.543827,79.7817585 L77.6351267,8.82806463 C74.1091091,3.3280378 68.014153,0 61.4674418,0 C54.9207307,0 48.8257746,3.3280378 45.2997569,8.82806463 L2.39105696,79.7817585 C-0.69397226,84.9094298 -0.800604351,91.2887894 2.11133923,96.5161203 C5.4789932,102.401806 11.7628866,106.024806 18.5587418,105.998925 L104.376142,105.998925 C111.125754,106.07074 117.398856,102.539063 120.823544,96.7392451 C123.822599,91.4547467 123.71555,84.9650583 120.543827,79.7817585 L120.543827,79.7817585 Z" id="Shape" fill="#1EBBBA"></path>
                    <path d="M67.0617964,61.3739606 C67.0617964,64.4546715 64.5571186,66.9520811 61.4674418,66.9520811 C58.3777651,66.9520811 55.8730872,64.4546715 55.8730872,61.3739606 L55.8730872,39.0614782 C55.8730872,35.9807673 58.3777651,33.4833576 61.4674418,33.4833576 C64.5571186,33.4833576 67.0617964,35.9807673 67.0617964,39.0614782 L67.0617964,61.3739606 Z" id="Path-2" fill="#FFFFFF"></path>
                    <path d="M61.4674418,83.6864429 C58.3777651,83.6864429 55.8730872,81.1890333 55.8730872,78.1083223 C55.8730872,75.0276114 58.3777651,72.5302017 61.4674418,72.5302017 C64.5571186,72.5302017 67.0617964,75.0276114 67.0617964,78.1083223 C67.0617964,81.1890333 64.5571186,83.6864429 61.4674418,83.6864429 Z" id="Path" fill="#FFFFFF"></path>
                </g>
            </g>
        </g>
    </g>
</svg>