<?xml version="1.0" encoding="UTF-8"?>
<svg width="46px" height="51px" viewBox="0 0 46 51" version="1.1" xmlns="http://www.w3.org/2000/svg" xmlns:xlink="http://www.w3.org/1999/xlink">
    <title>Group 13</title>
    <g id="Host-Property" stroke="none" stroke-width="1" fill="none" fill-rule="evenodd">
        <g id="Group-13">
            <rect id="Rectangle" x="0" y="0" width="45" height="45"></rect>
            <g id="Group-33" transform="translate(1.000000, 5.000000)" fill="#FFFFFF" stroke="#142222">
                <line x1="4.32346769" y1="17.7005025" x2="22.4936747" y2="0.157221015" id="Line-2" stroke-linecap="round" transform="translate(13.408571, 8.928862) rotate(-1.000000) translate(-13.408571, -8.928862) "></line>
                <path d="M29.7551502,27.5441994 C30.2590345,26.6314045 30.7212696,26.0383738 31.1418555,25.7651072 C31.6780951,25.4166971 33.0655148,24.6900355 33.3430325,24.4199346 C34.3389729,23.4506112 34.2548253,22.7228867 35.0259627,21.9692752 C36.0119767,21.0056706 36.8361585,20.9286193 37.6754816,20.1859502 C38.0905786,19.8186546 38.4542496,18.6189039 39.1680458,17.9213304 C39.6439099,17.4562813 40.5500355,17.0723548 41.8864224,16.769551" id="Line-2" stroke-linecap="round" transform="translate(35.820786, 22.156875) scale(-1, 1) rotate(-45.658543) translate(-35.820786, -22.156875) "></path>
                <line x1="11.8942742" y1="40.3871444" x2="32.2498331" y2="20.4942118" id="Line-2" stroke-linecap="round" transform="translate(22.072054, 30.440678) rotate(-135.658543) translate(-22.072054, -30.440678) "></line>
                <path d="M2.04037132,27.5576619 C2.48343445,26.5821654 2.81826955,25.9708752 3.04487662,25.7237915 C3.15556331,25.603103 3.26219145,25.5099112 3.36476105,25.4442162 C3.89713408,25.1032356 5.27453227,24.3920959 5.55005778,24.127741 C6.53884862,23.1790386 6.45538511,22.4667131 7.22098709,21.7291332 C8.19992325,20.7860274 9.01811688,20.7106889 9.8514074,19.9838266 C10.2635209,19.6243484 10.6246648,18.4500347 11.3333372,17.7673007 C11.8057854,17.3121447 12.7431166,16.9750739 14.1453306,16.7560885" id="Line-2" stroke-linecap="round" transform="translate(8.092851, 22.156875) rotate(-45.658543) translate(-8.092851, -22.156875) "></path>
                <line x1="32.7219473" y1="12.9554479" x2="38.4082868" y2="7.39834345" id="Line-2" stroke-linecap="round" transform="translate(35.565117, 10.176896) rotate(-45.658543) translate(-35.565117, -10.176896) "></line>
                <line x1="7.91444396" y1="19.4528764" x2="35.565117" y2="19.4528764" id="Line-3" stroke-linecap="square"></line>
                <line x1="7.91444396" y1="25.5106598" x2="35.565117" y2="25.5106598" id="Line-3" stroke-linecap="square"></line>
                <line x1="22.1153934" y1="17.8583548" x2="40.8089554" y2="0.525655928" id="Line-2" stroke-linecap="round" transform="translate(31.462174, 9.192005) scale(1, -1) rotate(-2.000000) translate(-31.462174, -9.192005) "></line>
                <rect id="Rectangle" x="17.8233536" y="19.0063478" width="8.21689103" height="11.1155667" rx="0.757222917"></rect>
                <line x1="14.4430751" y1="8.09453267" x2="29.9781262" y2="7.97225994" id="Line-3" stroke-linecap="square"></line>
                <line x1="8.2928986" y1="14.263417" x2="35.565117" y2="14.152316" id="Line-3" stroke-linecap="square"></line>
            </g>
        </g>
    </g>
</svg>