<?xml version="1.0" encoding="UTF-8"?>
<svg width="45px" height="45px" viewBox="0 0 45 45" version="1.1" xmlns="http://www.w3.org/2000/svg" xmlns:xlink="http://www.w3.org/1999/xlink">
    <title>Group 43</title>
    <g id="Host-Property" stroke="none" stroke-width="1" fill="none" fill-rule="evenodd">
        <g id="Group-43">
            <g id="Group-7">
                <rect id="Rectangle" x="0" y="0" width="45" height="45"></rect>
            </g>
            <g id="Group-32" transform="translate(2.000000, 12.000000)" stroke="#000000">
                <g id="Group-29" transform="translate(8.400000, 11.572789)" stroke-linecap="round">
                    <line x1="2.45" y1="10.0796371" x2="2.45" y2="7.99419498" id="Line-16"></line>
                    <line x1="5.25" y1="2.43301586" x2="5.25" y2="7.99419498" id="Line-17"></line>
                    <line x1="6.65" y1="10.0796371" x2="6.65" y2="7.99419498" id="Line-16"></line>
                    <line x1="4.55" y1="10.094195" x2="4.55" y2="5.89419498" id="Line-16" transform="translate(4.550000, 7.994195) rotate(90.000000) translate(-4.550000, -7.994195) "></line>
                    <line x1="0.35" y1="7.29904759" x2="7.35" y2="0.347573695" id="Line-18"></line>
                </g>
                <g id="Group-29" transform="translate(0.000000, 11.572789)" stroke-linecap="round">
                    <line x1="2.45" y1="10.0796371" x2="2.45" y2="7.99419498" id="Line-16"></line>
                    <line x1="5.25" y1="2.43301586" x2="5.25" y2="7.99419498" id="Line-17"></line>
                    <line x1="6.65" y1="10.0796371" x2="6.65" y2="7.99419498" id="Line-16"></line>
                    <line x1="4.55" y1="10.094195" x2="4.55" y2="5.89419498" id="Line-16" transform="translate(4.550000, 7.994195) rotate(90.000000) translate(-4.550000, -7.994195) "></line>
                    <line x1="0.35" y1="7.29904759" x2="7.35" y2="0.347573695" id="Line-18"></line>
                </g>
                <line x1="16.4502243" y1="3.57787779" x2="28.3497757" y2="0.103572963" id="Line-11" stroke-linecap="round" transform="translate(22.400019, 1.840725) rotate(-1.000000) translate(-22.400019, -1.840725) "></line>
                <line x1="28.3501864" y1="3.57787779" x2="40.2497379" y2="0.103572963" id="Line-11" stroke-linecap="round" transform="translate(34.299981, 1.840725) scale(-1, 1) rotate(-1.000000) translate(-34.299981, -1.840725) "></line>
                <line x1="28.35" y1="6.35918374" x2="40.25" y2="2.88344679" id="Line-11" stroke-linecap="round" transform="translate(34.300000, 4.621315) scale(-1, 1) translate(-34.300000, -4.621315) "></line>
                <line x1="16.4814479" y1="3.68145142" x2="16.9932798" y2="6.43179606" id="Line-12" stroke-linecap="round"></line>
                <line x1="40.2580358" y1="3.68145142" x2="40.25" y2="6.35918374" id="Line-12" stroke-linecap="round"></line>
                <line x1="17.15" y1="6.35918374" x2="28.35" y2="2.88344679" id="Line-11" stroke-linecap="round"></line>
                <line x1="37.45" y1="5.66403635" x2="37.45" y2="20.9572789" id="Line-13" stroke-linecap="square"></line>
                <line x1="19.95" y1="5.66403635" x2="19.95" y2="20.9572789" id="Line-13" stroke-linecap="square"></line>
                <path d="M32.9,13.4630839 L33.1,21.5 L24.3,21.5 L24.3,13.6630839 L32.9,13.4630839 Z" id="Rectangle"></path>
                <line x1="24.3550701" y1="13.3106576" x2="33.25" y2="21.6524263" id="Line-14" stroke-linecap="round"></line>
                <line x1="24.9178314" y1="13.9335954" x2="32.612473" y2="21.4411632" id="Line-14" stroke-linecap="round" transform="translate(28.765152, 17.687379) scale(1, -1) translate(-28.765152, -17.687379) "></line>
                <line x1="0.35" y1="21.6524263" x2="41.65" y2="21.6524263" id="Line-15" stroke-linecap="square"></line>
            </g>
        </g>
    </g>
</svg>