<?xml version="1.0" encoding="UTF-8"?>
<svg width="21px" height="21px" viewBox="0 0 21 21" version="1.1" xmlns="http://www.w3.org/2000/svg" xmlns:xlink="http://www.w3.org/1999/xlink">
    <title>close-circle - anticon@2x</title>
    <g id="Host-Property" stroke="none" stroke-width="1" fill="none" fill-rule="evenodd">
        <g id="11a" transform="translate(-895.000000, -155.000000)" fill="#3B3B3B" fill-rule="nonzero">
            <g id="Group-10" transform="translate(502.000000, 130.000000)">
                <g id="close-circle---anticon" transform="translate(393.000000, 25.000000)">
                    <path d="M15.7705078,1.41503906 C14.1572266,0.471679688 12.4003906,0 10.5,0 C8.59960938,0 6.84277344,0.468261719 5.22949219,1.40478516 C3.61621094,2.34130859 2.34130859,3.61621094 1.40478516,5.22949219 C0.468261719,6.84277344 0,8.59960938 0,10.5 C0,12.4003906 0.468261719,14.1572266 1.40478516,15.7705078 C2.34130859,17.3837891 3.61621094,18.6586914 5.22949219,19.5952148 C6.84277344,20.5317383 8.59960938,21 10.5,21 C12.4003906,21 14.1572266,20.5317383 15.7705078,19.5952148 C17.3837891,18.6586914 18.6586914,17.3837891 19.5952148,15.7705078 C20.5317383,14.1572266 21,12.4003906 21,10.5 C21,8.59960938 20.5317383,6.84277344 19.5952148,5.22949219 C18.6586914,3.61621094 17.3837891,2.34472656 15.7705078,1.41503906 Z M14.7041016,13.6787109 C14.8544922,13.8154297 14.9296875,13.9863281 14.9296875,14.1914062 C14.9296875,14.3964844 14.8579102,14.5708008 14.7143555,14.7143555 C14.5708008,14.8579102 14.3964844,14.9296875 14.1914062,14.9296875 C13.9863281,14.9296875 13.8085938,14.8613281 13.6582031,14.7246094 L10.5,11.5458984 L7.34179688,14.7246094 C7.19140625,14.8613281 7.01367188,14.9296875 6.80859375,14.9296875 C6.60351562,14.9296875 6.42919922,14.8579102 6.28564453,14.7143555 C6.14208984,14.5708008 6.0703125,14.3964844 6.0703125,14.1914062 C6.0703125,13.9863281 6.14550781,13.8154297 6.29589844,13.6787109 L9.45410156,10.5 L6.29589844,7.32128906 C6.14550781,7.18457031 6.0703125,7.01367188 6.0703125,6.80859375 C6.0703125,6.60351562 6.14208984,6.42919922 6.28564453,6.28564453 C6.42919922,6.14208984 6.60351562,6.0703125 6.80859375,6.0703125 C7.01367188,6.0703125 7.19140625,6.13867188 7.34179688,6.27539062 L10.5,9.45410156 L13.6582031,6.27539062 C13.8085938,6.13867188 13.9863281,6.0703125 14.1914062,6.0703125 C14.3964844,6.0703125 14.5708008,6.14208984 14.7143555,6.28564453 C14.8579102,6.42919922 14.9296875,6.60009766 14.9296875,6.79833984 C14.9296875,6.99658203 14.8544922,7.17089844 14.7041016,7.32128906 L11.5458984,10.5 L14.7041016,13.6787109 Z" id="Shape"></path>
                </g>
            </g>
        </g>
    </g>
</svg>