<?xml version="1.0" encoding="UTF-8"?>
<svg width="70px" height="70px" viewBox="0 0 70 70" version="1.1" xmlns="http://www.w3.org/2000/svg" xmlns:xlink="http://www.w3.org/1999/xlink">
    <title>approve@2x</title>
    <g id="Host-Property" stroke="none" stroke-width="1" fill="none" fill-rule="evenodd">
        <g id="get-started" transform="translate(-732.000000, -677.000000)">
            <g id="Group-13" transform="translate(732.000000, 323.000000)">
                <g id="approve" transform="translate(0.000000, 354.000000)">
                    <path d="M30.9814952,43.1465767 C30.4237206,43.1477072 29.8885498,42.9262311 29.4946952,42.5312724 L23.5894952,36.6239724 C22.7936536,35.7999767 22.8050353,34.4901943 23.6150762,33.6801534 C24.4251172,32.8701124 25.7348996,32.8587307 26.5588952,33.6545724 L30.9793952,38.0771724 L42.4894952,26.5691724 C43.31602,25.7930085 44.609425,25.8130958 45.4114484,26.614552 C46.2134718,27.4160083 46.2344742,28.7093987 45.4588952,29.5364724 L32.4640952,42.5312724 C32.0707541,42.9257145 31.5364424,43.1471478 30.9793952,43.1465767 L30.9814952,43.1465767 Z" id="Path" fill="#FFFFFF" fill-rule="nonzero" opacity="0.99"></path>
                    <path d="M35,14 C23.4020203,14 14,23.4020203 14,35 C14,46.5979797 23.4020203,56 35,56 C46.5979797,56 56,46.5979797 56,35 C55.987269,23.4072977 46.5927023,14.012731 35,14 L35,14 Z M45.9347,29.9873 L32.9399,42.9821 C32.1198503,43.8019021 30.7905497,43.8019021 29.9705,42.9821 L24.0653,37.0748 C23.2694584,36.2508043 23.28084,34.941022 24.090881,34.130981 C24.900922,33.32094 26.2107043,33.3095584 27.0347,34.1054 L31.4552,38.528 L42.9653,27.02 C43.7918248,26.2438361 45.0852297,26.2639235 45.8872531,27.0653797 C46.6892766,27.8668359 46.7102789,29.1602263 45.9347,29.9873 L45.9347,29.9873 Z" id="Shape" fill-opacity="0.51" fill="#1EBBBA" fill-rule="nonzero"></path>
                    <rect id="Rectangle" x="0" y="0" width="70" height="70"></rect>
                </g>
            </g>
        </g>
    </g>
</svg>