<?xml version="1.0" encoding="UTF-8"?>
<svg width="14px" height="14px" viewBox="0 0 14 14" version="1.1" xmlns="http://www.w3.org/2000/svg" xmlns:xlink="http://www.w3.org/1999/xlink">
    <title>Plus@2x</title>
    <g id="Host-Property" stroke="none" stroke-width="1" fill="none" fill-rule="evenodd">
        <g id="9" transform="translate(-657.000000, -255.000000)" fill="#FFFFFF" fill-rule="nonzero">
            <g id="Group-7" transform="translate(643.000000, 242.000000)">
                <g id="Plus" transform="translate(14.000000, 13.000000)">
                    <path d="M13.125,6.125 L7.875,6.125 L7.875,0.875 C7.875,0.391750844 7.48324916,0 7,0 C6.51675084,0 6.125,0.391750844 6.125,0.875 L6.125,6.125 L0.875,6.125 C0.391750844,6.125 0,6.51675084 0,7 C0,7.48324916 0.391750844,7.875 0.875,7.875 L6.125,7.875 L6.125,13.125 C6.125,13.6082492 6.51675084,14 7,14 C7.48324916,14 7.875,13.6082492 7.875,13.125 L7.875,7.875 L13.125,7.875 C13.6082492,7.875 14,7.48324916 14,7 C14,6.51675084 13.6082492,6.125 13.125,6.125 Z" id="Path"></path>
                </g>
            </g>
        </g>
    </g>
</svg>