<?xml version="1.0" encoding="UTF-8"?>
<svg width="16px" height="16px" viewBox="0 0 16 16" version="1.1" xmlns="http://www.w3.org/2000/svg" xmlns:xlink="http://www.w3.org/1999/xlink">
    <title>Plus@2x</title>
    <g id="Host-Property" stroke="none" stroke-width="1" fill="none" fill-rule="evenodd">
        <g id="4" transform="translate(-518.000000, -341.000000)" fill="#000000" fill-rule="nonzero">
            <g id="Group-9" transform="translate(494.000000, 249.000000)">
                <g id="Group-2-Copy" transform="translate(0.000000, 75.000000)">
                    <g id="Plus" transform="translate(24.000000, 17.000000)">
                        <path d="M15,7 L9,7 L9,1 C9,0.44771525 8.55228475,0 8,0 C7.44771525,0 7,0.44771525 7,1 L7,7 L1,7 C0.44771525,7 0,7.44771525 0,8 C0,8.55228475 0.44771525,9 1,9 L7,9 L7,15 C7,15.5522847 7.44771525,16 8,16 C8.55228475,16 9,15.5522847 9,15 L9,9 L15,9 C15.5522847,9 16,8.55228475 16,8 C16,7.44771525 15.5522847,7 15,7 Z" id="Path"></path>
                    </g>
                </g>
            </g>
        </g>
    </g>
</svg>