<?xml version="1.0" encoding="UTF-8"?>
<svg width="17px" height="17px" viewBox="0 0 17 17" version="1.1" xmlns="http://www.w3.org/2000/svg" xmlns:xlink="http://www.w3.org/1999/xlink">
    <title>􀁣@2x</title>
    <g id="Host-Property" stroke="none" stroke-width="1" fill="none" fill-rule="evenodd">
        <g id="􀁣" fill-rule="nonzero">
            <path d="M8.5,17 C9.66111111,17 10.7541667,16.7777778 11.7791667,16.3333333 C12.8041667,15.8888889 13.7083333,15.275 14.4916667,14.4916667 C15.275,13.7083333 15.8888889,12.8041667 16.3333333,11.7791667 C16.7777778,10.7541667 17,9.66111111 17,8.5 C17,7.33888889 16.7777778,6.24583333 16.3333333,5.22083333 C15.8888889,4.19583333 15.275,3.29166667 14.4916667,2.50833333 C13.7083333,1.725 12.8027778,1.11111111 11.775,0.666666667 C10.7472222,0.222222222 9.65277778,0 8.49166667,0 C7.33055556,0 6.2375,0.222222222 5.2125,0.666666667 C4.1875,1.11111111 3.28472222,1.725 2.50416667,2.50833333 C1.72361111,3.29166667 1.11111111,4.19583333 0.666666667,5.22083333 C0.222222222,6.24583333 0,7.33888889 0,8.5 C0,9.66111111 0.222222222,10.7541667 0.666666667,11.7791667 C1.11111111,12.8041667 1.725,13.7083333 2.50833333,14.4916667 C3.29166667,15.275 4.19583333,15.8888889 5.22083333,16.3333333 C6.24583333,16.7777778 7.33888889,17 8.5,17 Z" id="Shape" fill="#1EBBBA"></path>
            <rect id="Rectangle" fill="#1EBBBA" x="5" y="2" width="9" height="12"></rect>
            <path d="M7.56666667,12.5666667 C7.42222222,12.5666667 7.29166667,12.5361111 7.175,12.475 C7.05833333,12.4138889 6.94444444,12.3111111 6.83333333,12.1666667 L4.74166667,9.6 C4.68055556,9.51666667 4.63194444,9.42916667 4.59583333,9.3375 C4.55972222,9.24583333 4.54166667,9.15277778 4.54166667,9.05833333 C4.54166667,8.86944444 4.60555556,8.70694444 4.73333333,8.57083333 C4.86111111,8.43472222 5.01944444,8.36666667 5.20833333,8.36666667 C5.33055556,8.36666667 5.44027778,8.39166667 5.5375,8.44166667 C5.63472222,8.49166667 5.73611111,8.58611111 5.84166667,8.725 L7.53333333,10.9083333 L11.0916667,5.19166667 C11.2472222,4.93611111 11.4472222,4.80833333 11.6916667,4.80833333 C11.8694444,4.80833333 12.0305556,4.86527778 12.175,4.97916667 C12.3194444,5.09305556 12.3916667,5.24722222 12.3916667,5.44166667 C12.3916667,5.53611111 12.3694444,5.63055556 12.325,5.725 C12.2805556,5.81944444 12.2333333,5.90833333 12.1833333,5.99166667 L8.26666667,12.1666667 C8.17777778,12.3 8.075,12.4 7.95833333,12.4666667 C7.84166667,12.5333333 7.71111111,12.5666667 7.56666667,12.5666667 Z" id="Path" fill="#FFFFFF"></path>
        </g>
    </g>
</svg>