<?xml version="1.0" encoding="UTF-8"?>
<svg width="19px" height="18px" viewBox="0 0 19 18" version="1.1" xmlns="http://www.w3.org/2000/svg" xmlns:xlink="http://www.w3.org/1999/xlink">
    <title>Link Page@2x</title>
    <g id="host-onboarding" stroke="none" stroke-width="1" fill="none" fill-rule="evenodd">
        <g id="Link-Page" transform="translate(0.390000, 0.000000)" fill="#000000" fill-rule="nonzero">
            <path d="M4.49811877,18 C2.67848166,17.9983961 1.03872767,16.8992344 0.342599203,15.2144675 C-0.353529262,13.5297005 0.0308643857,11.5906449 1.31674248,10.3004477 L2.81739168,8.79662887 C4.59773911,7.09324913 7.39979682,7.09324913 9.18014426,8.79662887 C10.935624,10.558007 10.935624,13.4114425 9.18014426,15.1728206 L7.67949506,16.6766394 C6.83602602,17.5229435 5.69170723,17.998947 4.49811877,18 Z M5.99876797,10.4808808 C5.59989093,10.4785949 5.2165078,10.6355188 4.93330704,10.9170134 L4.93330704,10.9170134 L3.43265785,12.4208322 C2.85082075,13.0073779 2.85082075,13.9546711 3.43265785,14.5412167 C4.01796724,15.1242828 4.96326382,15.1242828 5.54857321,14.5412167 L7.0492224,13.0373979 C7.46958383,12.6077564 7.59392135,11.9683764 7.36530709,11.4119977 C7.13669284,10.8556189 6.59914044,10.4893575 5.99876797,10.4808808 Z" id="Shape"></path>
            <path d="M12.0013647,10.4809059 C10.1817276,10.4793021 8.54197364,9.38014033 7.84584517,7.69537341 C7.1497167,6.01060648 7.53411035,4.07155087 8.81998845,2.78135361 L10.3206376,1.2775348 C12.1009851,-0.425844934 14.9030428,-0.425844934 16.6833902,1.2775348 C18.4388699,3.03891294 18.4388699,5.89234843 16.6833902,7.65372657 L15.182741,9.15754538 C14.339272,10.0038494 13.1949532,10.4798529 12.0013647,10.4809059 L12.0013647,10.4809059 Z M13.5020139,2.9617867 C13.1031369,2.95950086 12.7197538,3.11642473 12.436553,3.39791933 L12.436553,3.39791933 L10.9359038,4.90173814 C10.3540667,5.4882838 10.3540667,6.435577 10.9359038,7.02212267 C11.5212132,7.6051887 12.4665098,7.6051887 13.0518192,7.02212267 L14.5524684,5.51830385 C14.9728298,5.08866235 15.0971673,4.44928235 14.8685531,3.89290361 C14.6399388,3.33652487 14.1023864,2.97026343 13.5020139,2.9617867 Z" id="Shape"></path>
            <path d="M7.49941716,11.9847504 C6.88975581,11.9882777 6.33854489,11.6218476 6.10475739,11.0575926 C5.87096989,10.4933377 6.00107904,9.84342279 6.43395623,9.41319458 L9.43525462,6.40555695 C10.0306526,5.89459421 10.9181874,5.92894824 11.4724808,6.48441237 C12.0267741,7.03987649 12.0610558,7.92928591 11.55117,8.52594148 L8.54987159,11.5335791 C8.27280604,11.81692 7.8952423,11.9790748 7.49941716,11.9847504 L7.49941716,11.9847504 Z" id="Path"></path>
        </g>
    </g>
</svg>