<?xml version="1.0" encoding="UTF-8"?>
<svg width="21px" height="17px" viewBox="0 0 21 17" version="1.1" xmlns="http://www.w3.org/2000/svg" xmlns:xlink="http://www.w3.org/1999/xlink">
    <title>twitter@2x</title>
    <g id="host-onboarding" stroke="none" stroke-width="1" fill="none" fill-rule="evenodd">
        <g id="twitter" transform="translate(0.390000, 0.000000)" fill="#000000" fill-rule="nonzero">
            <path d="M20,1.95074684 C19.2483371,2.2768416 18.4534278,2.49241023 17.64,2.59074684 C18.4981729,2.07806766 19.1412717,1.27152941 19.45,0.320746843 C18.6435521,0.800809992 17.7607621,1.13904372 16.84,1.32074684 C15.5741776,-0.0519703273 13.5407201,-0.395995057 11.8937898,0.483936303 C10.2468594,1.36386766 9.40251721,3.24545965 9.84,5.06074684 C6.54236057,4.89395387 3.47071868,3.33450491 1.39,0.770746843 C1.02913744,1.4009154 0.83951928,2.1145692 0.84,2.84074684 C0.837401051,4.21045829 1.52061253,5.49054134 2.66,6.25074684 C2.00797741,6.23300628 1.36988565,6.05804564 0.8,5.74074684 L0.8,5.79074684 C0.810074881,7.73872721 2.18943105,9.41067408 4.1,9.79074684 C3.74325548,9.89931336 3.372875,9.95655398 3,9.96074684 C2.74189022,9.95773137 2.48442225,9.93432519 2.23,9.89074684 C2.77097576,11.55689 4.30855746,12.6970289 6.06,12.7307468 C4.61720259,13.8660135 2.83588349,14.4856027 1,14.4907468 C0.665735253,14.4918429 0.331735618,14.4718029 8.8817842e-16,14.4307468 C1.87442836,15.6410038 4.05881285,16.2834698 6.29,16.2807468 C9.40026304,16.3130466 12.392978,15.0938279 14.5952038,12.897244 C16.7974296,10.7006601 18.0243212,7.7110825 18,4.60074684 C18,4.43074684 18,4.25074684 18,4.07074684 C18.7846953,3.48555765 19.4614745,2.76817172 20,1.95074684 L20,1.95074684 Z" id="Path"></path>
        </g>
    </g>
</svg>