<?xml version="1.0" encoding="UTF-8"?>
<svg width="638px" height="463px" viewBox="0 0 638 463" version="1.1" xmlns="http://www.w3.org/2000/svg" xmlns:xlink="http://www.w3.org/1999/xlink">
    <title>Group 5@2x</title>
    <defs>
        <filter x="-31.1%" y="-281.2%" width="162.1%" height="662.5%" filterUnits="objectBoundingBox" id="filter-1">
            <feGaussianBlur stdDeviation="15" in="SourceGraphic"></feGaussianBlur>
        </filter>
        <filter x="-31.1%" y="-281.2%" width="162.1%" height="662.5%" filterUnits="objectBoundingBox" id="filter-2">
            <feGaussianBlur stdDeviation="15" in="SourceGraphic"></feGaussianBlur>
        </filter>
        <filter x="-31.1%" y="-281.2%" width="162.1%" height="662.5%" filterUnits="objectBoundingBox" id="filter-3">
            <feGaussianBlur stdDeviation="15" in="SourceGraphic"></feGaussianBlur>
        </filter>
        <filter x="-31.1%" y="-281.2%" width="162.1%" height="662.5%" filterUnits="objectBoundingBox" id="filter-4">
            <feGaussianBlur stdDeviation="15" in="SourceGraphic"></feGaussianBlur>
        </filter>
        <filter x="-31.1%" y="-281.2%" width="162.1%" height="662.5%" filterUnits="objectBoundingBox" id="filter-5">
            <feGaussianBlur stdDeviation="15" in="SourceGraphic"></feGaussianBlur>
        </filter>
        <filter x="-31.1%" y="-281.2%" width="162.1%" height="662.5%" filterUnits="objectBoundingBox" id="filter-6">
            <feGaussianBlur stdDeviation="15" in="SourceGraphic"></feGaussianBlur>
        </filter>
    </defs>
    <g id="host-onboarding" stroke="none" stroke-width="1" fill="none" fill-rule="evenodd">
        <g transform="translate(-709.000000, -1022.000000)" id="Group-5">
            <g transform="translate(735.000000, 1022.000000)">
                <rect id="Rectangle" fill="#2D2F34" opacity="0.211315337" filter="url(#filter-1)" transform="translate(92.000000, 190.000000) scale(1, -1) translate(-92.000000, -190.000000) " x="19.5789474" y="182" width="144.842105" height="16" rx="8"></rect>
                <rect id="Rectangle-Copy-31" fill="#2D2F34" opacity="0.211315337" filter="url(#filter-2)" transform="translate(92.000000, 410.000000) scale(1, -1) translate(-92.000000, -410.000000) " x="19.5789474" y="402" width="144.842105" height="16" rx="8"></rect>
                <rect id="Rectangle-Copy-29" fill="#2D2F34" opacity="0.211315337" filter="url(#filter-3)" transform="translate(293.000000, 190.000000) scale(1, -1) translate(-293.000000, -190.000000) " x="220.578947" y="182" width="144.842105" height="16" rx="8"></rect>
                <rect id="Rectangle-Copy-32" fill="#2D2F34" opacity="0.211315337" filter="url(#filter-4)" transform="translate(293.000000, 410.000000) scale(1, -1) translate(-293.000000, -410.000000) " x="220.578947" y="402" width="144.842105" height="16" rx="8"></rect>
                <rect id="Rectangle-Copy-30" fill="#2D2F34" opacity="0.211315337" filter="url(#filter-5)" transform="translate(494.000000, 190.000000) scale(1, -1) translate(-494.000000, -190.000000) " x="421.578947" y="182" width="144.842105" height="16" rx="8"></rect>
                <rect id="Rectangle-Copy-33" fill="#2D2F34" opacity="0.211315337" filter="url(#filter-6)" transform="translate(494.000000, 410.000000) scale(1, -1) translate(-494.000000, -410.000000) " x="421.578947" y="402" width="144.842105" height="16" rx="8"></rect>
                <rect id="Rectangle" fill="#FFFFFF" x="0" y="0" width="175" height="190" rx="20"></rect>
                <rect id="Rectangle-Copy-26" fill="#FFFFFF" x="0" y="220" width="175" height="190" rx="20"></rect>
                <rect id="Rectangle-Copy-24" fill="#FFFFFF" x="205" y="0" width="175" height="190" rx="20"></rect>
                <rect id="Rectangle-Copy-27" fill="#FFFFFF" x="205" y="220" width="175" height="190" rx="20"></rect>
                <rect id="Rectangle-Copy-25" fill="#FFFFFF" x="410" y="0" width="175" height="190" rx="20"></rect>
                <rect id="Rectangle-Copy-28" fill="#FFFFFF" x="410" y="220" width="175" height="190" rx="20"></rect>
            </g>
        </g>
    </g>
</svg>