<?xml version="1.0" encoding="UTF-8"?>
<svg width="216px" height="52px" viewBox="0 0 216 52" version="1.1" xmlns="http://www.w3.org/2000/svg" xmlns:xlink="http://www.w3.org/1999/xlink">
    <title>Calendly logo@2x</title>
    <g id="host-onboarding" stroke="none" stroke-width="1" fill="none" fill-rule="evenodd">
        <g transform="translate(-231.000000, -4363.000000)" fill-rule="nonzero" id="Group-54">
            <g transform="translate(0.000000, 2745.000000)">
                <g id="Group-52" transform="translate(0.000000, 1520.000000)">
                    <g id="Calendly-logo" transform="translate(231.000000, 98.000000)">
                        <g id="Wordmark" transform="translate(57.838250, 7.196078)" fill="#006BFF">
                            <path d="M70.374138,13.3236897 C73.7242053,13.3236897 76.8966589,15.3680365 77.5661259,19.7851885 L62.6465766,19.7851885 C63.270957,15.909107 66.1756238,13.3236897 70.374138,13.3236897 M77.0893014,26.3202839 C75.9498414,28.0920511 73.7474317,29.454949 70.7320979,29.454949 C66.577304,29.454949 63.4048504,27.1829982 62.6465766,23.1719898 L81.3643261,23.1719898 C81.4546028,22.5971255 81.5002803,22.0161698 81.500952,21.434295 C81.500952,15.1963114 77.128923,9.66976047 70.3768705,9.66976047 C63.4089492,9.66976047 58.6734951,14.7942565 58.6734951,21.3906822 C58.6734951,28.0688819 63.455402,33.111604 70.6446573,33.111604 C75.1123245,33.111604 78.5074784,31.1054183 80.472159,28.0688819 L77.0893014,26.3202839 Z" id="Shape"></path>
                            <rect id="Rectangle" x="52.9488696" y="0" width="3.88564086" height="32.5310095"></rect>
                            <path d="M103.122002,18.8502406 L103.122002,32.5296466 L99.2349951,32.5296466 L99.2349951,19.0723929 C99.2349951,15.4184637 97.1364211,13.3686653 93.6961807,13.3686653 C90.1220469,13.3686653 87.2187463,15.4634394 87.2187463,20.7214994 L87.2187463,32.5296466 L83.3317392,32.5296466 L83.3317392,10.2517179 L87.2187463,10.2517179 L87.2187463,13.4599795 C88.8719198,10.8309495 91.3284537,9.67248626 94.4599195,9.67248626 C99.6858606,9.67248626 103.126101,13.1478759 103.126101,18.8529664" id="Path"></path>
                            <path d="M124.551776,21.3893193 C124.551776,16.8440549 121.111536,13.412278 116.600148,13.412278 C112.132481,13.412278 108.693607,16.8440549 108.693607,21.3893193 C108.693607,25.9345838 112.132481,29.3663606 116.600148,29.3663606 C121.108803,29.3663606 124.551776,25.9345838 124.551776,21.3893193 M128.437417,0 L128.437417,32.5310095 L124.551776,32.5310095 L124.551776,28.6971778 C122.764709,31.4229735 119.906495,33.1102411 116.108295,33.1102411 C109.898647,33.1102411 104.8066,27.9843822 104.8066,21.3893193 C104.8066,14.7942565 109.898647,9.66839757 116.108295,9.66839757 C119.905129,9.66839757 122.764709,11.3611167 124.551776,14.080098 L124.551776,0 L128.437417,0 Z" id="Shape"></path>
                            <rect id="Rectangle" x="131.571615" y="0" width="3.88564086" height="32.5310095"></rect>
                            <path d="M46.021936,21.3893193 C46.021936,16.8440549 42.5830618,13.412278 38.070308,13.412278 C33.6040071,13.412278 30.1637667,16.8440549 30.1637667,21.3893193 C30.1637667,25.9345838 33.6040071,29.3663606 38.070308,29.3663606 C42.578963,29.3663606 46.021936,25.9345838 46.021936,21.3893193 M49.9089431,10.2517179 L49.9089431,32.5296466 L46.021936,32.5296466 L46.021936,28.6971778 C44.2348691,31.4229735 41.376655,33.1102411 37.579821,33.1102411 C31.3701735,33.1102411 26.2767596,27.9843822 26.2767596,21.3893193 C26.2767596,14.7942565 31.3701735,9.66839757 37.579821,9.66839757 C41.376655,9.66839757 44.2348691,11.3611167 46.021936,14.080098 L46.021936,10.2517179 L49.9089431,10.2517179 Z" id="Shape"></path>
                            <path d="M20.5125125,28.2419699 C15.013063,30.2663277 8.85002224,28.0655957 5.88773447,23.0196749 C2.92544671,17.973754 4.01666957,11.5352202 8.47718549,7.74115697 C12.9377014,3.94709377 19.4834558,3.88970317 24.0101357,7.60497018 C24.6929446,8.16697068 25.3106809,8.80330116 25.851853,9.50212403 L29.2142166,7.04890784 C25.2081282,1.82468994 18.4389234,-0.47353375 12.0697895,1.22817557 C5.70065567,2.9298849 0.989197847,8.29551947 0.13703702,14.8177676 C-0.715123807,21.3400157 2.46027415,27.7310392 8.1793966,31.0043717 C13.8985191,34.2777041 21.0321076,33.7870159 26.2467019,29.761601 L24.0087695,26.2316955 C22.963263,27.0906936 21.7816925,27.7700718 20.5125125,28.2419699" id="Path"></path>
                            <path d="M154.215993,10.2517179 L154.215993,22.8966844 C154.215993,26.985378 151.831871,29.574884 148.192157,29.574884 C144.552443,29.574884 141.916929,26.985378 141.916929,22.8966844 L141.916929,10.2517179 L137.984835,10.2517179 L137.984835,22.5177988 C137.984835,28.9452252 142.000271,33.1184185 148.192157,33.1184185 C153.547893,33.1184185 154.384043,29.7384318 154.384043,29.6539321 L154.384043,34.2032852 C154.384043,38.7103885 152.417996,41.2562818 148.317853,41.2562818 C145.288382,41.2711755 142.716929,39.0441792 142.306313,36.0500118 L138.790928,37.2766199 C139.826895,41.6923348 143.778478,44.8122688 148.324684,44.8039217 C154.683254,44.8039217 158.16175,40.6293487 158.16175,34.2032852 L158.16175,10.2517179 L154.215993,10.2517179 Z" id="Path"></path>
                        </g>
                        <g id="Brand_mark">
                            <path d="M31.6342657,30.4266727 C30.1409445,31.7486836 28.2760008,33.3937014 24.8945096,33.3937014 L22.8724461,33.3937014 C20.4254761,33.3937014 18.19984,32.5064548 16.6067819,30.8982353 C15.0506128,29.3268141 14.1939683,27.1761612 14.1939683,24.8415172 L14.1939683,22.0816489 C14.1939683,19.7470049 15.0506128,17.596352 16.6067819,16.0249308 C18.19984,14.4167113 20.4254761,13.5308276 22.8724461,13.5308276 L24.8945096,13.5308276 C28.2800996,13.5308276 30.1409445,15.1744825 31.6342657,16.4964934 C33.1849697,17.8593913 34.5225374,19.0505641 38.0898399,19.0505641 C38.6339185,19.0504321 39.1771249,19.0071371 39.7143219,18.9210888 L39.7020256,18.8897421 C39.4883431,18.3604275 39.2377026,17.8467172 38.9519493,17.3523933 L36.5678272,13.232353 C34.3796475,9.45220083 30.336063,7.1238447 25.9601916,7.1238447 L21.1905812,7.1238447 C16.8147098,7.1238447 12.7711253,9.45220083 10.5829456,13.232353 L8.19882345,17.3523933 C6.01140086,21.1329237 6.01140086,25.7902424 8.19882345,29.5707728 L10.5829456,33.6908131 C12.7711253,37.4709653 16.8147098,39.7993214 21.1905812,39.7993214 L25.9601916,39.7993214 C30.336063,39.7993214 34.3796475,37.4709653 36.5678272,33.6908131 L38.9519493,29.5775873 C39.2377026,29.0832634 39.4883431,28.569553 39.7020256,28.0402385 L39.7143219,28.0102547 C39.1773883,27.9212792 38.6341288,27.8757012 38.0898399,27.8739649 C34.5225374,27.8739649 33.1849697,29.0583232 31.6342657,30.4280356" id="Path" fill="#006BFF"></path>
                            <path d="M24.8945096,16.0317452 L22.8724461,16.0317452 C19.1480238,16.0317452 16.7010538,18.6853074 16.7010538,22.0816489 L16.7010538,24.8415172 C16.7010538,28.2378587 19.1480238,30.8914208 22.8724461,30.8914208 L24.8945096,30.8914208 C30.3212907,30.8914208 29.8950178,25.3716844 38.0898399,25.3716844 C38.8662606,25.3708162 39.6410792,25.4419935 40.4042828,25.5842965 C40.6529416,24.1800237 40.6529416,22.7431424 40.4042828,21.3388696 C39.6409854,21.4804994 38.8662295,21.5516709 38.0898399,21.5514817 C29.8922853,21.5514817 30.3212907,16.0317452 24.8945096,16.0317452" id="Path" fill="#006BFF"></path>
                            <path d="M45.1124116,27.6013854 C43.7169028,26.5818013 42.10752,25.8916323 40.405649,25.5829336 C40.405649,25.5979255 40.405649,25.6101916 40.405649,25.6238205 C40.2591426,26.4375761 40.0302611,27.2344073 39.7225195,28.0020773 C41.1283917,28.2192643 42.4622128,28.767271 43.6136254,29.6007566 C43.6136254,29.6116597 43.6067941,29.6252887 43.6026953,29.6375548 C40.5401339,39.5298728 30.6873134,45.7021154 20.4246481,44.1573089 C10.1619828,42.6125023 2.57365414,33.8148987 2.57365414,23.461583 C2.57365414,13.1082674 10.1619828,4.31066378 20.4246481,2.76585724 C30.6873134,1.2210507 40.5401339,7.3932933 43.6026953,17.2856113 C43.6026953,17.2978774 43.6095266,17.3115064 43.6136254,17.3224095 C42.4624185,18.1560088 41.1284563,18.7036062 39.7225195,18.9197259 C40.0299064,19.6884545 40.2587748,20.4861533 40.405649,21.3007085 C40.4048821,21.3134173 40.4048821,21.3261607 40.405649,21.3388696 C42.107432,21.0306706 43.716826,20.3409628 45.1124116,19.3217807 C46.454078,18.330954 46.1944888,17.2120148 45.9909162,16.5496464 C42.56279,5.45819851 31.5192658,-1.46532236 20.0138277,0.263820377 C8.50838963,1.99296311 6.48454359e-16,11.8549249 6.48454359e-16,23.461583 C6.48454359e-16,35.0682412 8.50838963,44.930203 20.0138277,46.6593457 C31.5192658,48.3884885 42.56279,41.4649676 45.9909162,30.3735196 C46.1944888,29.7111513 46.454078,28.5922121 45.1124116,27.6013854" id="Path" fill="#006BFF"></path>
                            <path d="M39.7143219,18.9197259 C39.1773883,19.0087014 38.6341288,19.0542794 38.0898399,19.0560156 C34.5225374,19.0560156 33.1849697,17.8716574 31.6356319,16.501945 C30.1409445,15.1799341 28.2800996,13.5349163 24.8945096,13.5349163 L22.8724461,13.5349163 C20.4241098,13.5349163 18.19984,14.4221629 16.6067819,16.0303824 C15.0506128,17.6018036 14.1939683,19.7524565 14.1939683,22.0871005 L14.1939683,24.8469687 C14.1939683,27.1816128 15.0506128,29.3322657 16.6067819,30.9036869 C18.19984,32.5119064 20.4241098,33.39779 22.8724461,33.39779 L24.8945096,33.39779 C28.2800996,33.39779 30.1409445,31.7541352 31.6356319,30.4321243 C33.1849697,29.0692264 34.5225374,27.8780536 38.0898399,27.8780536 C38.6339185,27.8781856 39.1771249,27.9214805 39.7143219,28.0075289 C40.0226917,27.2400735 40.2515918,26.4431775 40.3974515,25.6292721 C40.3980254,25.6156538 40.3980254,25.6020035 40.3974515,25.5883852 C39.6341116,25.4472125 38.8593561,25.3764972 38.0830086,25.377136 C29.885454,25.377136 30.3144594,30.8982353 24.8876783,30.8982353 L22.8656148,30.8982353 C19.1411925,30.8982353 16.6942225,28.2433103 16.6942225,24.8469687 L16.6942225,22.0816489 C16.6942225,18.6853074 19.1411925,16.0317452 22.8656148,16.0317452 L24.8876783,16.0317452 C30.3144594,16.0317452 29.8881865,21.5501188 38.0830086,21.5501188 C38.8593867,21.5514365 39.634205,21.4807155 40.3974515,21.3388696 C40.3974515,21.3266035 40.3974515,21.3143374 40.3974515,21.3007085 C40.2505772,20.4861533 40.0217089,19.6884545 39.7143219,18.9197259" id="Path" fill="#0AE8F0"></path>
                            <path d="M39.7143219,18.9197259 C39.1773883,19.0087014 38.6341288,19.0542794 38.0898399,19.0560156 C34.5225374,19.0560156 33.1849697,17.8716574 31.6356319,16.501945 C30.1409445,15.1799341 28.2800996,13.5349163 24.8945096,13.5349163 L22.8724461,13.5349163 C20.4241098,13.5349163 18.19984,14.4221629 16.6067819,16.0303824 C15.0506128,17.6018036 14.1939683,19.7524565 14.1939683,22.0871005 L14.1939683,24.8469687 C14.1939683,27.1816128 15.0506128,29.3322657 16.6067819,30.9036869 C18.19984,32.5119064 20.4241098,33.39779 22.8724461,33.39779 L24.8945096,33.39779 C28.2800996,33.39779 30.1409445,31.7541352 31.6356319,30.4321243 C33.1849697,29.0692264 34.5225374,27.8780536 38.0898399,27.8780536 C38.6339185,27.8781856 39.1771249,27.9214805 39.7143219,28.0075289 C40.0226917,27.2400735 40.2515918,26.4431775 40.3974515,25.6292721 C40.3980254,25.6156538 40.3980254,25.6020035 40.3974515,25.5883852 C39.6341116,25.4472125 38.8593561,25.3764972 38.0830086,25.377136 C29.885454,25.377136 30.3144594,30.8982353 24.8876783,30.8982353 L22.8656148,30.8982353 C19.1411925,30.8982353 16.6942225,28.2433103 16.6942225,24.8469687 L16.6942225,22.0816489 C16.6942225,18.6853074 19.1411925,16.0317452 22.8656148,16.0317452 L24.8876783,16.0317452 C30.3144594,16.0317452 29.8881865,21.5501188 38.0830086,21.5501188 C38.8593867,21.5514365 39.634205,21.4807155 40.3974515,21.3388696 C40.3974515,21.3266035 40.3974515,21.3143374 40.3974515,21.3007085 C40.2505772,20.4861533 40.0217089,19.6884545 39.7143219,18.9197259" id="Path" fill="#0AE8F0"></path>
                        </g>
                    </g>
                </g>
            </g>
        </g>
    </g>
</svg>