<?xml version="1.0" encoding="UTF-8"?>
<svg width="40px" height="40px" viewBox="0 0 40 40" version="1.1" xmlns="http://www.w3.org/2000/svg" xmlns:xlink="http://www.w3.org/1999/xlink">
    <title>Group 41@3x</title>
    <g id="Page-1" stroke="none" stroke-width="1" fill="none" fill-rule="evenodd">
        <g id="profile" transform="translate(-1266.000000, -33.000000)">
            <g id="Group-13" transform="translate(1037.000000, 31.000000)">
                <g id="Group-41" transform="translate(229.000000, 2.000000)">
                    <circle id="Oval" fill="#7D7D7D" cx="20" cy="20" r="20"></circle>
                    <g id="Profile" transform="translate(9.000000, 7.000000)" fill="#43494D" fill-rule="nonzero">
                        <path d="M10.5,12.0725193 C8.05974779,12.0728521 5.85959353,10.6023973 4.92551887,8.34686099 C3.99144422,6.0913247 4.507411,3.49492479 6.23281226,1.76842121 C7.95821351,0.0419176342 10.5532392,-0.474662436 12.8077701,0.459573962 C15.062301,1.39381036 16.5323175,3.59486953 16.5323175,6.03634786 C16.5291438,9.36839584 13.8303742,12.0688896 10.5,12.0725193 Z M20.1304842,25 L0.869515826,25 L0,24.1300473 C0,20.3768738 2.00128863,16.9087984 5.24999995,15.0322116 C8.49871128,13.1556248 12.5012887,13.1556248 15.75,15.0322116 C18.9987114,16.9087984 21,20.3768738 21,24.1300473 L20.1304842,25 Z" id="Shape"></path>
                    </g>
                </g>
            </g>
        </g>
    </g>
</svg>