<?xml version="1.0" encoding="UTF-8"?>
<svg width="13px" height="18px" viewBox="0 0 13 18" version="1.1" xmlns="http://www.w3.org/2000/svg" xmlns:xlink="http://www.w3.org/1999/xlink">
    <title>Location@3x</title>
    <g id="Page-1" stroke="none" stroke-width="1" fill="none" fill-rule="evenodd">
        <g id="edit---restaurant" transform="translate(-527.000000, -431.000000)" fill="#505050" fill-rule="nonzero">
            <g id="Group-25" transform="translate(527.000000, 420.000000)">
                <g id="Group-18" transform="translate(0.000000, 7.000000)">
                    <g id="Location" transform="translate(0.000000, 4.000000)">
                        <path d="M6.30487805,17.0454545 L5.96711672,16.6490486 C5.74194251,16.3607534 0,9.91014799 0,6.0541995 C0,2.70276763 2.85220674,0 6.30487805,0 C9.75754936,0 12.6097561,2.73880454 12.6097561,6.0541995 C12.6097561,9.91014799 6.86781359,16.3967903 6.64263937,16.6490486 L6.30487805,17.0454545 Z M6.30487805,0.828848741 C3.30255517,0.828848741 0.900696864,3.17124736 0.900696864,6.0181626 C0.900696864,9.04526235 5.06641986,14.1985393 6.30487805,15.6760523 C7.54333624,14.1985393 11.7090592,9.08129925 11.7090592,6.0181626 C11.7090592,3.17124736 9.30720093,0.828848741 6.30487805,0.828848741 Z" id="Shape"></path>
                        <path d="M6.39977751,7.95454545 C5.14596653,7.95454545 4.10709458,6.92471591 4.10709458,5.68181818 C4.10709458,4.43892045 5.14596653,3.40909091 6.39977751,3.40909091 C7.65358849,3.40909091 8.69246044,4.43892045 8.69246044,5.68181818 C8.69246044,6.92471591 7.65358849,7.95454545 6.39977751,7.95454545 Z M6.39977751,4.26136364 C5.61166775,4.26136364 4.96685068,4.90056818 4.96685068,5.68181818 C4.96685068,6.46306818 5.61166775,7.10227273 6.39977751,7.10227273 C7.18788727,7.10227273 7.83270434,6.46306818 7.83270434,5.68181818 C7.83270434,4.90056818 7.18788727,4.26136364 6.39977751,4.26136364 Z" id="Shape"></path>
                    </g>
                </g>
            </g>
        </g>
    </g>
</svg>