<?xml version="1.0" encoding="UTF-8"?>
<svg width="119px" height="119px" viewBox="0 0 119 119" version="1.1" xmlns="http://www.w3.org/2000/svg" xmlns:xlink="http://www.w3.org/1999/xlink">
    <title>Group 41@3x</title>
    <g id="Page-1" stroke="none" stroke-width="1" fill="none" fill-rule="evenodd">
        <g id="profile" transform="translate(-419.000000, -279.000000)">
            <g id="Group-10" transform="translate(268.000000, 226.000000)">
                <g id="Group-7" transform="translate(45.000000, 53.000000)">
                    <g id="Group-41" transform="translate(106.000000, 0.000000)">
                        <circle id="Oval" fill="#8B8B8B" cx="59.5" cy="59.5" r="59.5"></circle>
                        <g id="Profile" transform="translate(26.775000, 20.825000)" fill="#43494D" fill-rule="nonzero">
                            <path d="M31.2375,35.9157449 C23.9777497,35.9167351 17.4322907,31.5421319 14.6534187,24.8319114 C11.8745466,18.121691 13.4095477,10.3974013 18.5426165,5.26105311 C23.6756852,0.124704962 31.3958865,-1.41212075 38.103116,1.36723254 C44.8103455,4.14658582 49.1836444,10.6947369 49.1836444,17.9581349 C49.1742027,27.8709776 41.1453633,35.9049465 31.2375,35.9157449 Z M59.8881904,74.375 L2.58680958,74.375 L0,71.7868907 C0,60.6211994 5.95383366,50.3036752 15.6187499,44.7208295 C25.2836661,39.1379838 37.1913339,39.1379838 46.8562501,44.7208295 C56.5211663,50.3036752 62.475,60.6211994 62.475,71.7868907 L59.8881904,74.375 Z" id="Shape"></path>
                        </g>
                    </g>
                </g>
            </g>
        </g>
    </g>
</svg>