<?xml version="1.0" encoding="UTF-8"?>
<svg width="14px" height="10px" viewBox="0 0 14 10" version="1.1" xmlns="http://www.w3.org/2000/svg" xmlns:xlink="http://www.w3.org/1999/xlink">
    <title>Path</title>
    <g id="Host-prop" stroke="none" stroke-width="1" fill="none" fill-rule="evenodd">
        <g id="11b" transform="translate(-120.000000, -135.000000)" fill="#000000" fill-rule="nonzero">
            <path d="M132.995014,139.004092 L123.405014,139.004092 L125.705014,136.714092 C126.097136,136.321969 126.097136,135.686214 125.705014,135.294092 C125.312891,134.901969 124.677136,134.901969 124.285014,135.294092 L120.285014,139.294092 C120.193973,139.389195 120.122608,139.50134 120.075014,139.624092 C119.974995,139.867553 119.974995,140.14063 120.075014,140.384092 C120.122608,140.506843 120.193973,140.618988 120.285014,140.714092 L124.285014,144.714092 C124.47278,144.903404 124.728376,145.00989 124.995014,145.00989 C125.261651,145.00989 125.517247,144.903404 125.705014,144.714092 C125.894326,144.526325 126.000812,144.270729 126.000812,144.004092 C126.000812,143.737454 125.894326,143.481858 125.705014,143.294092 L123.405014,141.004092 L132.995014,141.004092 C133.547298,141.004092 133.995014,140.556376 133.995014,140.004092 C133.995014,139.451807 133.547298,139.004092 132.995014,139.004092 Z" id="Path"></path>
        </g>
    </g>
</svg>