<?xml version="1.0" encoding="UTF-8"?>
<svg width="70px" height="70px" viewBox="0 0 70 70" version="1.1" xmlns="http://www.w3.org/2000/svg" xmlns:xlink="http://www.w3.org/1999/xlink">
    <title>Rooms accommodation Location@2x</title>
    <g id="Host-Property" stroke="none" stroke-width="1" fill="none" fill-rule="evenodd">
        <g id="get-started" transform="translate(-732.000000, -323.000000)">
            <g id="Rooms-accommodation-Location" transform="translate(732.000000, 323.000000)">
                <path d="M34.1183363,62.8236673 C32.3140012,59.9121265 30.2636204,56.7545401 28.172232,53.5149385 C24.2420317,47.7456392 20.5882324,41.7928202 17.2231986,35.6766257 C13.2412058,27.9795489 14.7374837,18.5862485 20.913884,12.5073228 C26.58316,6.74502807 35.1806939,4.99671463 42.6501942,8.08723165 C50.1196945,11.1777487 54.9685946,18.4895444 54.9091974,26.572935 C54.909446,29.6919357 54.1791425,32.7676371 52.7768014,35.5536028 C49.9882835,41.0486233 45.8055067,47.486819 41.7867604,53.5969537 C39.6543644,56.877563 37.562976,60.0351494 35.8816637,62.8236673 L34.9794962,64.2589338 L34.1183363,62.8236673 L34.1183363,62.8236673 Z" id="Shape" fill-opacity="0.33697211" fill="#1EBBBA"></path>
                <path d="M34.9794962,12.3022847 C40.776675,12.2472391 46.0276373,15.71469 48.2535819,21.0677715 C50.4795266,26.4208531 49.2353467,32.589146 45.1083773,36.6608084 C41.0461685,40.8122072 34.8685858,42.0780198 29.5010151,39.8588225 C24.1334444,37.6396252 20.6533976,32.3809103 20.7088459,26.572935 C20.6979132,22.7847822 22.1979129,19.1486309 24.8765525,16.4699913 C27.5551922,13.7913516 31.1913435,12.291352 34.9794962,12.3022847 Z" id="Shape" fill="#FFFFFF"></path>
                <path d="M28.0902168,21.0369069 L28.0902168,32.1089631 L26.039836,32.1089631 L26.039836,21.0369069 L28.0902168,21.0369069 Z M43.960164,24.3995313 L43.960164,32.1089631 L41.9097832,32.1089631 L41.9097832,24.3995313 L43.960164,24.3995313 Z" id="Shape" fill="#0E7ECA"></path>
                <path d="M28.0902168,28.705331 L41.9097832,28.705331 L41.9097832,27.639133 L28.0902168,27.639133 L28.0902168,28.7873462 L28.0902168,28.705331 Z M42.9349736,30.7557118 L26.039836,30.7557118 L26.039836,25.5887522 L43.960164,25.5887522 L43.960164,30.837727 L42.9349736,30.837727 L42.9349736,30.7557118 Z" id="Shape" fill="#0E7ECA"></path>
                <polygon id="Path" points="0 0 70 0 70 70 0 70"></polygon>
            </g>
        </g>
    </g>
</svg>