<?xml version="1.0" encoding="UTF-8"?>
<svg width="70px" height="70px" viewBox="0 0 70 70" version="1.1" xmlns="http://www.w3.org/2000/svg" xmlns:xlink="http://www.w3.org/1999/xlink">
    <title>Group 9@2x</title>
    <g id="Host-Property" stroke="none" stroke-width="1" fill="none" fill-rule="evenodd">
        <g id="get-started" transform="translate(-732.000000, -458.000000)">
            <g id="Group-13" transform="translate(732.000000, 323.000000)">
                <g id="Group-9" transform="translate(0.000000, 135.000000)">
                    <rect id="Rectangle" x="0" y="0" width="70" height="70"></rect>
                    <path d="M52.2534803,19.1974289 L44.4171469,18.0461899 C44.008802,17.9845458 43.6571716,17.7253663 43.4751449,17.3538575 L39.9715347,10.1346414 C37.9470946,5.958181 32.0776766,5.95489331 30.0467548,10.1261482 L26.5264003,17.3538575 C26.3443735,17.7256403 25.9924731,17.9845458 25.5884493,18.0461899 L17.7467146,19.1974289 C13.2081985,19.8626378 11.3914417,25.5267773 14.6762957,28.7719999 L20.3582856,34.3917555 C20.6523911,34.682716 20.7874258,35.1010743 20.7182881,35.5109395 L19.3782037,43.4246798 C18.6012141,48.0301836 23.3722599,51.5036265 27.4114177,49.3419713 L34.4313313,45.5931844 C34.7924141,45.3978409 35.2269557,45.4000327 35.5923596,45.5953762 L42.5839159,49.3356699 C46.6381976,51.5066403 51.3943895,48.0088136 50.6203707,43.4205702 L49.2824469,35.5112135 L49.2813667,35.5112135 C49.2122289,35.1013483 49.3461833,34.6829899 49.6413691,34.3920295 L55.3225488,28.7722738 C58.6092932,25.5273252 56.7917263,19.8626378 52.2534803,19.1974289 Z" id="Shape" fill-opacity="0.417029748" fill="#1EBBBA" fill-rule="nonzero"></path>
                </g>
            </g>
        </g>
    </g>
</svg>