<?xml version="1.0" encoding="UTF-8"?>
<svg width="50px" height="50px" viewBox="0 0 50 50" version="1.1" xmlns="http://www.w3.org/2000/svg" xmlns:xlink="http://www.w3.org/1999/xlink">
    <title>Group 5@2x</title>
    <g id="Host-Property" stroke="none" stroke-width="1" fill="none" fill-rule="evenodd">
        <g id="3" transform="translate(-382.000000, -430.000000)">
            <g id="Group-5" transform="translate(382.000000, 430.000000)">
                <g id="Group-9">
                    <rect id="Rectangle" x="0" y="0" width="50" height="50"></rect>
                    <g id="Group-37" transform="translate(7.779351, 7.894144)" stroke="#000000" stroke-linecap="round">
                        <g id="Group-40" transform="translate(17.776205, 0.000000)">
                            <line x1="0" y1="15.0389838" x2="17.4019817" y2="-2.60884782e-17" id="Line-26" stroke-width="1.012" transform="translate(8.700991, 7.519492) scale(1, -1) translate(-8.700991, -7.519492) "></line>
                            <line x1="15.1751992" y1="15.9528907" x2="17.4279411" y2="15.4594801" id="Line-35" stroke-width="1.1" transform="translate(16.301570, 15.706185) rotate(-23.000000) translate(-16.301570, -15.706185) "></line>
                        </g>
                        <g id="Group-40" transform="translate(8.776950, 8.522711) scale(-1, 1) translate(-8.776950, -8.522711) ">
                            <line x1="0" y1="15.0389838" x2="17.4019817" y2="-2.60884782e-17" id="Line-26" stroke-width="1.012" transform="translate(8.700991, 7.519492) scale(1, -1) translate(-8.700991, -7.519492) "></line>
                            <line x1="14.2116254" y1="16.1408811" x2="17.4661882" y2="15.6555214" id="Line-35" stroke-width="1.1" transform="translate(15.838907, 15.898201) rotate(-23.000000) translate(-15.838907, -15.898201) "></line>
                        </g>
                        <line x1="33.0281028" y1="16.2912913" x2="33.0281028" y2="34.2117117" id="Line-27" stroke-width="1.012"></line>
                        <line x1="3.2282408" y1="34.2117117" x2="33.0281028" y2="34.2117117" id="Line-29" stroke-width="1.012"></line>
                        <line x1="3.2282408" y1="16.2912913" x2="17.7762049" y2="3.72372372" id="Line-28" stroke-width="1.012"></line>
                        <line x1="17.7762049" y1="16.2912913" x2="33.0281028" y2="3.72372372" id="Line-28" stroke-width="1.012" transform="translate(25.402154, 10.007508) scale(1, -1) translate(-25.402154, -10.007508) "></line>
                        <line x1="3.2282408" y1="16.2912913" x2="3.2282408" y2="34.2117117" id="Line-27" stroke-width="1.012"></line>
                    </g>
                </g>
                <g id="User" transform="translate(14.444444, 31.111111)" stroke="#000000" stroke-width="1.1">
                    <ellipse id="Oval" cx="5.55552377" cy="3.47840001" rx="3.66508459" ry="3.47840001"></ellipse>
                    <path d="M0,9.9998913 C1.14636808,8.11671631 3.26399844,6.95679996 5.55558861,6.95679996 C7.84717878,6.95679996 9.96478394,8.11680258 11.1111111,10" id="Path" stroke-linecap="round" stroke-linejoin="round"></path>
                </g>
                <g id="User" transform="translate(26.666667, 31.111111)" stroke="#000000" stroke-width="1.1">
                    <ellipse id="Oval" cx="5.55552377" cy="3.47840001" rx="3.66508459" ry="3.47840001"></ellipse>
                    <path d="M0,9.9998913 C1.14636808,8.11671631 3.26399844,6.95679996 5.55558861,6.95679996 C7.84717878,6.95679996 9.96478394,8.11680258 11.1111111,10" id="Path" stroke-linecap="round" stroke-linejoin="round"></path>
                </g>
            </g>
        </g>
    </g>
</svg>