<?xml version="1.0" encoding="UTF-8"?>
<svg width="24px" height="24px" viewBox="0 0 24 24" version="1.1" xmlns="http://www.w3.org/2000/svg" xmlns:xlink="http://www.w3.org/1999/xlink">
    <title>edit@3x</title>
    <g id="Team" stroke="none" stroke-width="1" fill="none" fill-rule="evenodd">
        <g id="edit">
            <rect id="Rectangle" fill="#E4EDFF" x="0" y="0" width="24" height="24" rx="1.5483871"></rect>
            <g id="Group-40" transform="translate(2.3226, 5.0323)" fill="#0E7ECA">
                <g id="Pencil" transform="translate(6.8199, 0)" fill-rule="nonzero">
                    <path d="M0.99121834,12.8635184 C0.70115147,12.8644502 0.425325042,12.7384402 0.236886182,12.5189004 C0.0484473219,12.2993605 -0.0335643351,12.0084727 0.0126000955,11.7233783 L0.427984818,9.11134797 C0.459357477,8.90573046 0.556466326,8.71565592 0.704907966,8.56931662 L8.87179403,0.438846388 C9.46234018,-0.146282129 10.4168417,-0.146282129 11.0073878,0.438846388 L12.4811822,1.90606918 C13.0689315,2.49398211 13.0689315,3.44422749 12.4811822,4.03214042 L4.31429612,12.1626106 C4.16730137,12.3103904 3.9763755,12.4070662 3.76983705,12.438299 L1.14610756,12.8518315 C1.09480209,12.8592036 1.04305384,12.8631064 0.99121834,12.8635184 L0.99121834,12.8635184 Z M9.93959092,0.93414422 C9.78750069,0.933572941 9.64142756,0.993254715 9.53359342,1.10003118 L1.36905416,9.2351741 C1.36069819,9.24220244 1.3556076,9.25233823 1.35497332,9.2632102 L0.9395886,11.8705679 C0.937179579,11.8866756 0.942580673,11.9029669 0.954147671,11.9144823 C0.965714669,11.9259977 0.98207891,11.9313747 0.998258759,11.9289764 L3.62198825,11.5154439 C3.63122649,11.5136721 3.63953858,11.5087071 3.64545631,11.5014259 L11.8123424,3.37329197 C12.0358581,3.15068499 12.0358581,2.78986094 11.8123424,2.56725397 L10.3432416,1.10003118 C10.2364236,0.993170156 10.0910219,0.93341732 9.93959092,0.93414422 L9.93959092,0.93414422 Z" id="Shape"></path>
                    <path d="M11.5964362,4.71903279 C11.4716786,4.71974305 11.351767,4.67098348 11.2631897,4.58351713 L8.31794774,1.6514079 C8.13454883,1.46882676 8.13454883,1.17280424 8.31794774,0.990223105 C8.50134664,0.807641966 8.79869502,0.807641966 8.98209393,0.990223105 L11.9273359,3.92233234 C12.0154712,4.00997706 12.0649933,4.12890738 12.0649933,4.25292474 C12.0649933,4.37694209 12.0154712,4.49587241 11.9273359,4.58351713 C11.8393347,4.67041058 11.7203816,4.71912344 11.5964362,4.71903279 L11.5964362,4.71903279 Z M4.0467602,12.2350374 C3.92281478,12.2351357 3.80386173,12.1864229 3.7158605,12.0995294 L0.768271737,9.16508384 C0.600564924,8.98017434 0.608072882,8.69679614 0.785337856,8.52094517 C0.962602831,8.3450942 1.24727506,8.33862287 1.43241793,8.50623539 L4.3800067,11.4383446 C4.51371181,11.5722478 4.55333338,11.7730994 4.48042654,11.9473978 C4.40751971,12.1216962 4.2364127,12.235187 4.0467602,12.2350374 Z" id="Shape"></path>
                    <path d="M2.57296581,10.7701785 C2.38185249,10.7722167 2.20856721,10.6587102 2.13483815,10.4831655 C2.06110909,10.3076207 2.10166278,10.1051006 2.23737251,9.97112183 L9.79174212,2.45978224 C9.9040113,2.31904919 10.087405,2.2548882 10.2634273,2.29476141 C10.4394495,2.33463462 10.5769028,2.47147507 10.6169546,2.64671243 C10.6570064,2.8219498 10.5925581,3.00452577 10.4511947,3.11629434 L2.90621231,10.6369793 C2.81725266,10.7235904 2.69738781,10.7714906 2.57296581,10.7701785 L2.57296581,10.7701785 Z" id="Path"></path>
                </g>
                <line x1="0" y1="13.5781638" x2="12.742522" y2="13.3995037" id="Line-2" stroke="#0E7ECA" stroke-width="1.07683284" stroke-linecap="round"></line>
            </g>
        </g>
    </g>
</svg>