<?xml version="1.0" encoding="UTF-8"?>
<svg width="12px" height="15.9999903px" viewBox="0 0 12 15.9999903" version="1.1" xmlns="http://www.w3.org/2000/svg" xmlns:xlink="http://www.w3.org/1999/xlink">
    <title>location pin@3x</title>
    <g id="Home" stroke="none" stroke-width="1" fill="none" fill-rule="evenodd">
        <g transform="translate(-592.5, -451.5)" fill-rule="nonzero" id="Group-8" stroke="#979797">
            <g transform="translate(572, 353)">
                <g id="location-pin" transform="translate(21, 99)">
                    <path d="M5.5,15 C5.61278212,14.9992991 5.72203036,14.9577646 5.81,14.8821429 C6,14.7 11,10.3821429 11,5.89285714 C11,2.63832201 8.53756612,0 5.5,0 C2.46243388,0 0,2.63832201 0,5.89285714 C0,10.3821429 5,14.7 5.19,14.8821429 C5.27796964,14.9577646 5.38721788,14.9992991 5.5,15 Z" id="Shape"></path>
                    <path d="M8,6.5 C8,5.11928813 6.88071187,4 5.5,4 C4.11928813,4 3,5.11928813 3,6.5 C3,7.88071187 4.11928813,9 5.5,9 C6.88071187,9 8,7.88071187 8,6.5 Z" id="Shape"></path>
                </g>
            </g>
        </g>
    </g>
</svg>