<?xml version="1.0" encoding="UTF-8"?>
<svg width="23px" height="23px" viewBox="0 0 23 23" version="1.1" xmlns="http://www.w3.org/2000/svg" xmlns:xlink="http://www.w3.org/1999/xlink">
    <title>Pin@3x</title>
    <g id="Property-profile" stroke="none" stroke-width="1" fill="none" fill-rule="evenodd">
        <g id="Mgmt-property" transform="translate(-582, -2711)" fill="#FFFFFF" fill-rule="nonzero">
            <g id="Pin" transform="translate(582, 2711)">
                <path d="M16.8385557,0.423134492 C16.2795274,-0.138795081 15.3707678,-0.141365348 14.8085686,0.417393029 C14.6661452,0.562557118 14.5560608,0.736213231 14.4855509,0.926947817 C13.2911031,3.4187425 11.976062,4.82396542 10.3164687,5.65360673 C8.45445087,6.57224072 6.31679128,7.21097841 2.87126876,7.21097841 C2.29188122,7.21371474 1.77021179,7.56237106 1.54617823,8.09659898 C1.32431948,8.63314612 1.44723947,9.2504627 1.85771089,9.66114749 L6.51347319,14.3160381 L0,23 L8.685588,16.4877463 L13.3399147,21.1412015 C13.473245,21.2756049 13.6324618,21.3815668 13.8079315,21.4526759 C13.9830789,21.5258795 14.1697113,21.5646344 14.3563438,21.5646344 C14.5429763,21.5646344 14.7296087,21.5258795 14.9047561,21.4526759 C15.4417237,21.2324488 15.7922791,20.7095499 15.7919782,20.1292688 C15.7919782,16.6843914 16.4293999,14.547132 17.3467702,12.7141701 C18.1751313,11.0548875 19.5806173,9.7400926 22.0743142,8.54586842 C22.264986,8.47602701 22.4383368,8.36586703 22.5825288,8.22291116 C23.1413918,7.66081729 23.1388211,6.75222781 22.5767863,6.1933042 L16.8385557,0.423134492 L16.8385557,0.423134492 Z" id="Path"></path>
            </g>
        </g>
    </g>
</svg>