<?xml version="1.0" encoding="UTF-8"?>
<svg width="26px" height="26px" viewBox="0 0 26 26" version="1.1" xmlns="http://www.w3.org/2000/svg" xmlns:xlink="http://www.w3.org/1999/xlink">
    <title>Group 22@3x</title>
    <g id="influencer" stroke="none" stroke-width="1" fill="none" fill-rule="evenodd">
        <g id="Approved-posts" transform="translate(-799, -274)">
            <g id="Group-16" transform="translate(234, 144)">
                <g id="Group-22" transform="translate(565, 130)">
                    <circle id="Oval" fill="#DADADA" cx="13" cy="13" r="13"></circle>
                    <path d="M18.1845703,14.1992188 C18.2014974,14.1992188 18.226888,14.194987 18.2607422,14.1865234 C18.3115234,14.1695964 18.3496094,14.156901 18.375,14.1484375 C18.6966146,14.0722656 18.9674479,13.917806 19.1875,13.6850586 C19.4075521,13.4523112 19.5429688,13.1708984 19.59375,12.8408203 C19.6022135,12.8323568 19.6106771,12.8154297 19.6191406,12.7900391 L19.6191406,12.7900391 L19.6191406,12.421875 C19.59375,12.3203125 19.5810547,12.2695312 19.5810547,12.2695312 C19.5133464,11.9394531 19.3588867,11.6622721 19.1176758,11.4379883 C18.8764648,11.2137044 18.5908203,11.0761719 18.2607422,11.0253906 L18.2607422,11.0253906 L18.2099609,11 L17.8417969,11 C17.8164062,11.0084635 17.784668,11.0169271 17.746582,11.0253906 C17.7084961,11.0338542 17.672526,11.0423177 17.6386719,11.0507812 C17.6048177,11.0592448 17.5751953,11.0677083 17.5498047,11.0761719 C17.1774089,11.1861979 16.8875326,11.3935547 16.6801758,11.6982422 C16.472819,12.0029297 16.3860677,12.3541667 16.4199219,12.7519531 C16.4283854,12.9296875 16.4707031,13.0989583 16.546875,13.2597656 C16.6230469,13.4205729 16.7203776,13.5644531 16.8388672,13.6914062 C16.9573568,13.8183594 17.0970052,13.9241536 17.2578125,14.0087891 C17.4186198,14.0934245 17.5878906,14.1484375 17.765625,14.1738281 C17.7740885,14.1738281 17.7910156,14.1780599 17.8164062,14.1865234 C17.8248698,14.194987 17.8333333,14.1992188 17.8417969,14.1992188 L17.8417969,14.1992188 L18.1845703,14.1992188 Z M8.77734375,14.1992188 C8.93815104,14.156901 9.03125,14.1357422 9.05664062,14.1357422 C9.42903646,14.0257161 9.71891276,13.8162435 9.92626953,13.5073242 C10.1336263,13.1984049 10.2246094,12.8492839 10.1992188,12.4599609 C10.1907552,12.2229818 10.1251628,12.0008138 10.0024414,11.793457 C9.87972005,11.5861003 9.71891276,11.4147135 9.52001953,11.2792969 C9.3211263,11.1438802 9.09895833,11.0592448 8.85351562,11.0253906 L8.85351562,11.0253906 L8.80273438,11.0126953 C8.79427083,11.0042318 8.78580729,11 8.77734375,11 L8.77734375,11 L8.43457031,11 C8.3499349,11.0169271 8.2906901,11.0296224 8.25683594,11.0380859 C8.03678385,11.0888672 7.84000651,11.1756185 7.66650391,11.2983398 C7.4930013,11.4210612 7.35123698,11.5734049 7.24121094,11.7553711 C7.1311849,11.9373372 7.05924479,12.1383464 7.02539062,12.3583984 C7.02539062,12.366862 7.02115885,12.3837891 7.01269531,12.4091797 C7.00423177,12.4176432 7,12.421875 7,12.421875 L7,12.421875 L7,12.7773438 C7.00846354,12.7942708 7.0148112,12.8196615 7.01904297,12.8535156 C7.02327474,12.8873698 7.0296224,12.9191081 7.03808594,12.9487305 C7.04654948,12.9783529 7.05501302,13.0058594 7.06347656,13.03125 C7.2750651,13.6744792 7.70670573,14.0553385 8.35839844,14.1738281 C8.36686198,14.1738281 8.37955729,14.1780599 8.39648438,14.1865234 C8.41341146,14.194987 8.42610677,14.1992188 8.43457031,14.1992188 L8.43457031,14.1992188 L8.77734375,14.1992188 Z M13.4873047,14.1992188 C13.5888672,14.1738281 13.6650391,14.156901 13.7158203,14.1484375 C14.0882161,14.0553385 14.3844401,13.8543294 14.6044922,13.5454102 C14.8245443,13.2364909 14.9261068,12.8789062 14.9091797,12.4726562 C14.8922526,12.1171875 14.7547201,11.8019206 14.496582,11.5268555 C14.238444,11.2517904 13.9274089,11.0846354 13.5634766,11.0253906 C13.555013,11.0253906 13.5402018,11.0211589 13.519043,11.0126953 C13.4978841,11.0042318 13.4873047,11 13.4873047,11 L13.4873047,11 L13.1318359,11 C13.0302734,11.0253906 12.9541016,11.0423177 12.9033203,11.0507812 C12.7509766,11.093099 12.6113281,11.1502279 12.484375,11.222168 C12.3574219,11.2941081 12.2452799,11.3829753 12.1479492,11.4887695 C12.0506185,11.5945638 11.968099,11.7130534 11.9003906,11.8442383 C11.8326823,11.9754232 11.781901,12.1150716 11.7480469,12.2631836 C11.7141927,12.4112956 11.7014974,12.5657552 11.7099609,12.7265625 C11.726888,13.0820312 11.8644206,13.3994141 12.1225586,13.6787109 C12.3806966,13.9580078 12.6917318,14.1230469 13.0556641,14.1738281 L13.0556641,14.1738281 L13.1064453,14.1865234 C13.1149089,14.194987 13.1233724,14.1992188 13.1318359,14.1992188 L13.1318359,14.1992188 L13.4873047,14.1992188 Z" id="" fill="#000000" fill-rule="nonzero"></path>
                </g>
            </g>
        </g>
    </g>
</svg>