<?xml version="1.0" encoding="UTF-8"?>
<svg width="36.8941176px" height="36.8674699px" viewBox="0 0 36.8941176 36.8674699" version="1.1" xmlns="http://www.w3.org/2000/svg" xmlns:xlink="http://www.w3.org/1999/xlink">
    <title>Send@3x</title>
    <g id="Booking-management" stroke="none" stroke-width="1" fill="none" fill-rule="evenodd">
        <g id="Mgmt-property" transform="translate(-1290.8612, -752.6506)">
            <g id="Group-13" transform="translate(227, 124)">
                <g id="Group-11" transform="translate(5, 142)">
                    <g id="Group-8" transform="translate(582.9271, 482.9639)">
                        <g id="Group-9" transform="translate(475.9341, 3.6867)">
                            <ellipse id="Oval" fill="#0E7ECA" cx="18.4470588" cy="18.4337349" rx="18.4470588" ry="18.4337349"></ellipse>
                            <g id="send" transform="translate(10.1459, 11.0602)" fill="#FFFFFF" fill-rule="nonzero">
                                <path d="M19.6371604,6.46858673 L1.30823885,0.0562071878 C0.948213008,-0.0720083411 0.542364864,0.0241517025 0.2739509,0.293465231 C0.00558275901,0.562804409 -0.0729697618,0.966790732 0.0710301009,1.31946519 L1.98170234,6.00742122 C2.08102546,6.25105316 2.32182821,6.41089455 2.58963994,6.41089455 L7.63169713,6.41089455 C8.17503183,6.41089455 8.61360364,6.84051115 8.61360364,7.37275148 C8.61360364,7.90495333 8.17503183,8.33460841 7.63169713,8.33460841 L2.58963994,8.33460841 C2.32182821,8.33460841 2.08102546,8.49441132 1.98170234,8.73808174 L0.0710301009,13.4260378 C-0.0729632157,13.7787122 0.00558275901,14.1826921 0.273957446,14.4520057 C0.463812343,14.6443706 0.719081851,14.746988 0.980936679,14.746988 C1.09220633,14.746988 1.20352179,14.7277316 1.30823885,14.6892573 L19.6371604,8.27687776 C20.0299099,8.14224344 20.2917647,7.77673139 20.2917647,7.37275148 C20.2917647,6.96877157 20.0299099,6.60325952 19.6371604,6.46858673 Z" id="Path"></path>
                            </g>
                        </g>
                    </g>
                </g>
            </g>
        </g>
    </g>
</svg>