<?xml version="1.0" encoding="UTF-8"?>
<svg width="24.8955078px" height="24.8955078px" viewBox="0 0 24.8955078 24.8955078" version="1.1" xmlns="http://www.w3.org/2000/svg" xmlns:xlink="http://www.w3.org/1999/xlink">
    <title>options - simple-line-icons@3x</title>
    <defs>
        <rect id="path-1" x="0" y="0" width="38" height="38"></rect>
    </defs>
    <g id="influencer" stroke="none" stroke-width="1" fill="none" fill-rule="evenodd">
        <g id="Approved-posts" transform="translate(-784, -596)">
            <g id="Group-16" transform="translate(234, 144)">
                <g id="Group-17" transform="translate(189, 111)">
                    <g id="options---simple-line-icons" transform="translate(354, 334)">
                        <mask id="mask-2" fill="white">
                            <use xlink:href="#path-1"></use>
                        </mask>
                        <g id="Mask"></g>
                        <g id="ô€»" mask="url(#mask-2)" fill="#FFFFFF" fill-rule="nonzero">
                            <g transform="translate(7, 7)" id="Shape">
                                <path d="M12.4541016,24.8955078 C19.2841797,24.8955078 24.8955078,19.2841797 24.8955078,12.4541016 C24.8955078,5.61132812 19.2841797,0 12.4414062,0 C5.61132812,0 0,5.61132812 0,12.4541016 C0,19.2841797 5.61132812,24.8955078 12.4541016,24.8955078 Z M12.4541016,23.9306641 C6.10644531,23.9306641 0.96484375,18.7890625 0.96484375,12.4541016 C0.96484375,6.11914062 6.10644531,0.96484375 12.4414062,0.96484375 C18.7890625,0.96484375 23.9306641,6.11914062 23.9306641,12.4541016 C23.9306641,18.7890625 18.7890625,23.9306641 12.4541016,23.9306641 Z M14.9423828,18.4970703 C15.2724609,18.4970703 15.4501953,18.2558594 15.4501953,17.9511719 L15.4501953,6.91894531 C15.4501953,6.6015625 15.2724609,6.36035156 14.9423828,6.36035156 C14.7265625,6.36035156 14.5488281,6.47460938 14.3583984,6.63964844 L11.1083984,9.80078125 C11.0322266,9.86425781 10.9433594,9.90234375 10.8164062,9.90234375 L8.55664062,9.90234375 C7.88378906,9.90234375 7.38867188,10.3847656 7.38867188,11.0703125 L7.38867188,13.8505859 C7.38867188,14.5361328 7.88378906,15.03125 8.55664062,15.03125 L10.8164062,15.03125 C10.9433594,15.03125 11.0322266,15.0693359 11.1083984,15.1328125 L14.3583984,18.2177734 C14.5361328,18.3828125 14.7392578,18.4970703 14.9423828,18.4970703 Z"></path>
                            </g>
                        </g>
                    </g>
                </g>
            </g>
        </g>
    </g>
</svg>