<?xml version="1.0" encoding="UTF-8"?>
<svg width="58px" height="65px" viewBox="0 0 58 65" version="1.1" xmlns="http://www.w3.org/2000/svg" xmlns:xlink="http://www.w3.org/1999/xlink">
    <title>Shape@3x</title>
    <g id="influencer" stroke="none" stroke-width="1" fill="none" fill-rule="evenodd">
        <g id="invite-influencers-payed-promo-b" transform="translate(-692, -271)" fill="#1EBBBA" fill-rule="nonzero">
            <g id="Group-12" transform="translate(380, 53)">
                <g id="Group-18" transform="translate(25, 162)">
                    <g id="Group-10" transform="translate(231, 56)">
                        <path d="M104.333333,22.75 L99.5,22.75 C98.6102703,22.75 97.8888889,23.4776003 97.8888889,24.375 C97.8888889,25.2723998 98.6102703,26 99.5,26 L104.333333,26 C107.890679,26.0045624 110.773254,28.9119873 110.777778,32.5 L110.777778,55.25 C110.773254,58.8380127 107.890679,61.7454376 104.333333,61.75 L65.6666667,61.75 C62.1093208,61.7454376 59.2267456,58.8380127 59.2222222,55.25 L59.2222222,32.5 C59.2267456,28.9119873 62.1093208,26.0045624 65.6666667,26 L73.7222222,26 C74.6119519,26 75.3333333,25.2723998 75.3333333,24.375 C75.3333333,23.4776003 74.6119519,22.75 73.7222222,22.75 L65.6666667,22.75 C60.3302545,22.7559511 56.0059002,27.1175843 56,32.5 L56,55.25 C56.0059002,60.6324157 60.3302545,64.9940489 65.6666667,65 L104.333333,65 C109.669745,64.9940489 113.9941,60.6324157 114,55.25 L114,32.5 C113.9941,27.1175843 109.669745,22.7559511 104.333333,22.75 Z M74.8896485,14.1203614 L83.3888889,5.54765315 L83.3888889,50.3767852 C83.3894789,51.2737885 84.1106634,52.0005951 85,52 L85.0019668,52 C85.8911065,51.9994049 86.6117014,51.2720032 86.6111111,50.375 L86.6111111,5.54765315 L95.1103515,14.1203611 C95.4120414,14.4256437 95.8220959,14.5970305 96.2494573,14.5964354 C96.6766222,14.5964354 97.0862833,14.4252472 97.3883666,14.1205597 C98.0175103,13.4861909 98.0177069,12.4572753 97.3885632,11.8225097 L86.1400889,0.477065875 C85.9912107,0.326705925 85.812832,0.2078856 85.6151799,0.12536615 C85.4281479,0.0476073 85.230299,0.01031485 85.0312701,0.006347575 C85.0202568,0.006149325 85.0110136,0 85,0 C84.9923298,0 84.9858399,0.004165525 84.9781698,0.0043641 C84.7759943,0.007141225 84.574212,0.04602065 84.3844267,0.12536615 C84.1869711,0.20768735 84.0091825,0.32650735 83.8605007,0.4764708 L72.6114365,11.822708 C72.6037667,11.830246 72.5960965,11.8379823 72.5884263,11.8459169 C71.9657728,12.4868318 71.9759995,13.5155488 72.6114365,14.14357 C73.2468736,14.7715912 74.266995,14.7612764 74.8896485,14.1203614 Z" id="Shape"></path>
                    </g>
                </g>
            </g>
        </g>
    </g>
</svg>