<?xml version="1.0" encoding="UTF-8"?>
<svg width="17px" height="16px" viewBox="0 0 17 16" version="1.1" xmlns="http://www.w3.org/2000/svg" xmlns:xlink="http://www.w3.org/1999/xlink">
    <title>Calender@3x</title>
    <g id="Booking-management" stroke="none" stroke-width="1" fill="none" fill-rule="evenodd">
        <g id="Mgmt-property" transform="translate(-16.5, -246.5)" fill-rule="nonzero" stroke="#0E7ECA">
            <g id="Group-14" transform="translate(-2, 68)">
                <g id="Calender" transform="translate(19, 179)">
                    <path d="M4.16,0 C3.63392,0 3.2,0.42375 3.2,0.9375 L3.2,1.25 L1.088,1.25 C0.4736,1.25 0,1.775 0,2.383125 L0,13.8675 C0,14.475 0.4736,15 1.088,15 L14.912,15 C15.5264,15 16,14.475 16,13.866875 L16,2.383125 C16,1.775 15.5264,1.25 14.912,1.25 L12.8,1.25 L12.8,0.9375 C12.8,0.42375 12.36608,0 11.84,0 C11.31392,0 10.88,0.42375 10.88,0.9375 L10.88,1.25 L5.12,1.25 L5.12,0.9375 C5.12,0.42375 4.68608,0 4.16,0 Z" id="Path"></path>
                    <path d="M4.16,0.625 C4.34304,0.625 4.48,0.75875 4.48,0.9375 L4.48,2.8125 C4.48,2.99125 4.34304,3.125 4.16,3.125 C4.0744956,3.12707982 3.99185906,3.09482414 3.93137957,3.03576214 C3.87090008,2.97670013 3.83787026,2.89600039 3.84,2.8125 L3.84,0.9375 C3.84,0.75875 3.97696,0.625 4.16,0.625 L4.16,0.625 Z" id="Path" stroke-width="0.5"></path>
                    <path d="M11.84,0.625 C12.02304,0.625 12.16,0.75875 12.16,0.9375 L12.16,2.8125 C12.16,2.99125 12.02304,3.125 11.84,3.125 C11.7544956,3.12707982 11.6718591,3.09482414 11.6113796,3.03576214 C11.5509001,2.97670013 11.5178703,2.89600039 11.52,2.8125 L11.52,0.9375 C11.52,0.75875 11.65696,0.625 11.84,0.625 L11.84,0.625 Z" id="Path" stroke-width="0.5"></path>
                    <g id="tick" transform="translate(4, 5)" fill="#0E7ECA" stroke-width="0.3">
                        <path d="M2.85893939,6 C2.76996468,6.00047155 2.68444608,5.96809951 2.62127446,5.9100296 L0.097339758,3.57093411 C-0.032446586,3.4499348 -0.032446586,3.25451637 0.097339758,3.13351705 C0.160192628,3.07478756 0.245750621,3.04175306 0.335004696,3.04175306 C0.424258772,3.04175306 0.509816765,3.07478756 0.572669635,3.13351705 L2.85893939,5.25235288 L8.42900218,0.0902111249 C8.55956306,-0.030070375 8.77042378,-0.030070375 8.90098466,0.0902111249 C8.96435505,0.148460993 9,0.227753185 9,0.310470779 C9,0.393188373 8.96435505,0.472480565 8.90098466,0.530730434 L3.09325694,5.9100296 C3.03090817,5.96734183 2.94675487,5.99965213 2.85893939,6 L2.85893939,6 Z" id="Path"></path>
                    </g>
                </g>
            </g>
        </g>
    </g>
</svg>