<?xml version="1.0" encoding="UTF-8"?>
<svg width="19px" height="19px" viewBox="0 0 19 19" version="1.1" xmlns="http://www.w3.org/2000/svg" xmlns:xlink="http://www.w3.org/1999/xlink">
    <title>Message@3x</title>
    <g id="Symbols" stroke="none" stroke-width="1" fill="none" fill-rule="evenodd">
        <g id="menu" transform="translate(-18, -120.5)" fill="#0E7ECA" fill-rule="nonzero">
            <g id="Message" transform="translate(18, 120.5)">
                <path d="M9.50009809,0 C4.25874312,0 0.000196176221,4.25852823 0.000196176221,9.49986018 C0.000196176221,11.0327922 0.392283037,12.5337701 1.10132117,13.8905228 L0.0118551467,18.4677282 C-0.0230796237,18.6137825 0.0203770636,18.767498 0.126610725,18.8736431 C0.232844386,18.9797882 0.386596621,19.0231172 0.532622497,18.9880614 L5.10984796,17.8986002 C6.46617487,18.6076352 7.96715937,18.9997204 9.50009809,18.9997204 C14.7410212,18.9997204 19,14.7416239 19,9.49986018 C19,4.25809642 14.7418849,0 9.50009809,0 Z M9.50009809,0.863623653 C14.2750942,0.863623653 18.1363726,4.72531682 18.1363726,9.49986018 C18.1363726,14.2744035 14.2746624,18.1360967 9.50009809,18.1360967 C8.04704491,18.1360967 6.61687786,17.7690567 5.34302737,17.0695215 C5.24909617,17.0179869 5.13936081,17.0032119 5.03514419,17.0280676 L1.01495843,17.9849626 L1.97185764,13.9647945 C1.9968446,13.8606315 1.98222385,13.7508994 1.93083533,13.6569126 C1.23110403,12.3830593 0.864105866,10.9532431 0.863823623,9.49986018 C0.863823623,4.724885 4.72553375,0.863623653 9.50009809,0.863623653 Z" id="Shape"></path>
                <path d="M5.18196086,8.2044247 C4.47162728,8.2044247 3.88651969,8.78952973 3.88651969,9.49986018 C3.88651969,10.2101906 4.47162728,10.7952957 5.18196086,10.7952957 C5.89229443,10.7952957 6.47740203,10.2101906 6.47740203,9.49986018 C6.47740203,8.78952973 5.89229443,8.2044247 5.18196086,8.2044247 Z M5.18196086,9.06804835 C5.4255038,9.06804835 5.61377458,9.25631831 5.61377458,9.49986018 C5.61377458,9.74340205 5.4255038,9.93167201 5.18196086,9.93167201 C4.93841792,9.93167201 4.75014713,9.74340205 4.75014713,9.49986018 C4.75014713,9.25631831 4.93841792,9.06804835 5.18196086,9.06804835 Z M9.50009809,8.2044247 C8.78976451,8.2044247 8.20465692,8.78952973 8.20465692,9.49986018 C8.20465692,10.2101906 8.78976451,10.7952957 9.50009809,10.7952957 C10.2104317,10.7952957 10.7955393,10.2101906 10.7955393,9.49986018 C10.7955393,8.78952973 10.2104317,8.2044247 9.50009809,8.2044247 Z M9.50009809,9.06804835 C9.74364103,9.06804835 9.93191181,9.25631831 9.93191181,9.49986018 C9.93191181,9.74340205 9.74364103,9.93167201 9.50009809,9.93167201 C9.25655515,9.93167201 9.06828436,9.74340205 9.06828436,9.49986018 C9.06828436,9.25631831 9.25655515,9.06804835 9.50009809,9.06804835 Z M13.8182353,8.2044247 C13.1079017,8.2044247 12.5227942,8.78952973 12.5227942,9.49986018 C12.5227942,10.2101906 13.1079017,10.7952957 13.8182353,10.7952957 C14.5285689,10.7952957 15.1136765,10.2101906 15.1136765,9.49986018 C15.1136765,8.78952973 14.5285689,8.2044247 13.8182353,8.2044247 Z M13.8182353,9.06804835 C14.0617783,9.06804835 14.250049,9.25631831 14.250049,9.49986018 C14.250049,9.74340205 14.0617783,9.93167201 13.8182353,9.93167201 C13.5746924,9.93167201 13.3864216,9.74340205 13.3864216,9.49986018 C13.3864216,9.25631831 13.5746924,9.06804835 13.8182353,9.06804835 Z" id="Shape"></path>
            </g>
        </g>
    </g>
</svg>