<?xml version="1.0" encoding="UTF-8"?>
<svg width="22.8px" height="14.8px" viewBox="0 0 22.8 14.8" version="1.1" xmlns="http://www.w3.org/2000/svg" xmlns:xlink="http://www.w3.org/1999/xlink">
    <title>Group 12@3x</title>
    <defs>
        <rect id="path-1" x="0" y="0" width="30" height="30"></rect>
    </defs>
    <g id="Symbols" stroke="none" stroke-width="1" fill="none" fill-rule="evenodd">
        <g id="menu" transform="translate(-12.6, -499.5538)">
            <g id="Group-12" transform="translate(9, 492)">
                <g id="Group-11">
                    <mask id="mask-2" fill="white">
                        <use xlink:href="#path-1"></use>
                    </mask>
                    <g id="Rectangle"></g>
                    <g id="Group-10" mask="url(#mask-2)">
                        <g transform="translate(17.2273, 11.5909)" id="question-mark-">
                            <path d="M2.1125,0 C0.7625,0 0.009375,0.645909091 0,1.97909091 L0.5875,1.97909091 C0.56875,1.01181818 1.071875,0.499545455 2.084375,0.499545455 C2.809375,0.499545455 3.415625,1.015 3.415625,1.76590909 C3.415625,2.25272727 3.15625,2.64727273 2.809375,2.97818182 C2.103125,3.64 1.903125,4.12363636 1.86875,5.03045455 L2.4625,5.03045455 C2.496875,4.20954545 2.478125,4.05363636 3.190625,3.33454545 C3.665625,2.88272727 4,2.43409091 4,1.73727273 C4,0.649090909 3.14375,0 2.1125,0 L2.1125,0 Z M2.134375,5.92772727 C1.840625,5.92772727 1.603125,6.16636364 1.603125,6.46227273 C1.603125,6.75818182 1.840625,7 2.134375,7 C2.428125,7 2.665625,6.76136364 2.665625,6.46227273 C2.665625,6.16636364 2.428125,5.92772727 2.134375,5.92772727 Z" id="Shape" fill="#0E7ECA" fill-rule="nonzero"></path>
                        </g>
                    </g>
                </g>
                <g id="Group-17" transform="translate(4, 7.9538)" stroke="#0E7ECA" stroke-width="0.8">
                    <g id="Message" transform="translate(15, 7) scale(-1, 1) translate(-15, -7)translate(8, 0)" fill-rule="nonzero" stroke-linejoin="round">
                        <path d="M7,0 C10.8703,0 14,3.13005 14,7 C14,10.86995 10.86995,14 7,14 C5.82225,14 4.66305,13.7025 3.63055,13.1355 C3.5544155,13.0937292 3.46547118,13.0817536 3.381,13.1019 L0.1225,13.8775 L0.8981,10.619 C0.918352801,10.5345719 0.906502179,10.4456299 0.86485,10.36945 C0.297693512,9.33694314 0.00022876781,8.17802243 0,7 C0,3.1297 3.13005,0 7,0 Z" id="Path"></path>
                    </g>
                    <g id="Message" transform="translate(5.5, 8.5) scale(-1, -1) translate(-5.5, -8.5)translate(0, 3)" fill="#FFFFFF" fill-rule="nonzero" stroke-linejoin="round">
                        <path d="M5.5,0 C8.54095,0 11,2.459325 11,5.5 C11,8.540675 8.540675,11 5.5,11 C4.574625,11 3.663825,10.76625 2.852575,10.32075 C2.79275504,10.2879301 2.72287021,10.2785206 2.6565,10.29435 L0.09625,10.90375 L0.70565,8.3435 C0.721562915,8.27716365 0.712251712,8.20728062 0.679525,8.147425 C0.233902045,7.33616961 0.000179746137,6.42558905 0,5.5 C0,2.45905 2.459325,0 5.5,0 Z" id="Path" transform="translate(5.5, 5.5) scale(-1, -1) translate(-5.5, -5.5)"></path>
                    </g>
                    <line x1="2.5" y1="7.5" x2="8.5" y2="7.5" id="Line-2" stroke-linecap="round"></line>
                    <line x1="4.5" y1="9.5" x2="6.5" y2="9.5" id="Line-2" stroke-linecap="round"></line>
                </g>
            </g>
        </g>
    </g>
</svg>