<?xml version="1.0" encoding="UTF-8"?>
<svg width="18px" height="18px" viewBox="0 0 18 18" version="1.1" xmlns="http://www.w3.org/2000/svg" xmlns:xlink="http://www.w3.org/1999/xlink">
    <title>Group 7@3x</title>
    <g id="Symbols" stroke="none" stroke-width="1" fill="none" fill-rule="evenodd">
        <g id="menu" transform="translate(-15, -458)" fill="#0E7ECA">
            <g id="Group-7" transform="translate(15, 458)">
                <g id="Report" fill-rule="nonzero">
                    <path d="M6.42857143,15 L6.73161429,14.6969143 C6.65124857,14.6166 6.54223714,14.5714286 6.42857143,14.5714286 L6.42857143,15 Z M9,17.5714286 L8.69691429,17.8745143 C8.86431429,18.0418286 9.13568571,18.0418286 9.30308571,17.8745143 L9,17.5714286 Z M11.5714286,15 L11.5714286,14.5714286 C11.4577714,14.5714286 11.3487429,14.6166 11.2683429,14.6969143 L11.5714286,15 Z M0.857142857,3.85714286 C0.857142857,2.20028571 2.20028571,0.857142857 3.85714286,0.857142857 L3.85714286,0 C1.72690286,0 0,1.72690286 0,3.85714286 L0.857142857,3.85714286 Z M0.857142857,11.5714286 L0.857142857,3.85714286 L0,3.85714286 L0,11.5714286 L0.857142857,11.5714286 Z M3.85714286,14.5714286 C2.20028571,14.5714286 0.857142857,13.2282857 0.857142857,11.5714286 L0,11.5714286 C0,13.7016857 1.72690286,15.4285714 3.85714286,15.4285714 L3.85714286,14.5714286 Z M6.42857143,14.5714286 L3.85714286,14.5714286 L3.85714286,15.4285714 L6.42857143,15.4285714 L6.42857143,14.5714286 Z M9.30308571,17.2683429 L6.73161429,14.6969143 L6.12552857,15.3030857 L8.69691429,17.8745143 L9.30308571,17.2683429 Z M11.2683429,14.6969143 L8.69691429,17.2683429 L9.30308571,17.8745143 L11.8745143,15.3030857 L11.2683429,14.6969143 Z M14.1428571,14.5714286 L11.5714286,14.5714286 L11.5714286,15.4285714 L14.1428571,15.4285714 L14.1428571,14.5714286 Z M17.1428571,11.5714286 C17.1428571,13.2282857 15.7997143,14.5714286 14.1428571,14.5714286 L14.1428571,15.4285714 C16.2731143,15.4285714 18,13.7016857 18,11.5714286 L17.1428571,11.5714286 Z M17.1428571,3.85714286 L17.1428571,11.5714286 L18,11.5714286 L18,3.85714286 L17.1428571,3.85714286 Z M14.1428571,0.857142857 C15.7997143,0.857142857 17.1428571,2.20028571 17.1428571,3.85714286 L18,3.85714286 C18,1.72690286 16.2731143,0 14.1428571,0 L14.1428571,0.857142857 Z M3.85714286,0.857142857 L14.1428571,0.857142857 L14.1428571,0 L3.85714286,0 L3.85714286,0.857142857 Z" id="Shape"></path>
                </g>
                <line x1="8.9" y1="3.3" x2="8.95982143" y2="8.97053571" id="Line" stroke="#0E7ECA" stroke-width="1.04" stroke-linecap="round"></line>
                <circle id="Oval" cx="9" cy="11.4589286" r="1"></circle>
            </g>
        </g>
    </g>
</svg>