<?xml version="1.0" encoding="UTF-8"?>
<svg width="21px" height="16px" viewBox="0 0 21 16" version="1.1" xmlns="http://www.w3.org/2000/svg" xmlns:xlink="http://www.w3.org/1999/xlink">
    <title>Shape@3x</title>
    <g id="Symbols" stroke="none" stroke-width="1" fill="none" fill-rule="evenodd">
        <g id="menu" transform="translate(-18, -359)" fill="#0E7ECA" fill-rule="nonzero">
            <g id="Group-4" transform="translate(18, 359)">
                <path d="M17.3860465,10.116129 C18.094186,9.49677419 18.5581395,8.54193548 18.5581395,7.48387097 C18.5581395,5.70322581 17.1906977,4.12903226 15.627907,4.12903226 C14.0651163,4.12903226 12.6976744,5.70322581 12.6976744,7.48387097 C12.6976744,8.54193548 13.1616279,9.49677419 13.8697674,10.116129 C13.5523256,10.2451613 13.2593023,10.3741935 12.9662791,10.5548387 C12.0383721,9.39354839 10.8174419,8.49032258 9.40116279,8.0516129 C10.4755814,7.2516129 11.2325581,5.88387097 11.2325581,4.38709677 C11.2325581,2.03870968 9.40116279,0 7.3255814,0 C5.25,0 3.41860465,2.03870968 3.41860465,4.38709677 C3.41860465,5.88387097 4.1755814,7.2516129 5.25,8.0516129 C2.22209302,9.00645161 0,11.9741935 0,15.483871 C0,15.7677419 0.219767442,16 0.488372093,16 L20.5116279,16 C20.7802326,16 21,15.7677419 21,15.483871 C21,13.0064516 19.4860465,10.8903226 17.3860465,10.116129 Z M13.6744186,7.48387097 C13.6744186,6.4 14.5290698,5.16129032 15.627907,5.16129032 C16.7267442,5.16129032 17.5813953,6.4 17.5813953,7.48387097 C17.5813953,8.56774194 16.7267442,9.80645161 15.627907,9.80645161 C14.5290698,9.80645161 13.6744186,8.56774194 13.6744186,7.48387097 Z M4.39534884,4.38709677 C4.39534884,2.81290323 5.64069767,1.03225806 7.3255814,1.03225806 C9.01046512,1.03225806 10.255814,2.81290323 10.255814,4.38709677 C10.255814,5.96129032 9.01046512,7.74193548 7.3255814,7.74193548 C5.64069767,7.74193548 4.39534884,5.96129032 4.39534884,4.38709677 Z M1.00116279,14.9677419 C1.24534884,11.5096774 4.00465116,8.77419355 7.3255814,8.77419355 C10.6709302,8.77419355 13.405814,11.5096774 13.65,14.9677419 L1.00116279,14.9677419 Z M14.6267442,14.9677419 C14.5534884,13.6774194 14.1627907,12.4387097 13.527907,11.4064516 C14.1627907,11.0451613 14.8709302,10.8387097 15.627907,10.8387097 C17.8988372,10.8387097 19.7546512,12.6451613 19.9988372,14.9677419 L14.6267442,14.9677419 L14.6267442,14.9677419 Z" id="Shape"></path>
            </g>
        </g>
    </g>
</svg>