<?xml version="1.0" encoding="UTF-8"?>
<svg width="18px" height="17px" viewBox="0 0 18 17" version="1.1" xmlns="http://www.w3.org/2000/svg" xmlns:xlink="http://www.w3.org/1999/xlink">
    <title>Hierarchy@3x</title>
    <g id="Symbols" stroke="none" stroke-width="1" fill="none" fill-rule="evenodd">
        <g id="menu" transform="translate(-18, -401)">
            <g id="Group-2" transform="translate(1, 0)">
                <g id="Hierarchy" transform="translate(17, 401)">
                    <path d="M14.7323905,12.3609298 C14.2868752,12.360551 13.8512599,12.4924877 13.4806701,12.740044 L9.63026928,9.27069532 L9.63026928,5.46820291 C10.7359028,5.1824104 11.4567863,4.11815537 11.3129028,2.98409675 C11.1690194,1.85003812 10.2052603,1 9.06336692,1 C7.92147356,1 6.95771447,1.85003812 6.81383101,2.98409675 C6.66994754,4.11815537 7.39083107,5.1824104 8.49646456,5.46820291 L8.49646456,9.26729011 L4.63132425,12.7292608 C3.65444422,12.0720466 2.34143959,12.2469439 1.57020377,13.137014 C0.79896795,14.0270841 0.811463446,15.3530821 1.59933559,16.2284272 C2.38720774,17.1037722 3.70327466,17.2538391 4.66759545,16.5782911 C5.63191624,15.9027431 5.94195117,14.6135221 5.39040651,13.5726196 L9.06336692,10.2860176 L12.7300914,13.5890781 C12.5585221,13.9097179 12.467466,14.2673377 12.4647811,14.6310746 C12.4647811,15.8848409 13.4800244,16.9012193 14.7323905,16.9012193 C15.9847567,16.9012193 17,15.8848409 17,14.6310746 C17,13.3773082 15.9847567,12.3609298 14.7323905,12.3609298 Z" id="Path" fill="#0E7ECA" fill-rule="nonzero"></path>
                    <circle id="Oval" stroke="#0E7ECA" fill="#FFFFFF" cx="9" cy="3" r="2.5"></circle>
                    <circle id="Oval" stroke="#0E7ECA" fill="#FFFFFF" cx="15" cy="14" r="2.5"></circle>
                    <circle id="Oval" stroke="#0E7ECA" fill="#FFFFFF" cx="3" cy="14" r="2.5"></circle>
                </g>
            </g>
        </g>
    </g>
</svg>