<?xml version="1.0" encoding="UTF-8"?>
<svg width="16.7996778px" height="16.7876273px" viewBox="0 0 16.7996778 16.7876273" version="1.1" xmlns="http://www.w3.org/2000/svg" xmlns:xlink="http://www.w3.org/1999/xlink">
    <title>Group 18@3x</title>
    <g id="Booking-management" stroke="none" stroke-width="1" fill="none" fill-rule="evenodd">
        <g id="Mgmt-property" transform="translate(-16.3505, -202.8624)" fill-rule="nonzero" stroke="#0E7ECA" stroke-width="0.3">
            <g id="Group-14" transform="translate(-2, 68)">
                <g id="Group-18" transform="translate(18.5005, 135.0124)">
                    <path d="M4.4594694,1.48759997 C8.02032095,-0.511935991 12.5217963,0.594840759 14.7494694,4.01759997 L12.7494694,3.71009997 C12.660153,3.6967025 12.5704738,3.73197247 12.514213,3.80262401 C12.4579523,3.87327555 12.4436574,3.96857501 12.476713,4.05262402 C12.5097687,4.13667302 12.585153,4.19670251 12.6744694,4.21009997 L15.1894694,4.60009997 L15.2294694,4.60009997 C15.3533176,4.60169397 15.4596623,4.51236442 15.4794694,4.39009997 L15.8594694,1.86759997 C15.8804544,1.73170049 15.787746,1.60436603 15.6519694,1.58259997 C15.5160699,1.56161498 15.3887355,1.6543234 15.3669694,1.79009997 L15.0819694,3.62509997 C12.8859148,0.381998163 8.71230171,-0.870028644 5.09374236,0.628768583 C1.47518301,2.12756581 -0.590797517,5.96401497 0.149469399,9.81009997 C0.17253168,9.92937702 0.278003339,10.0148091 0.399469399,10.0126 C0.415195088,10.015211 0.431243709,10.015211 0.446969399,10.0126 C0.51235074,10.0004708 0.570205932,9.9627936 0.607738839,9.90790172 C0.645271747,9.85300984 0.659389427,9.78542669 0.646969399,9.72009997 C0.00447377044,6.44029929 1.54256537,3.11903002 4.4594694,1.48759997 Z" id="Path" fill="#3C7CFF"></path>
                    <path d="M16.3394694,6.62009997 C16.3220527,6.53078357 16.2583093,6.45754351 16.1722507,6.42796862 C16.086192,6.39839372 15.9908926,6.41697711 15.9222507,6.47671862 C15.8536087,6.53646012 15.8220527,6.62828357 15.8394694,6.71759997 C16.5519479,10.3482647 14.5986735,13.9762169 11.1755211,15.3802751 C7.75236872,16.7843333 3.81413539,15.572873 1.7719694,12.4876 L3.7719694,12.6901 C3.91004059,12.7039071 4.03316228,12.6031712 4.0469694,12.4651 C4.06077652,12.3270288 3.96004059,12.2039071 3.8219694,12.1901 L1.2869694,11.9401 L1.2619694,11.9401 C1.13396146,11.9393234 1.02604818,12.0353662 1.0119694,12.1626 L0.761969399,14.6951 C0.754996828,14.7614721 0.774851243,14.827877 0.817111881,14.8795288 C0.859372518,14.9311807 0.92053084,14.9637915 0.986969399,14.9701 L1.0119694,14.9701 C1.13864901,14.9640599 1.24073567,14.8641224 1.2494694,14.7376 L1.4344694,12.8901 C2.97877295,15.1445741 5.53679378,16.4909501 8.2694694,16.4876062 C10.7375482,16.4816534 13.073331,15.3710306 14.6358209,13.4605139 C16.1983108,11.5499973 16.823371,9.04028339 16.3394694,6.62009997 Z" id="Path" fill="#3C7CFF"></path>
                    <path d="M8.4569694,12.8101 L8.4569694,11.6401 L8.5594694,11.6226 C9.5944694,11.4526 10.2619694,10.7376 10.2619694,9.80259997 C10.2619694,8.86759997 9.7619694,8.31509997 8.5669694,7.82509997 C7.5669694,7.41509997 7.0669694,7.07509997 7.0669694,6.40759997 C7.0669694,5.85509997 7.4819694,5.29759997 8.4044694,5.29759997 C8.88358073,5.29274038 9.35628509,5.40790835 9.7794694,5.63259997 L9.9744694,5.11509997 C9.56244606,4.90150966 9.1060371,4.7876215 8.6419694,4.78259997 L8.5194694,4.78259997 L8.5194694,3.67259997 L8.0644694,3.67259997 L8.0644694,4.81009997 L7.9594694,4.82759997 C6.9769694,4.98759997 6.3394694,5.66259997 6.3394694,6.54509997 C6.3394694,7.37259997 6.8394694,7.89509997 8.1469694,8.40509997 C8.8244694,8.68009997 9.5169694,9.07009997 9.5169694,9.88259997 C9.5169694,10.6151 8.9069694,11.1326 8.0319694,11.1326 C7.47710099,11.129828 6.93253579,10.9824852 6.4519694,10.7051 L6.2619694,11.2376 C6.7511186,11.5117628 7.30126275,11.6587545 7.8619694,11.6651 L7.9844694,11.6651 L7.9844694,12.8176 L8.4569694,12.8101 Z" id="Path" fill="#0E7ECA"></path>
                </g>
            </g>
        </g>
    </g>
</svg>