<?xml version="1.0" encoding="UTF-8"?>
<svg width="20px" height="18px" viewBox="0 0 20 18" version="1.1" xmlns="http://www.w3.org/2000/svg" xmlns:xlink="http://www.w3.org/1999/xlink">
    <title>Group 8@3x</title>
    <g id="Symbols" stroke="none" stroke-width="1" fill="none" fill-rule="evenodd">
        <g id="menu" transform="translate(-18, -317)" fill="#0E7ECA" fill-rule="nonzero">
            <g id="Group-8" transform="translate(18, 317)">
                <g id="Man-User-Tasks" transform="translate(11.7371, 0)">
                    <path d="M7.91725968,3.88084932 C7.72636184,3.88084932 7.57160856,4.03949212 7.57160856,4.23518793 C7.57162604,5.66155031 6.73348542,6.94747383 5.44801223,7.4933315 C4.16253905,8.03918916 2.68288673,7.73748302 1.69901813,6.72889884 C0.71514953,5.72031466 0.420821875,4.20347701 0.953280343,2.88568828 C1.48573881,1.56789955 2.74012421,0.708677218 4.13151578,0.708677218 C4.32241363,0.708677218 4.4771669,0.550034419 4.4771669,0.354338609 C4.4771669,0.158642799 4.32241363,0 4.13151578,0 C2.46051855,0 0.954059273,1.031886 0.314600352,2.61448925 C-0.324858569,4.1970925 0.0286139716,6.01874486 1.21019363,7.23000931 C2.39177328,8.44127375 4.16876702,8.80361131 5.71256215,8.14806388 C7.25635728,7.49251644 8.2629108,5.94818349 8.2629108,4.23518793 C8.2629108,4.03949212 8.10815753,3.88084932 7.91725968,3.88084932 Z" id="Shape"></path>
                    <path d="M3.02197569,2.86837104 C2.94207814,2.77184388 2.81801571,2.72634526 2.6965215,2.74901407 C2.5750273,2.77168288 2.47455918,2.85907519 2.43296252,2.97827115 C2.39136586,3.09746712 2.41496018,3.23035804 2.49485773,3.3268852 L3.7881114,4.88920842 C3.90803729,5.03408891 4.1180924,5.05620858 4.26424581,4.93934733 L7.78491851,2.1240385 C7.88321308,2.04649985 7.93344778,1.92091697 7.91655524,1.79495682 C7.8996627,1.66899667 7.8182327,1.56197012 7.70317329,1.51450079 C7.58811388,1.46703146 7.45706473,1.48639685 7.35976763,1.56524651 L4.10058001,4.17145127 L3.02197569,2.86837104 Z" id="Path"></path>
                </g>
                <g id="User" transform="translate(0, 2.984)">
                    <path d="M8.50704225,7.9315508 C9.72769953,7.16149733 10.5164319,5.64064171 10.5164319,4.23529412 C10.5164319,2.23315508 8.92018779,0 6.76056338,0 C4.60093896,0 3.00469483,2.23315508 3.00469483,4.23529412 C3.00469483,5.64064171 3.79342723,7.16149733 5.0140845,7.9315508 C2.12206573,8.72085561 0,11.4352941 0,14.631016 C0,14.8427807 0.169014084,15.0160428 0.375586854,15.0160428 L13.1455399,15.0160428 C13.3521127,15.0160428 13.5211268,14.8427807 13.5211268,14.631016 C13.5211268,11.4352941 11.399061,8.72085561 8.50704225,7.9315508 Z M3.75586854,4.23529412 C3.75586854,2.25240642 5.35211267,0.770053476 6.76056338,0.770053476 C8.16901408,0.770053476 9.76525821,2.25240642 9.76525821,4.23529412 C9.76525821,6.21818182 8.16901408,7.70053476 6.76056338,7.70053476 C5.35211267,7.70053476 3.75586854,6.21818182 3.75586854,4.23529412 Z M0.769953051,14.2459893 C0.957746478,11.031016 3.58685446,8.47058824 6.76056338,8.47058824 C9.9342723,8.47058824 12.5633803,11.031016 12.7511737,14.2459893 L0.769953051,14.2459893 Z" id="Shape"></path>
                </g>
            </g>
        </g>
    </g>
</svg>