<?xml version="1.0" encoding="UTF-8"?>
<svg width="24.7000003px" height="20.7000179px" viewBox="0 0 24.7000003 20.7000179" version="1.1" xmlns="http://www.w3.org/2000/svg" xmlns:xlink="http://www.w3.org/1999/xlink">
    <title>Management@3x</title>
    <g id="Symbols" stroke="none" stroke-width="1" fill="none" fill-rule="evenodd">
        <g id="menu" transform="translate(-15.65, -298.65)" fill-rule="nonzero" stroke="#0E7ECA" stroke-width="0.7">
            <g id="Management" transform="translate(16, 299)">
                <path d="M6.40688402,15.9243137 C7.6707678,15.9243137 8.69534804,14.9042285 8.69534804,13.6458897 C8.69534804,12.3875509 7.6707678,11.3674657 6.40688402,11.3674657 C5.14300025,11.3674657 4.11842001,12.3875509 4.11842001,13.6458897 C4.12069354,14.9032898 5.14394317,15.9220502 6.40688402,15.9243137 L6.40688402,15.9243137 Z" id="Shape"></path>
                <path d="M0.384175484,14.8673553 L1.94561844,15.0606512 C2.02538072,15.3113153 2.12625507,15.554828 2.24716695,15.7885953 L1.25990539,17.0223989 C1.13201741,17.1858159 1.14617728,17.4184288 1.29295181,17.5652725 L2.44544542,18.7127099 C2.59293627,18.8588405 2.82657414,18.8729383 2.99071121,18.7456113 L4.22995165,17.7832445 C4.46465722,17.9038234 4.7092601,18.0042623 4.96110351,18.0834701 L5.15525118,19.6380626 C5.18045874,19.8457385 5.35822816,20.0014893 5.56833133,19.9999893 L7.22065191,19.9999893 C7.43075508,20.0014893 7.6085245,19.8457385 7.63373206,19.6380626 L7.82787973,18.0834701 C8.07965516,18.0040761 8.32424246,17.9036437 8.55903159,17.7832445 L9.79827203,18.7456113 C9.96211787,18.8764887 10.198527,18.8641007 10.3476686,18.7168226 L11.5001622,17.5693852 C11.6469368,17.4225414 11.6610966,17.1899286 11.5332086,17.0265116 L10.5666011,15.792708 C10.6876207,15.5589904 10.7884989,15.3154684 10.8681496,15.0647639 L12.4130694,14.8673553 C12.6216604,14.8422583 12.7780975,14.6652688 12.7765908,14.4560874 L12.7765908,12.8110159 C12.7780975,12.6018345 12.6216604,12.424845 12.4130694,12.399748 L10.8516264,12.2064521 C10.7719757,11.9557476 10.6710975,11.7122257 10.5500779,11.478508 L11.5166854,10.2447044 C11.6445734,10.0812874 11.6304136,9.84867457 11.483639,9.70183079 L10.3476686,8.57495682 C10.2001778,8.42882622 9.9665399,8.41472847 9.80240283,8.54205539 L8.56316239,9.50442221 C8.32787009,9.37534862 8.0818706,9.26664806 7.82787973,9.17952059 L7.63373206,7.62492803 C7.6085245,7.41725212 7.43075508,7.26150135 7.22065191,7.2630014 L5.56833133,7.2630014 C5.35822816,7.26150135 5.18045874,7.41725212 5.15525118,7.62492803 L4.97762672,9.17952059 C4.72578331,9.25872841 4.48118042,9.35916723 4.24647486,9.47974614 L3.00723442,8.51737931 C2.84309735,8.3900524 2.60945948,8.40415015 2.46196862,8.55028074 L1.31360581,9.72239419 C1.16040008,9.86379779 1.13734931,10.096825 1.25990539,10.2652678 L2.22651294,11.4990714 C2.10560107,11.7328387 2.00472672,11.9763514 1.92496443,12.2270155 L0.363521477,12.4203114 C0.154930434,12.4454084 -0.00150665798,12.6223979 0,12.8315793 L0,14.4766508 C0.00999111819,14.6850478 0.175119852,14.8529877 0.384175484,14.8673553 L0.384175484,14.8673553 Z" id="Path"></path>
                <path d="M17.5930944,7.81822393 C17.0016478,7.81822393 16.4684388,7.46350814 16.2421019,6.91947998 C16.0157651,6.37545181 16.1408736,5.74924831 16.5590895,5.33286718 C16.9773055,4.91648605 17.6062684,4.79192643 18.1526938,5.01727028 C18.6991193,5.24261412 19.0553981,5.77348381 19.0553981,6.36233565 C19.053129,7.16546291 18.3997607,7.81596477 17.5930944,7.81822393 Z" id="Path"></path>
                <path d="M23.6158029,5.13675739 L22.05436,4.94346149 C21.9745608,4.69281073 21.8736877,4.44930107 21.7528115,4.21551735 L22.719419,2.98171373 C22.847307,2.81829677 22.8331471,2.58568392 22.6863726,2.43884014 L21.533879,1.29140277 C21.3863881,1.14527217 21.1527503,1.13117442 20.9886132,1.25850134 L19.7493728,2.22086816 C19.5161833,2.09786353 19.2729792,1.9946801 19.0223517,1.91241726 L18.8158116,0.361937372 C18.7906041,0.154261464 18.6128347,-0.00148930454 18.4027315,1.07434056e-05 L16.7504109,1.07434056e-05 C16.5403077,-0.00148930454 16.3625383,0.154261464 16.3373307,0.361937372 L16.1431831,1.91652994 C15.8914076,1.99592386 15.6468204,2.09635628 15.4120312,2.21675548 L14.1727908,1.25438866 C14.0086537,1.12706174 13.7750158,1.14115949 13.627525,1.28729009 L12.4750314,2.43472746 C12.3282568,2.58157124 12.314097,2.81418409 12.441985,2.97760105 L13.4085925,4.21140467 C13.287354,4.44502136 13.186468,4.68856224 13.107044,4.93934881 L11.5869091,5.13675739 C11.378318,5.16185436 11.2218809,5.33884386 11.2233876,5.54802526 L11.2233876,7.19309676 C11.2218809,7.40227816 11.378318,7.57926767 11.5869091,7.60436463 L13.148352,7.79766053 C13.227776,8.04844711 13.328662,8.29198798 13.4499005,8.52560467 L12.483293,9.75940829 C12.355405,9.92282526 12.3695649,10.1554381 12.5163394,10.3022819 L13.6523098,11.4291559 C13.7998006,11.5752865 14.0334385,11.5893842 14.1975756,11.4620573 L15.436816,10.4996905 C15.6721083,10.6287641 15.9181078,10.7374646 16.1720987,10.8245921 L16.3662464,12.3791847 C16.3914539,12.5868606 16.5692233,12.7426113 16.7793265,12.7411113 L18.4316471,12.7411113 C18.6417503,12.7426113 18.8195197,12.5868606 18.8447272,12.3791847 L19.0223517,10.8245921 C19.2741542,10.7452722 19.5187477,10.6448372 19.7535036,10.5243665 L20.992744,11.4867334 C21.1568811,11.6140603 21.3905189,11.5999625 21.5380098,11.4538319 L22.6905034,10.3063946 C22.857265,10.1610786 22.8791384,9.91063781 22.740073,9.7388449 L21.7734655,8.50504128 C21.8943774,8.27127398 21.9952517,8.02776128 22.075014,7.77709714 L23.6364569,7.58380124 C23.845048,7.55870427 24.0014851,7.38171477 23.9999784,7.17253337 L23.9999784,5.52746187 C23.9899873,5.31906486 23.8248586,5.151125 23.6158029,5.13675739 Z" id="Shape"></path>
            </g>
        </g>
    </g>
</svg>