<?xml version="1.0" encoding="UTF-8"?>
<svg width="18.131002px" height="21px" viewBox="0 0 18.131002 21" version="1.1" xmlns="http://www.w3.org/2000/svg" xmlns:xlink="http://www.w3.org/1999/xlink">
    <title>Group 2@3x</title>
    <g id="Symbols" stroke="none" stroke-width="1" fill="none" fill-rule="evenodd">
        <g id="menu" transform="translate(-14.9844, -414)">
            <g id="Group-2" transform="translate(15, 414)">
                <g id="Group-11">
                    <path d="M11.1558095,0 C11.9141787,0 12.5311952,0.64094992 12.5311952,1.42873549 L12.5311952,2.99097628 C12.5311952,3.17886849 12.3845516,3.33115965 12.2037149,3.33115965 C12.0228387,3.33115965 11.8762346,3.17882747 11.8762346,2.99097628 L11.8762346,1.42873549 C11.8762346,1.01607809 11.553058,0.680365859 11.1558095,0.680365859 L1.37538567,0.680365859 C0.978137145,0.680365859 0.654960601,1.01607809 0.654960601,1.42873549 L0.654960601,19.5712235 C0.654960601,19.9838809 0.978137145,20.3195931 1.37538567,20.3195931 L11.1558095,20.3195931 C11.553058,20.3195931 11.8762346,19.9838809 11.8762346,19.5712235 L11.8762346,13.7656372 C11.8762346,13.577745 12.0228782,13.4254542 12.2037149,13.4254542 C12.3845911,13.4254542 12.5311952,13.577786 12.5311952,13.7656372 L12.5311952,19.5712645 C12.5311952,20.3590501 11.9141787,21 11.1558095,21 L1.37538567,21 C0.616976992,21 0,20.3590501 0,19.5712645 L0,1.42873549 C0,0.64094992 0.616976992,0 1.37538567,0 Z M6.96418801,18.8682171 C7.14502473,18.8682171 7.29166831,19.0205078 7.29166831,19.2084 C7.29166831,19.3962922 7.14502473,19.5485829 6.96418801,19.5485829 L5.56696769,19.5485829 C5.38609148,19.5485829 5.23948738,19.3962512 5.23948738,19.2084 C5.23948738,19.0205078 5.38613096,18.8682171 5.56696769,18.8682171 Z M4.16978684,15.9654239 C4.35062357,15.9654239 4.49726714,16.1177146 4.49726714,16.3056068 C4.49726714,16.493499 4.35062357,16.6457898 4.16978684,16.6457898 L3.47119642,16.6457898 C3.29032022,16.6457898 3.14371612,16.493458 3.14371612,16.3056068 C3.14371612,16.1177146 3.2903597,15.9654239 3.47119642,15.9654239 Z M9.05999876,15.9654239 C9.24083548,15.9654239 9.38747906,16.1177146 9.38747906,16.3056068 C9.38747906,16.493499 9.24083548,16.6457898 9.05999876,16.6457898 L8.36140834,16.6457898 C8.18053213,16.6457898 8.03392804,16.493458 8.03392804,16.3056068 C8.03392804,16.1177146 8.18057162,15.9654239 8.36140834,15.9654239 Z M6.61487306,15.9654239 C6.79574927,15.9654239 6.94235336,16.1177146 6.94235336,16.3056068 C6.94235336,16.493499 6.79570978,16.6457898 6.61487306,16.6457898 L5.91628264,16.6457898 C5.73540643,16.6457898 5.58880234,16.493458 5.58880234,16.3056068 C5.58880234,16.1177146 5.73544592,15.9654239 5.91628264,15.9654239 Z M6.96418801,1.45141709 C7.14502473,1.45141709 7.29166831,1.60370781 7.29166831,1.79160002 C7.29166831,1.97949223 7.14502473,2.13178295 6.96418801,2.13178295 L5.56696769,2.13178295 C5.38609148,2.13178295 5.23948738,1.97945121 5.23948738,1.79160002 C5.23948738,1.60370781 5.38613096,1.45141709 5.56696769,1.45141709 Z M4.17326143,1.45141709 C4.35413764,1.45141709 4.50074174,1.60370781 4.50070226,1.79160002 C4.50070226,1.97949223 4.35405867,2.13178295 4.17322195,2.13178295 C3.99238523,2.13178295 3.84400435,1.97945121 3.84400435,1.79160002 C3.84400435,1.60370781 3.98891064,1.45141709 4.16974736,1.45141709 Z" id="Combined-Shape" fill="#0E7ECA" fill-rule="nonzero"></path>
                    <line x1="12.2042357" y1="3.15001436" x2="0.254382607" y2="3.15001436" id="Line-5" stroke="#0E7ECA" stroke-width="0.54" stroke-linecap="round"></line>
                    <line x1="11.7504386" y1="18.2699848" x2="0.429585926" y2="18.2699848" id="Line-5-Copy" stroke="#0E7ECA" stroke-width="0.54" stroke-linecap="square"></line>
                </g>
                <g id="customer-support" transform="translate(7, 5)" fill="#0E7ECA" fill-rule="nonzero" stroke="#0E7ECA" stroke-width="0.230769231">
                    <path d="M11,5.43478261 C11,4.83543478 10.4859792,4.34782609 9.85416667,4.34782609 L9.39583333,4.34782609 L9.39583333,3.69565217 C9.39583333,1.65782609 7.64820833,0 5.5,0 C3.35179167,0 1.60416667,1.65782609 1.60416667,3.69565217 L1.60416667,4.34782609 L1.14583333,4.34782609 C0.514020833,4.34782609 0,4.83543478 0,5.43478261 L0,6.73913043 C0,7.33847826 0.514020833,7.82608696 1.14583333,7.82608696 L2.52083333,7.82608696 L2.52083333,4.34782609 L2.0625,4.34782609 L2.0625,3.69565217 C2.0625,1.8976087 3.6045625,0.434782609 5.5,0.434782609 C7.3954375,0.434782609 8.9375,1.8976087 8.9375,3.69565217 L8.9375,4.34782609 L8.47916667,4.34782609 L8.47916667,7.82608696 L8.9375,7.82608696 L8.9375,8.91304348 C8.9375,9.2726087 8.62904167,9.56521739 8.25,9.56521739 L5.95833333,9.56521739 L5.95833333,10 L8.25,10 C8.8818125,10 9.39583333,9.5123913 9.39583333,8.91304348 L9.39583333,7.82608696 L9.85416667,7.82608696 C10.4859792,7.82608696 11,7.33847826 11,6.73913043 L11,5.43478261 Z M2.0625,7.39130435 L1.14583333,7.39130435 C0.766791667,7.39130435 0.458333333,7.09869565 0.458333333,6.73913043 L0.458333333,5.43478261 C0.458333333,5.07521739 0.766791667,4.7826087 1.14583333,4.7826087 L2.0625,4.7826087 L2.0625,7.39130435 Z M10.5416667,6.73913043 C10.5416667,7.09869565 10.2332083,7.39130435 9.85416667,7.39130435 L8.9375,7.39130435 L8.9375,4.7826087 L9.85416667,4.7826087 C10.2332083,4.7826087 10.5416667,5.07521739 10.5416667,5.43478261 L10.5416667,6.73913043 Z" id="Shape"></path>
                </g>
            </g>
        </g>
    </g>
</svg>