<?xml version="1.0" encoding="UTF-8"?>
<svg width="22.7503593px" height="22.7503593px" viewBox="0 0 22.7503593 22.7503593" version="1.1" xmlns="http://www.w3.org/2000/svg" xmlns:xlink="http://www.w3.org/1999/xlink">
    <title>Path@3x</title>
    <g id="Symbols" stroke="none" stroke-width="1" fill="none" fill-rule="evenodd">
        <g id="menu" transform="translate(-16, -41.1248)" fill="#0E7ECA" fill-rule="nonzero">
            <g id="Group-5">
                <path d="M27.3736796,42 C27.1674298,42 27.0841799,42.07725 26.98368,42.14325 C26.8765106,42.2164301 26.7742885,42.2966043 26.6776804,42.38325 C26.4646806,42.57075 26.2246808,42.8085 25.9876811,43.04625 C25.7514313,43.28325 25.5174316,43.5202499 25.3284318,43.6979999 C25.2518613,43.7710198 25.1722929,43.8408299 25.089932,43.9072499 C25.070432,43.9222499 25.0569321,43.9282499 25.0419321,43.9364999 C25.0261821,43.9364999 25.0149321,43.9379999 24.9931821,43.9334999 C24.8918027,43.916339 24.7912096,43.8948191 24.6916824,43.8689999 C24.4464327,43.8089999 24.131433,43.7167499 23.8156833,43.6274999 C23.5170703,43.5394295 23.2156599,43.4611377 22.9119343,43.39275 C22.7868789,43.3651364 22.6600842,43.3460921 22.5324347,43.33575 C22.4139348,43.32825 22.3044349,43.302 22.1236851,43.4077499 C21.9459353,43.5112499 21.9121853,43.6177499 21.8589354,43.7257499 C21.8019346,43.8428396 21.7528251,43.9636088 21.7119355,44.0872499 C21.6204356,44.3564999 21.5334357,44.6819999 21.4471858,45.0059999 C21.3609359,45.3299999 21.275436,45.6524999 21.2011861,45.9007499 C21.1715427,46.0020892 21.1377645,46.1021729 21.0999362,46.2007498 C21.0901862,46.2247498 21.0819362,46.2359998 21.0736862,46.2509998 C21.0594362,46.2584998 21.0504362,46.2659998 21.0294363,46.2742498 C20.9604363,46.3012498 20.8569364,46.3342498 20.7346866,46.3694998 C20.4916868,46.4392498 20.1759371,46.5179998 19.8571875,46.5982498 C19.5391878,46.6784998 19.2211881,46.7602498 18.9571884,46.8472498 C18.8349441,46.8853738 18.715421,46.9317298 18.5994388,46.9859998 C18.4921889,47.0384998 18.384939,47.0699998 18.2814391,47.2514998 C18.1794392,47.4307498 18.2019392,47.5402498 18.2094392,47.6602498 C18.2169392,47.7802498 18.2379392,47.9077498 18.2656891,48.0464998 C18.3204391,48.3254998 18.406689,48.6502498 18.4936889,48.9742498 C18.5814388,49.2974997 18.6691887,49.6192497 18.7284387,49.8719997 C18.7584386,49.9979997 18.7809386,50.1067497 18.7914386,50.1824997 C18.7944386,50.2072497 18.7929386,50.2214997 18.7929386,50.2379997 C18.7854386,50.2522497 18.7801886,50.2634997 18.7659386,50.2807497 C18.7004417,50.3603527 18.6316312,50.4371703 18.5596888,50.5109997 C18.384189,50.6932497 18.1494393,50.9182497 17.9139395,51.1462497 C17.6784398,51.3749997 17.44294,51.6059997 17.2576902,51.8129996 C17.1709754,51.906909 17.0907882,52.0066419 17.0176904,52.1114996 C16.9501905,52.2104996 16.8744406,52.2944996 16.8751851,52.5029996 C16.8759406,52.7092496 16.9501905,52.7909996 17.0176904,52.8907496 C17.0836904,52.9912496 17.1654403,53.0917496 17.2591902,53.1982496 C17.44594,53.4119996 17.6821898,53.6504996 17.9191895,53.8874996 C18.1569393,54.1237496 18.395439,54.3577496 18.5731888,54.5467496 C18.6616887,54.6404995 18.7351887,54.7244995 18.7824386,54.7852495 C18.7974386,54.8047495 18.8034386,54.8174995 18.8116886,54.8317495 C18.8116886,54.8482495 18.8139386,54.8609995 18.8101886,54.8834995 C18.7929262,54.9848596 18.7714072,55.0854485 18.7456886,55.1849995 C18.6849387,55.4302495 18.5934388,55.7437495 18.5041889,56.0594995 C18.414189,56.3752495 18.3271891,56.6924995 18.2694391,56.9647495 C18.2413125,57.0892624 18.2217666,57.2155593 18.2109392,57.3427495 C18.2034392,57.4612494 18.1779392,57.5707494 18.2829391,57.7514994 C18.386439,57.9292494 18.4929389,57.9644994 18.6009388,58.0177494 C18.7089387,58.0717494 18.8281886,58.1174994 18.9624384,58.1632494 C19.2309381,58.2547494 19.5549378,58.3432494 19.8796875,58.4294994 C20.2036871,58.5157494 20.5261868,58.5997494 20.7744365,58.6739994 C20.8989364,58.7114994 21.0054363,58.7467494 21.0766862,58.7752494 C21.0991862,58.7842494 21.1104362,58.7932494 21.1246862,58.8014994 C21.1321862,58.8149994 21.1396861,58.8247494 21.1479361,58.8457494 C21.1749361,58.9147494 21.2079361,59.0182494 21.243186,59.1404994 C21.313686,59.3834994 21.3916859,59.6992494 21.4719358,60.0179994 C21.5521857,60.3359993 21.6346856,60.6554993 21.7209355,60.9202493 C21.7644355,61.0522493 21.8079354,61.1707493 21.8596854,61.2772493 C21.9121853,61.3844993 21.9451853,61.4917493 22.1266851,61.5952493 C22.3059349,61.6972493 22.4154348,61.6724993 22.5354347,61.6657493 C22.6554346,61.6582493 22.7814344,61.6379993 22.9209343,61.6109993 C23.198434,61.5554993 23.5239337,61.4699993 23.8479333,61.3829993 C24.171933,61.2952493 24.4929326,61.2059993 24.7456824,61.1467493 C24.8716822,61.1174993 24.9819321,61.0957493 25.057682,61.0852493 C25.083182,61.0822493 25.098932,61.0837493 25.116182,61.0837493 C25.129682,61.0912493 25.140182,61.0957493 25.1559319,61.1092493 C25.2136819,61.1557493 25.2931818,61.2292493 25.3846817,61.3169993 C25.5669315,61.4924993 25.7926813,61.7264993 26.022181,61.9619993 C26.2501808,62.1967493 26.4811806,62.4322493 26.6881803,62.6174993 C26.7916802,62.7104993 26.8884301,62.7914993 26.98668,62.8574993 C27.0856799,62.9249993 27.1666798,63 27.3751851,63 C27.3756796,63 27.3761796,63 27.3766796,63 C27.5829294,63 27.6661793,62.9249993 27.7666792,62.8574993 C27.8664291,62.7914993 27.965429,62.7112493 28.0726789,62.6174993 C28.2856787,62.4299993 28.5256784,62.1929993 28.7626782,61.9552493 C28.9989279,61.7182493 29.2329277,61.4812493 29.4219275,61.3034993 C29.5156774,61.2149993 29.5996773,61.1414993 29.6604272,61.0942493 C29.6799272,61.0792493 29.6934272,61.0717493 29.7084272,61.0634993 C29.7241772,61.0634993 29.7354272,61.0619993 29.7571771,61.0664993 C29.8299271,61.0777493 29.935677,61.1002493 30.0586768,61.1309993 C30.3039266,61.1909993 30.6189262,61.2809993 30.9346759,61.3709993 C31.2504256,61.4609993 31.5661753,61.5494993 31.838425,61.6072493 C31.9749248,61.6357493 32.0994247,61.6559993 32.2179246,61.6642493 C32.3364244,61.6717493 32.4459243,61.6994993 32.6266741,61.5937493 C32.804424,61.4902493 32.8381739,61.3837493 32.8914239,61.2757493 C32.9454238,61.1677493 32.9926738,61.0469993 33.0384237,60.9127493 C33.1299236,60.6434993 33.2169235,60.3202493 33.3031734,59.9954994 C33.3894233,59.6714994 33.4749233,59.3482494 33.5491732,59.1007494 C33.5866731,58.9762494 33.6219231,58.8712494 33.6504231,58.8007494 C33.6594231,58.7774994 33.6669231,58.7654994 33.675173,58.7504994 C33.689423,58.7429994 33.699173,58.7354994 33.720173,58.7272494 C33.7899229,58.7002494 33.8941728,58.6672494 34.0156727,58.6319994 C34.2586724,58.5622494 34.5744221,58.4834994 34.8931718,58.4032494 C35.2111714,58.3229994 35.5291711,58.2404994 35.7931708,58.1542494 C35.9259207,58.1107494 36.0444206,58.0672494 36.1509205,58.0154994 C36.2581703,57.9629994 36.3654202,57.9299994 36.4689201,57.7484994 C36.57092,57.5692494 36.54842,57.4612494 36.5409201,57.3412495 C36.5334201,57.2212495 36.5124201,57.0937495 36.4846701,56.9542495 C36.4185628,56.6429 36.342524,56.3337423 36.2566704,56.0272495 C36.1689204,55.7032495 36.0811705,55.3822495 36.0219206,55.1294995 C35.9967259,55.0268951 35.9757086,54.9233097 35.9589207,54.8189995 C35.9559207,54.7949995 35.9574207,54.7799995 35.9574207,54.7634995 C35.9649207,54.7492495 35.9701707,54.7387495 35.9844206,54.7207495 C36.0499175,54.6411466 36.1187281,54.5643289 36.1906704,54.4904996 C36.3661702,54.3082496 36.60092,54.0824996 36.8364197,53.8529996 C37.0719195,53.6249996 37.3074193,53.3939996 37.4926691,53.1869996 C37.585669,53.0834996 37.6666689,52.9867496 37.7326688,52.8884996 C37.8001687,52.7894996 37.8759187,52.7069996 37.8751742,52.4984996 C37.8744187,52.2922496 37.8001687,52.2104996 37.7326688,52.1099996 C37.6590743,52.0022596 37.5783964,51.8995329 37.4911691,51.8024996 C37.3044193,51.5894997 37.0681695,51.3509997 36.8311698,51.1139997 C36.59342,50.8777497 36.3549202,50.6422497 36.1771704,50.4539997 C36.1042135,50.3776309 36.0344054,50.2983148 35.9679207,50.2162497 C35.9529207,50.1967497 35.9469207,50.1839997 35.9386707,50.1697497 C35.9386707,50.1532497 35.9364207,50.1404997 35.9401707,50.1179997 C35.9514207,50.0444997 35.9739206,49.9394997 36.0046706,49.8164997 C36.0654206,49.5712497 36.1569205,49.2577497 36.2461704,48.9419998 C36.3361703,48.6262498 36.4231702,48.3089998 36.4809201,48.0367498 C36.5090427,47.9117302 36.5285883,47.7849348 36.5394201,47.6572498 C36.54692,47.5387498 36.57242,47.4292498 36.4674201,47.2484998 C36.3639202,47.0707498 36.2574204,47.0369998 36.1494205,46.9837498 C36.0323335,46.9271669 35.9115588,46.8785563 35.7879208,46.8382498 C35.5194211,46.7467498 35.1954215,46.6582498 34.8706718,46.5719998 C34.5466721,46.4857498 34.2241725,46.4017498 33.9759227,46.3274998 C33.8738981,46.2976817 33.773072,46.2639062 33.673673,46.2262498 C33.6511731,46.2164998 33.6391731,46.2082498 33.6241731,46.1999998 C33.6166731,46.1864999 33.6099231,46.1774999 33.6016731,46.1572499 C33.5661049,46.0603509 33.5345777,45.9620162 33.5071732,45.8624999 C33.4366733,45.6194999 33.3586734,45.3022499 33.2784235,44.9842499 C33.2052672,44.6811174 33.1222229,44.3804569 33.0294237,44.0827499 C32.9913663,43.960726 32.9450081,43.8414477 32.8906739,43.7257499 C32.8381739,43.6184999 32.805174,43.5112499 32.6236741,43.4077499 C32.4444243,43.30575 32.3349244,43.329 32.2149246,43.33575 C32.0949247,43.34325 31.9689248,43.3635 31.829425,43.3905 C31.5519253,43.4459999 31.2264256,43.5314999 30.9024259,43.6184999 C30.5784263,43.7062499 30.2574266,43.7954999 30.0046769,43.8547499 C29.9015754,43.8795704 29.7974854,43.9000881 29.6926772,43.9162499 C29.6671772,43.9192499 29.6529272,43.9192499 29.6356773,43.9192499 C29.6221773,43.9109999 29.6109273,43.9064999 29.5944273,43.8922499 C29.5154086,43.8266344 29.4390954,43.7578274 29.3656775,43.6859999 C29.1834277,43.5104999 28.957678,43.275 28.7281782,43.04025 C28.5133369,42.814836 28.2912197,42.5964705 28.0621789,42.3855 C27.9682136,42.2988502 27.8684853,42.2186666 27.7636792,42.1455 C27.6646793,42.078 27.5836794,42.0015 27.3751851,42.0015 C27.3746796,42.001499 27.3741796,42.001499 27.3736796,42.0015 L27.3736796,42 L27.3736796,42 Z M27.3721796,42.7875 C27.4216796,42.82425 27.4839295,42.87225 27.5611794,42.942 C27.7396792,43.10175 27.964679,43.329 28.1911788,43.5614999 C28.4176785,43.7939999 28.6456783,44.0324999 28.8459281,44.2252499 C28.945678,44.3212499 29.0371779,44.4059999 29.1256778,44.4772499 C29.2141777,44.5477499 29.2756776,44.6107499 29.4376775,44.6542499 C29.5981773,44.6969999 29.6844272,44.6744999 29.7976771,44.6617499 C29.911677,44.6452499 30.0376768,44.6182499 30.1756767,44.5852499 C30.4516764,44.5207499 30.7771761,44.4314999 31.0974257,44.3452499 C31.4176754,44.2589999 31.7334251,44.1749999 31.9749248,44.1269999 C32.0821747,44.1059999 32.1661746,44.0947499 32.2299246,44.0894999 C32.2546745,44.1442499 32.2839245,44.2169999 32.3161745,44.3159999 C32.3911744,44.5432499 32.4706743,44.8537499 32.5501742,45.1687499 C32.6296741,45.4837499 32.7091741,45.8039999 32.786424,46.0709999 C32.8246739,46.2044998 32.8621739,46.3237498 32.9034239,46.4294998 C32.9446738,46.5352498 32.9664238,46.6199998 33.0849237,46.7384998 C33.2026735,46.8562498 33.2874235,46.8809998 33.3939233,46.9229998 C33.5011732,46.9657498 33.6234231,47.0054998 33.759173,47.0467498 C34.0306727,47.1284998 34.3569223,47.2132498 34.677172,47.2979998 C34.9981717,47.3834998 35.3131713,47.4704998 35.5464211,47.5499998 C35.649171,47.5852498 35.7264209,47.6174998 35.7849208,47.6437498 C35.7767516,47.7243667 35.7642333,47.8044834 35.7474209,47.8837498 C35.6818728,48.171015 35.6073362,48.456155 35.5239211,48.7387498 C35.4354212,49.0507497 35.3439213,49.3687497 35.2764214,49.6379997 C35.2434214,49.7729997 35.2164214,49.8944997 35.1991715,50.0069997 C35.1819215,50.1194997 35.1586715,50.2034997 35.2021715,50.3654997 C35.2449214,50.5259997 35.3071713,50.5904997 35.3776713,50.6804997 C35.4489212,50.7712497 35.5336711,50.8657497 35.631171,50.9692497 C35.8254208,51.1754997 36.0654206,51.4117497 36.3001703,51.6457497 C36.5356701,51.8804996 36.7651698,52.1144996 36.9271697,52.2989996 C36.9991696,52.3814996 37.0501695,52.4474996 37.0869195,52.4999996 C37.0516695,52.5494996 37.0044196,52.6124996 36.9346696,52.6889996 C36.7749198,52.8667496 36.54767,53.0909996 36.3151703,53.3174996 C36.0826705,53.5439996 35.8426708,53.7719996 35.649921,53.9722496 C35.5617615,54.0621877 35.4776772,54.1560319 35.3979212,54.2534996 C35.3274213,54.3419996 35.2644214,54.4034996 35.2209214,54.5654996 C35.1781715,54.7259995 35.1999215,54.8114995 35.2164214,54.9254995 C35.2329214,55.0394995 35.2591714,55.1639995 35.2914214,55.3019995 C35.3559213,55.5779995 35.4466712,55.9034995 35.5329211,56.2237495 C35.619171,56.5439995 35.7016709,56.8612495 35.7496709,57.1027495 C35.7706709,57.2092495 35.7819208,57.2924995 35.7871708,57.3562495 C35.7324209,57.3817495 35.659671,57.4117494 35.5606711,57.4439994 C35.3334213,57.5182494 35.0244216,57.5984994 34.709422,57.6779994 C34.3944223,57.7574994 34.0741726,57.8354994 33.8071729,57.9127494 C33.6859639,57.9463036 33.5663408,57.9853438 33.4486733,58.0297494 C33.3429234,58.0709994 33.2566735,58.0927494 33.1381736,58.2112494 C33.0204237,58.3289994 32.9979238,58.4152494 32.9544238,58.5217494 C32.9075925,58.6411087 32.8660521,58.7624768 32.8299239,58.8854994 C32.748174,59.1562494 32.6634241,59.4832494 32.5786742,59.8034994 C32.4931743,60.1244994 32.4069244,60.4409993 32.3281745,60.6734993 C32.2929245,60.7777493 32.2599245,60.8542493 32.2329246,60.9127493 C32.1721746,60.9052493 32.0949247,60.8962493 31.9936748,60.8744993 C31.7064529,60.8090568 31.4213176,60.7347715 31.1386757,60.6517493 C30.825926,60.5632493 30.5101764,60.4717493 30.2401766,60.4042493 C30.117874,60.3730587 29.9942537,60.3472836 29.869677,60.3269993 C29.7571771,60.3097493 29.6731772,60.2849993 29.5111774,60.3269993 C29.3506776,60.3697493 29.2876776,60.4327493 29.1976777,60.5039993 C29.0973167,60.5842733 29.0004762,60.6688524 28.907428,60.7574993 C28.7011782,60.9509993 28.4649285,61.1917493 28.2309287,61.4264993 C27.996179,61.6619993 27.7636792,61.8914993 27.5784294,62.0534993 C27.4959295,62.1254993 27.4284296,62.1764993 27.3766796,62.2132493 C27.3115646,62.1652741 27.2489806,62.1139552 27.1891798,62.0594993 C26.972743,61.8596492 26.7626395,61.6530472 26.5591805,61.4399993 C26.3326807,61.2074993 26.104681,60.9689993 25.9044312,60.7762493 C25.8149746,60.6881315 25.7216319,60.604048 25.6246815,60.5242493 C25.5361815,60.4537493 25.4746816,60.3892493 25.3126818,60.3457493 C25.152182,60.3029993 25.065932,60.3262493 24.9526822,60.3457493 C24.8386823,60.3622493 24.7126824,60.3877493 24.5746826,60.4207493 C24.2986828,60.4852493 23.9731832,60.5744993 23.6529335,60.6607493 C23.3326839,60.7469993 23.0169342,60.8294993 22.7754344,60.8774993 C22.6911256,60.8948554 22.6060261,60.908121 22.5204347,60.9172493 C22.4876353,60.8430988 22.4588439,60.7672394 22.4341848,60.6899993 C22.3591849,60.4627493 22.279685,60.1537494 22.200185,59.8387494 C22.1206851,59.5237494 22.0411852,59.2034994 21.9639353,58.9364994 C21.9302946,58.8153163 21.8912557,58.695697 21.8469354,58.5779994 C21.8056854,58.4722494 21.7839355,58.3874994 21.6654356,58.2682494 C21.5476857,58.1512494 21.4629358,58.1272494 21.3564359,58.0837494 C21.236495,58.0375617 21.1146338,57.9965242 20.9911863,57.9607494 C20.7196866,57.8789994 20.3934369,57.7942494 20.0731873,57.7087494 C19.7521876,57.6232494 19.4371879,57.5362494 19.2039382,57.4567494 C19.1228532,57.4296926 19.0432438,57.3983996 18.9654384,57.3629995 C18.9714384,57.3029995 18.9819384,57.2242495 19.0029384,57.1229995 C19.0524383,56.8889995 19.1379382,56.5814995 19.2264381,56.2687495 C19.314938,55.9567495 19.406438,55.6387495 19.4739379,55.3694995 C19.5069378,55.2344995 19.5339378,55.1122495 19.5511878,55.0004995 C19.5684378,54.8879995 19.5916878,54.8039995 19.5481878,54.6412495 C19.5054378,54.4807496 19.4431879,54.4169996 19.372688,54.3262496 C19.2924039,54.2266193 19.2078241,54.1305285 19.1191883,54.0382496 C18.9249385,53.8312496 18.6849387,53.5957496 18.450189,53.3609996 C18.2146892,53.1269996 17.9851894,52.8929996 17.8231896,52.7084996 C17.7663503,52.6444325 17.7130223,52.5773343 17.6634398,52.5074996 C17.6986897,52.4579996 17.7459397,52.3949996 17.8156896,52.3184996 C17.9754394,52.1399996 18.2026892,51.9164996 18.435189,51.6899997 C18.6676887,51.4634997 18.9076885,51.2354997 19.1004383,51.0352497 C19.1964382,50.9347497 19.2811881,50.8424997 19.352438,50.7539997 C19.4229379,50.6654997 19.4859379,50.6039997 19.5294378,50.4419997 C19.5721878,50.2814997 19.5504378,50.1952497 19.5339378,50.0819997 C19.5144711,49.9552127 19.4894471,49.8293415 19.4589379,49.7047497 C19.394438,49.4294997 19.3036881,49.1047497 19.2174382,48.7837498 C19.1361945,48.493041 19.0639104,48.1999025 19.0006884,47.9047498 C18.9836659,47.8209809 18.971148,47.7363594 18.9631884,47.6512498 C19.0179384,47.6257498 19.0906883,47.5957498 19.1896882,47.5634998 C19.4169379,47.4892498 19.7259376,47.4082498 20.0409373,47.3287498 C20.355937,47.2499998 20.6761866,47.1712498 20.9431863,47.0947498 C21.0643954,47.0611956 21.1840184,47.0221554 21.301686,46.9777498 C21.4074359,46.9364998 21.4936858,46.9147498 21.6121856,46.7962498 C21.7299355,46.6784998 21.7524355,46.5922498 21.7959355,46.4849998 C21.8386854,46.3784998 21.8791854,46.2577498 21.9204353,46.1219999 C22.0021852,45.8504999 22.0869352,45.5242499 22.1716851,45.2032499 C22.257185,44.8829999 22.3434349,44.5657499 22.4221848,44.3332499 C22.4574348,44.2297499 22.4904347,44.1532499 22.5174347,44.0947499 C22.5781846,44.1022499 22.6554346,44.1112499 22.7566845,44.1322499 C22.9906842,44.1824999 23.2996839,44.2672499 23.6116836,44.3557499 C23.9244332,44.4442499 24.2401829,44.5357499 24.5101826,44.6032499 C24.6451825,44.6362499 24.7681824,44.6632499 24.8806822,44.6804999 C24.9931821,44.6977499 25.077182,44.7224999 25.2391819,44.6804999 C25.3996817,44.6377499 25.4626816,44.5747499 25.5526815,44.5034999 C25.6530426,44.423226 25.749883,44.3386469 25.8429312,44.2499999 C26.049181,44.0557499 26.2854308,43.8149999 26.5194305,43.5802499 C26.7541803,43.3455 26.98668,43.11525 27.1719298,42.95325 C27.2536798,42.88125 27.3196797,42.83025 27.3721796,42.79425 L27.3721796,42.7875 Z M27.5221795,46.1699999 C24.2907917,46.0967509 21.5228812,48.4689709 21.1006862,51.6734997 C20.7076079,54.6672979 22.4820264,57.5224416 25.3404318,58.4954994 C28.2001375,59.4644475 31.3462052,58.2800407 32.8569239,55.6657495 C32.9249805,55.5496606 32.9256176,55.406006 32.8585933,55.289318 C32.7915691,55.17263 32.6671604,55.1008004 32.5325936,55.1010962 C32.3980268,55.1013921 32.2739351,55.173768 32.2074246,55.2907495 C30.8771049,57.5975733 28.1016739,58.6422873 25.5804315,57.7852494 C23.0585775,56.9302022 21.4930072,54.4115917 21.8424354,51.7717497 C22.1887947,49.131801 24.3529783,47.1048793 27.00993,46.9319998 C29.6674179,46.7564049 32.078305,48.4840782 32.766174,51.0569997 C32.7948299,51.1929789 32.8963335,51.3019622 33.0299356,51.3401977 C33.1635377,51.3784332 33.3073301,51.339651 33.4035866,51.2394203 C33.4998431,51.1391897 33.5327795,50.9939467 33.4891732,50.8619997 C32.7602354,48.1479549 30.3308464,46.2382096 27.5214295,46.1707499 L27.5221795,46.1699999 Z M31.1176757,50.4187497 L31.1176757,50.4202497 C31.0459512,50.4173019 30.9748877,50.4350028 30.9129259,50.4712497 L25.2631818,53.6962496 L23.9724332,51.4859997 C23.9074647,51.3652782 23.7817973,51.289631 23.6447071,51.2887205 C23.5076169,51.28781 23.3809559,51.3617813 23.3143896,51.4816292 C23.2478233,51.6014771 23.2519624,51.7480979 23.3251839,51.8639996 L24.8026823,54.3952496 C24.9064275,54.5729834 25.1340266,54.6338996 25.3126818,54.5317496 L31.2849255,51.1214997 C31.4321212,51.0399573 31.5069766,50.8703485 31.468017,50.7066478 C31.4290573,50.5429472 31.2858231,50.4252424 31.1176757,50.4187497 L31.1176757,50.4187497 Z M33.2319235,53.3542496 C33.1429777,53.357684 33.0687054,53.4231816 33.0541737,53.5109996 C33.0134437,53.7385528 32.9590961,53.9634569 32.8914239,54.1844996 C32.8719976,54.2486734 32.8882832,54.3183363 32.9341462,54.3672469 C32.9800091,54.4161575 33.0484817,54.4368851 33.113771,54.4216219 C33.1790603,54.4063586 33.2312472,54.3574234 33.2506735,54.2932496 C33.3226734,54.0577496 33.3804234,53.8192496 33.4231733,53.5769996 C33.4339632,53.520853 33.4185461,53.4628514 33.3813017,53.4194727 C33.3440574,53.376094 33.2890562,53.3520787 33.2319235,53.3542496 L33.2319235,53.3542496 Z" id="Shape" transform="translate(27.3752, 52.5) rotate(-5) translate(-27.3752, -52.5)"></path>
            </g>
        </g>
    </g>
</svg>