<?xml version="1.0" encoding="UTF-8"?>
<svg width="13px" height="14px" viewBox="0 0 13 14" version="1.1" xmlns="http://www.w3.org/2000/svg" xmlns:xlink="http://www.w3.org/1999/xlink">
    <title>Shape@3x</title>
    <g id="Symbols" stroke="none" stroke-width="1" fill="none" fill-rule="evenodd">
        <g id="menu" transform="translate(-19, -341)" fill="#0E7ECA" fill-rule="nonzero">
            <g id="Group-18" transform="translate(19, 341)">
                <path d="M8.17916667,7.39487179 C9.35277778,6.67692308 10.1111111,5.25897436 10.1111111,3.94871795 C10.1111111,2.08205128 8.57638889,0 6.5,0 C4.42361111,0 2.88888889,2.08205128 2.88888889,3.94871795 C2.88888889,5.25897436 3.64722222,6.67692308 4.82083333,7.39487179 C2.04027778,8.13076923 0,10.6615385 0,13.6410256 C0,13.8384615 0.1625,14 0.361111111,14 L12.6388889,14 C12.8375,14 13,13.8384615 13,13.6410256 C13,10.6615385 10.9597222,8.13076923 8.17916667,7.39487179 Z M3.61111111,3.94871795 C3.61111111,2.1 5.14583333,0.717948718 6.5,0.717948718 C7.85416667,0.717948718 9.38888889,2.1 9.38888889,3.94871795 C9.38888889,5.7974359 7.85416667,7.17948718 6.5,7.17948718 C5.14583333,7.17948718 3.61111111,5.7974359 3.61111111,3.94871795 Z M0.740277778,13.2820513 C0.920833333,10.2846154 3.44861111,7.8974359 6.5,7.8974359 C9.55138889,7.8974359 12.0791667,10.2846154 12.2597222,13.2820513 L0.740277778,13.2820513 Z" id="Shape"></path>
            </g>
        </g>
    </g>
</svg>