<svg xmlns="http://www.w3.org/2000/svg" xmlns:xlink="http://www.w3.org/1999/xlink" version="1.1" viewBox="0 0 19.99 17.82">
    <title>Combined Shape@3x</title>
    <g id="Notification" stroke="none" stroke-width="1" fill="none" fill-rule="evenodd">
        <g id="Notification---New-schedule" transform="translate(-667.5, -428.5469)" fill="#373737" fill-rule="nonzero">
            <g id="Group-12" transform="translate(245, 171.5)">
                <g id="Group-2-Copy-9" transform="translate(40, 210)">
                    <g id="845998" transform="translate(382.5, 47)">
                        <path d="M16.1458333,0.046875 C16.4322917,0.046875 16.6666667,0.28125 16.6666667,0.567708333 L16.6666667,1.5625 L17.921875,1.5625 C19.0677083,1.5625 20,2.52604167 19.9948134,3.671875 L19.9948134,15.7864583 C19.9948134,16.9322917 19.0677083,17.8645833 17.9166667,17.8645833 L2.078125,17.8645833 C0.927083333,17.8645833 0,16.9322917 0,15.78125 L0,3.671875 C0,2.52604167 0.932291667,1.5625 2.078125,1.5625 L3.28125,1.5625 L3.28125,0.567708333 C3.28125,0.28125 3.515625,0.046875 3.80208333,0.046875 C4.08854167,0.046875 4.32291667,0.28125 4.32291667,0.567708333 L4.32291667,1.5625 L9.47916667,1.5625 L9.47916667,0.567708333 C9.47916667,0.28125 9.71354167,0.046875 10,0.046875 C10.2864583,0.046875 10.5208333,0.28125 10.5208333,0.567708333 L10.5208333,1.5625 L15.625,1.5625 L15.625,0.567708333 C15.625,0.28125 15.859375,0.046875 16.1458333,0.046875 Z M3.28125,2.60416667 L2.078125,2.60416667 C1.50520833,2.60416667 1.04166667,3.09375 1.04166667,3.671875 L1.04166667,15.7864583 C1.04166667,16.359375 1.50520833,16.8229167 2.078125,16.8229167 L17.9270833,16.8229167 C18.5,16.8177083 18.9583333,16.3541667 18.9583333,15.78125 L18.9583333,3.671875 C18.9583333,3.09895833 18.5,2.60416667 17.921875,2.60416667 L16.6666667,2.60416667 L16.6666667,3.359375 C16.6666667,3.64583333 16.4322917,3.88020833 16.1458333,3.88020833 C15.859375,3.88020833 15.625,3.64583333 15.625,3.359375 L15.625,2.60416667 L10.5208333,2.60416667 L10.5208333,3.359375 C10.5208333,3.64583333 10.2864583,3.88020833 10,3.88020833 C9.71354167,3.88020833 9.47916667,3.64583333 9.47916667,3.359375 L9.47916667,2.60416667 L4.32291667,2.60416667 L4.32291667,3.359375 C4.32291667,3.64583333 4.08854167,3.88020833 3.80208333,3.88020833 C3.515625,3.88020833 3.28125,3.64583333 3.28125,3.359375 L3.28125,2.60416667 Z M8.63020833,13.125 C8.91666667,13.125 9.15104167,13.359375 9.15104167,13.6458333 C9.15104167,13.9322917 8.91666667,14.1666667 8.63020833,14.1666667 L7.71875,14.1666667 C7.43229167,14.1666667 7.19791667,13.9322917 7.19791667,13.6458333 C7.19791667,13.359375 7.43229167,13.125 7.71875,13.125 Z M4.97916667,13.125 C5.265625,13.125 5.49479167,13.359375 5.49479167,13.6458333 C5.49479167,13.9322917 5.26041667,14.1666667 4.97395833,14.1666667 L4.0625,14.1666667 C3.77604167,14.1666667 3.54166667,13.9322917 3.54166667,13.6458333 C3.54166667,13.359375 3.77604167,13.125 4.0625,13.125 Z M12.2552083,13.125 C12.546875,13.125 12.7760417,13.359375 12.7760417,13.6458333 C12.7760417,13.9322917 12.5416667,14.1666667 12.2552083,14.1666667 L11.34375,14.1666667 C11.0572917,14.1666667 10.8229167,13.9322917 10.8229167,13.6458333 C10.8229167,13.359375 11.0572917,13.125 11.34375,13.125 Z M8.63020833,9.58333333 C8.91666667,9.58333333 9.15104167,9.81770833 9.15104167,10.1041667 C9.15104167,10.390625 8.91666667,10.625 8.63020833,10.625 L7.71875,10.625 C7.43229167,10.625 7.19791667,10.390625 7.19791667,10.1041667 C7.19791667,9.81770833 7.43229167,9.58333333 7.71875,9.58333333 Z M4.97916667,9.58333333 C5.265625,9.58333333 5.49479167,9.81770833 5.49479167,10.1041667 C5.49479167,10.390625 5.26041667,10.625 4.97395833,10.625 L4.0625,10.625 C3.77604167,10.625 3.54166667,10.390625 3.54166667,10.1041667 C3.54166667,9.81770833 3.77604167,9.58333333 4.0625,9.58333333 Z M12.2552083,9.58333333 C12.546875,9.58333333 12.7760417,9.81770833 12.7760417,10.1041667 C12.7760417,10.390625 12.5416667,10.625 12.2552083,10.625 L11.34375,10.625 C11.0572917,10.625 10.8229167,10.390625 10.8229167,10.1041667 C10.8229167,9.81770833 11.0572917,9.58333333 11.34375,9.58333333 Z M15.9114583,9.58333333 C16.1979167,9.58333333 16.4322917,9.81770833 16.4322917,10.1041667 C16.4322917,10.390625 16.1979167,10.625 15.9114583,10.625 L15,10.625 C14.7135417,10.625 14.4791667,10.390625 14.4791667,10.1041667 C14.4791667,9.81770833 14.7135417,9.58333333 15,9.58333333 Z M8.63020833,5.98958333 C8.91666667,5.98958333 9.15104167,6.22395833 9.15104167,6.51041667 C9.15104167,6.796875 8.91666667,7.03125 8.63020833,7.03125 L7.71875,7.03125 C7.43229167,7.03125 7.19791667,6.796875 7.19791667,6.51041667 C7.19791667,6.22395833 7.43229167,5.98958333 7.71875,5.98958333 Z M12.2552083,5.98958333 C12.546875,5.98958333 12.7760417,6.22395833 12.7760417,6.51041667 C12.7760417,6.796875 12.5416667,7.03125 12.2552083,7.03125 L11.34375,7.03125 C11.0572917,7.03125 10.8229167,6.796875 10.8229167,6.51041667 C10.8229167,6.22395833 11.0572917,5.98958333 11.34375,5.98958333 Z M15.9114583,5.98958333 C16.1979167,5.98958333 16.4322917,6.22395833 16.4322917,6.51041667 C16.4322917,6.796875 16.1979167,7.03125 15.9114583,7.03125 L15,7.03125 C14.7135417,7.03125 14.4791667,6.796875 14.4791667,6.51041667 C14.4791667,6.22395833 14.7135417,5.98958333 15,5.98958333 Z" id="Combined-Shape"/>
                    </g>
                </g>
            </g>
        </g>
    </g>
</svg>