<svg xmlns="http://www.w3.org/2000/svg" xmlns:xlink="http://www.w3.org/1999/xlink" version="1.1" viewBox="0 0 20 20">
    <title>Combined Shape@3x</title>
    <g id="Notification" stroke="none" stroke-width="1" fill="none" fill-rule="evenodd">
        <g id="Notification---New-schedule" transform="translate(-1120.5, -427)" fill="#373737" fill-rule="nonzero">
            <g id="Group-12" transform="translate(245, 171.5)">
                <g id="Group-2-Copy-10" transform="translate(490, 210)">
                    <g id="1827463" transform="translate(385.5, 45.5)">
                        <path d="M10,0 C15.5142212,0 20,4.48577883 20,10 C20,15.5142212 15.5142212,20 10,20 C4.48577883,20 0,15.5142212 0,10 C0,4.48577883 4.48577883,0 10,0 Z M10,1.25 C5.17501832,1.25 1.25,5.17501832 1.25,10 C1.25,14.8249817 5.17501832,18.75 10,18.75 C14.8249817,18.75 18.75,14.8249817 18.75,10 C18.75,5.17501832 14.8249817,1.25 10,1.25 Z M10,3.95828246 C10.3450012,3.95828246 10.625,4.23828125 10.625,4.58328246 L10.625,10.1574707 L14.816742,14.3492127 C15.0608826,14.5933533 15.0608826,14.9891662 14.816742,15.2333069 C14.6949768,15.355835 14.5350647,15.4167175 14.375,15.4167175 C14.2149353,15.4167175 14.0550232,15.355835 13.933258,15.2333069 L9.55825805,10.8583069 C9.44076539,10.7408142 9.375,10.581665 9.375,10.4167175 L9.375,4.58328246 C9.375,4.23828125 9.65499879,3.95828246 10,3.95828246 Z" id="Combined-Shape"/>
                    </g>
                </g>
            </g>
        </g>
    </g>
</svg>