<?xml version="1.0" encoding="UTF-8"?>
<svg width="13.3px" height="17.3px" viewBox="0 0 13.3 17.3" version="1.1" xmlns="http://www.w3.org/2000/svg" xmlns:xlink="http://www.w3.org/1999/xlink">
    <title>Document@3x</title>
    <g id="Symbols" stroke="none" stroke-width="1" fill="none" fill-rule="evenodd">
        <g id="menu" transform="translate(-18.85, -180.85)" fill="#0E7ECA" fill-rule="nonzero" stroke="#0E7ECA" stroke-width="0.3">
            <g id="Document" transform="translate(19, 181)">
                <path d="M0.8125,17 L12.1875,17 C12.6354583,17 13,16.6424687 13,16.203125 L13,5.046875 C13,5.03784375 12.9956667,5.03040625 12.995125,5.02190625 C12.9940417,5.0096875 12.9907917,4.9990625 12.9880833,4.987375 C12.979578,4.95046822 12.9629385,4.91583476 12.9393333,4.88590625 C12.9355417,4.881125 12.9360833,4.87528125 12.9322917,4.8705 L8.59895833,0.08925 C8.59733333,0.08765625 8.59516667,0.08765625 8.59354167,0.0860625 C8.56048645,0.0521742667 8.51877603,0.0275925985 8.47275,0.014875 C8.46245833,0.0116875 8.45325,0.010625 8.44241667,0.00903125 C8.42670833,0.006375 8.41208333,0 8.39583333,0 L0.8125,0 C0.364541667,0 0,0.35753125 0,0.796875 L0,16.203125 C0,16.6424687 0.364541667,17 0.8125,17 Z M8.66666667,0.96421875 L12.1262917,4.78125 L8.9375,4.78125 C8.81833333,4.78125 8.66666667,4.558125 8.66666667,4.3828125 L8.66666667,0.96421875 Z M0.541666667,0.796875 C0.541666667,0.650174363 0.66292288,0.53125 0.8125,0.53125 L8.125,0.53125 L8.125,4.3828125 C8.125,4.81259375 8.47979167,5.3125 8.9375,5.3125 L12.4583333,5.3125 L12.4583333,16.203125 C12.4583333,16.3498256 12.3370771,16.46875 12.1875,16.46875 L0.8125,16.46875 C0.660833333,16.46875 0.541666667,16.351875 0.541666667,16.203125 L0.541666667,0.796875 Z" id="Shape"></path>
                <path d="M2.97916667,7.4375 L10.0208333,7.4375 C10.1704105,7.4375 10.2916667,7.31857564 10.2916667,7.171875 C10.2916667,7.02517436 10.1704105,6.90625 10.0208333,6.90625 L2.97916667,6.90625 C2.82958955,6.90625 2.70833333,7.02517436 2.70833333,7.171875 C2.70833333,7.31857564 2.82958955,7.4375 2.97916667,7.4375 Z M2.97916667,9.5625 L10.0208333,9.5625 C10.1704105,9.5625 10.2916667,9.44357564 10.2916667,9.296875 C10.2916667,9.15017436 10.1704105,9.03125 10.0208333,9.03125 L2.97916667,9.03125 C2.82958955,9.03125 2.70833333,9.15017436 2.70833333,9.296875 C2.70833333,9.44357564 2.82958955,9.5625 2.97916667,9.5625 Z M2.97916667,5.3125 L6.22916667,5.3125 C6.37874379,5.3125 6.5,5.19357564 6.5,5.046875 C6.5,4.90017436 6.37874379,4.78125 6.22916667,4.78125 L2.97916667,4.78125 C2.82958955,4.78125 2.70833333,4.90017436 2.70833333,5.046875 C2.70833333,5.19357564 2.82958955,5.3125 2.97916667,5.3125 Z M2.97916667,11.6875 L10.0208333,11.6875 C10.1704105,11.6875 10.2916667,11.5685756 10.2916667,11.421875 C10.2916667,11.2751744 10.1704105,11.15625 10.0208333,11.15625 L2.97916667,11.15625 C2.82958955,11.15625 2.70833333,11.2751744 2.70833333,11.421875 C2.70833333,11.5685756 2.82958955,11.6875 2.97916667,11.6875 Z M2.97916667,13.8125 L10.0208333,13.8125 C10.1704105,13.8125 10.2916667,13.6935756 10.2916667,13.546875 C10.2916667,13.4001744 10.1704105,13.28125 10.0208333,13.28125 L2.97916667,13.28125 C2.82958955,13.28125 2.70833333,13.4001744 2.70833333,13.546875 C2.70833333,13.6935756 2.82958955,13.8125 2.97916667,13.8125 Z" id="Shape"></path>
            </g>
        </g>
    </g>
</svg>