<?xml version="1.0" encoding="UTF-8"?>
<svg width="14.0156174px" height="21px" viewBox="0 0 14.0156174 21" version="1.1" xmlns="http://www.w3.org/2000/svg" xmlns:xlink="http://www.w3.org/1999/xlink">
    <title>Group 65@3x</title>
    <g id="Symbols" stroke="none" stroke-width="1" fill="none" fill-rule="evenodd">
        <g id="menu" transform="translate(-15.9844, -374)">
            <g id="Group-11" transform="translate(16, 374)">
                <path d="M11.1558095,0 C11.9141787,0 12.5311952,0.64094992 12.5311952,1.42873549 L12.5311952,2.99097628 C12.5311952,3.17886849 12.3845516,3.33115965 12.2037149,3.33115965 C12.0228387,3.33115965 11.8762346,3.17882747 11.8762346,2.99097628 L11.8762346,1.42873549 C11.8762346,1.01607809 11.553058,0.680365859 11.1558095,0.680365859 L1.37538567,0.680365859 C0.978137145,0.680365859 0.654960601,1.01607809 0.654960601,1.42873549 L0.654960601,19.5712235 C0.654960601,19.9838809 0.978137145,20.3195931 1.37538567,20.3195931 L11.1558095,20.3195931 C11.553058,20.3195931 11.8762346,19.9838809 11.8762346,19.5712235 L11.8762346,13.7656372 C11.8762346,13.577745 12.0228782,13.4254542 12.2037149,13.4254542 C12.3845911,13.4254542 12.5311952,13.577786 12.5311952,13.7656372 L12.5311952,19.5712645 C12.5311952,20.3590501 11.9141787,21 11.1558095,21 L1.37538567,21 C0.616976992,21 0,20.3590501 0,19.5712645 L0,1.42873549 C0,0.64094992 0.616976992,0 1.37538567,0 Z M6.96418801,18.8682171 C7.14502473,18.8682171 7.29166831,19.0205078 7.29166831,19.2084 C7.29166831,19.3962922 7.14502473,19.5485829 6.96418801,19.5485829 L5.56696769,19.5485829 C5.38609148,19.5485829 5.23948738,19.3962512 5.23948738,19.2084 C5.23948738,19.0205078 5.38613096,18.8682171 5.56696769,18.8682171 Z M4.16978684,15.9654239 C4.35062357,15.9654239 4.49726714,16.1177146 4.49726714,16.3056068 C4.49726714,16.493499 4.35062357,16.6457898 4.16978684,16.6457898 L3.47119642,16.6457898 C3.29032022,16.6457898 3.14371612,16.493458 3.14371612,16.3056068 C3.14371612,16.1177146 3.2903597,15.9654239 3.47119642,15.9654239 Z M9.05999876,15.9654239 C9.24083548,15.9654239 9.38747906,16.1177146 9.38747906,16.3056068 C9.38747906,16.493499 9.24083548,16.6457898 9.05999876,16.6457898 L8.36140834,16.6457898 C8.18053213,16.6457898 8.03392804,16.493458 8.03392804,16.3056068 C8.03392804,16.1177146 8.18057162,15.9654239 8.36140834,15.9654239 Z M6.61487306,15.9654239 C6.79574927,15.9654239 6.94235336,16.1177146 6.94235336,16.3056068 C6.94235336,16.493499 6.79570978,16.6457898 6.61487306,16.6457898 L5.91628264,16.6457898 C5.73540643,16.6457898 5.58880234,16.493458 5.58880234,16.3056068 C5.58880234,16.1177146 5.73544592,15.9654239 5.91628264,15.9654239 Z M9.83021316,4.35421025 C12.1294455,4.35421025 14,6.29732168 14,8.68577991 C14,11.0741971 12.1294455,13.0173086 9.83021316,13.0173086 C9.45977426,13.0173086 9.09292842,12.9666133 8.73741447,12.8664534 C7.64658999,13.6284402 6.41693976,13.7375415 6.3630441,13.7419712 C6.35435762,13.7426275 6.34567114,13.7429966 6.33706363,13.7429966 C6.20554243,13.7429966 6.085669,13.6608425 6.03465567,13.533038 C5.98036517,13.3968664 6.01661148,13.2398179 6.12452126,13.1440876 C6.12953572,13.1396579 6.61980856,12.6969361 7.07154501,11.928674 C6.17127031,11.1049178 5.66042631,9.93892785 5.66042631,8.6857389 C5.66042631,6.29732168 7.53098084,4.35421025 9.83021316,4.35421025 Z M9.83021316,5.03453509 C7.89214099,5.03453509 6.31538692,6.67240884 6.31538692,8.68569788 C6.31538692,9.825848 6.81766289,10.8806448 7.69349699,11.5795907 C7.82146463,11.6817194 7.85873753,11.86551 7.78126992,12.0125918 C7.61105439,12.3357533 7.42950696,12.6157664 7.25952834,12.8486526 C7.63952236,12.7223658 8.08209852,12.524999 8.48526965,12.2193101 C8.56925212,12.155695 8.67731983,12.137238 8.77642467,12.1695172 C9.11697417,12.2805873 9.4715405,12.3369017 9.83021316,12.3369017 C11.7683248,12.3369017 13.3450394,10.6989459 13.3450394,8.68569788 C13.3450394,6.67244986 11.7683248,5.03453509 9.83021316,5.03453509 Z M10.1795281,7.61982691 C10.3604043,7.61982691 10.5070084,7.77215865 10.5070084,7.96000984 C10.5070084,8.14790205 10.3603648,8.30019277 10.1795281,8.30019277 L10.1576935,8.30019277 L10.1576935,10.5226611 L10.1795281,10.5226611 C10.3603648,10.5226611 10.5070084,10.6749518 10.5070084,10.862844 C10.5070084,11.0507362 10.3603648,11.2030269 10.1795281,11.2030269 L9.48093769,11.2030269 C9.30006148,11.2030269 9.15345739,11.0506952 9.15345739,10.862844 C9.15345739,10.6749518 9.30010097,10.5226611 9.48093769,10.5226611 L9.50277234,10.5226611 L9.50277234,8.30019277 L9.48093769,8.30019277 C9.30006148,8.30019277 9.15345739,8.14786104 9.15345739,7.96000984 C9.15345739,7.77211763 9.30010097,7.61982691 9.48093769,7.61982691 Z M9.83372723,6.16845084 C10.014564,6.16845084 10.161168,6.32074156 10.1612075,6.50863377 C10.1612075,6.69652598 10.014564,6.8488167 9.83372723,6.8488167 C9.65289051,6.8488167 9.50450964,6.69648497 9.50450964,6.50863377 C9.50450964,6.32074156 9.64941592,6.16845084 9.83025264,6.16845084 Z M6.96418801,1.45141709 C7.14502473,1.45141709 7.29166831,1.60370781 7.29166831,1.79160002 C7.29166831,1.97949223 7.14502473,2.13178295 6.96418801,2.13178295 L5.56696769,2.13178295 C5.38609148,2.13178295 5.23948738,1.97945121 5.23948738,1.79160002 C5.23948738,1.60370781 5.38613096,1.45141709 5.56696769,1.45141709 Z M4.17326143,1.45141709 C4.35413764,1.45141709 4.50074174,1.60370781 4.50070226,1.79160002 C4.50070226,1.97949223 4.35405867,2.13178295 4.17322195,2.13178295 C3.99238523,2.13178295 3.84400435,1.97945121 3.84400435,1.79160002 C3.84400435,1.60370781 3.98891064,1.45141709 4.16974736,1.45141709 Z" id="Combined-Shape" fill="#0E7ECA" fill-rule="nonzero"></path>
                <line x1="12.2042357" y1="3.15001436" x2="0.254382607" y2="3.15001436" id="Line-5" stroke="#0E7ECA" stroke-width="0.54" stroke-linecap="round"></line>
                <line x1="11.7504386" y1="18.2699848" x2="0.429585926" y2="18.2699848" id="Line-5-Copy" stroke="#0E7ECA" stroke-width="0.54" stroke-linecap="square"></line>
            </g>
        </g>
    </g>
</svg>