<?xml version="1.0" encoding="UTF-8"?>
<svg width="14.3px" height="13.3px" viewBox="0 0 14.3 13.3" version="1.1" xmlns="http://www.w3.org/2000/svg" xmlns:xlink="http://www.w3.org/1999/xlink">
    <title>customer support@3x</title>
    <g id="Symbols" stroke="none" stroke-width="1" fill="none" fill-rule="evenodd">
        <g id="menu" transform="translate(-18.85, -221.85)" fill="#0E7ECA" fill-rule="nonzero" stroke="#0E7ECA" stroke-width="0.3">
            <g id="Group-10" transform="translate(19, 221.5)">
                <g id="customer-support" transform="translate(0, 0.5)">
                    <path d="M14,7.06521739 C14,6.28606522 13.3457917,5.65217391 12.5416667,5.65217391 L11.9583333,5.65217391 L11.9583333,4.80434783 C11.9583333,2.15517391 9.73408333,0 7,0 C4.26591667,0 2.04166667,2.15517391 2.04166667,4.80434783 L2.04166667,5.65217391 L1.45833333,5.65217391 C0.654208333,5.65217391 0,6.28606522 0,7.06521739 L0,8.76086957 C0,9.54002174 0.654208333,10.173913 1.45833333,10.173913 L3.20833333,10.173913 L3.20833333,5.65217391 L2.625,5.65217391 L2.625,4.80434783 C2.625,2.4668913 4.587625,0.565217391 7,0.565217391 C9.412375,0.565217391 11.375,2.4668913 11.375,4.80434783 L11.375,5.65217391 L10.7916667,5.65217391 L10.7916667,10.173913 L11.375,10.173913 L11.375,11.5869565 C11.375,12.0543913 10.9824167,12.4347826 10.5,12.4347826 L7.58333333,12.4347826 L7.58333333,13 L10.5,13 C11.304125,13 11.9583333,12.3661087 11.9583333,11.5869565 L11.9583333,10.173913 L12.5416667,10.173913 C13.3457917,10.173913 14,9.54002174 14,8.76086957 L14,7.06521739 Z M2.625,9.60869565 L1.45833333,9.60869565 C0.975916667,9.60869565 0.583333333,9.22830435 0.583333333,8.76086957 L0.583333333,7.06521739 C0.583333333,6.59778261 0.975916667,6.2173913 1.45833333,6.2173913 L2.625,6.2173913 L2.625,9.60869565 Z M13.4166667,8.76086957 C13.4166667,9.22830435 13.0240833,9.60869565 12.5416667,9.60869565 L11.375,9.60869565 L11.375,6.2173913 L12.5416667,6.2173913 C13.0240833,6.2173913 13.4166667,6.59778261 13.4166667,7.06521739 L13.4166667,8.76086957 Z" id="Shape"></path>
                </g>
            </g>
        </g>
    </g>
</svg>