<?xml version="1.0" encoding="UTF-8"?>
<svg width="16px" height="16px" viewBox="0 0 16 16" version="1.1" xmlns="http://www.w3.org/2000/svg" xmlns:xlink="http://www.w3.org/1999/xlink">
    <title>Path@2x</title>
    <g id="host-onboarding" stroke="none" stroke-width="1" fill="none" fill-rule="evenodd">
        <g transform="translate(-1110.000000, -3756.000000)" fill="#0E7ECA" fill-rule="nonzero" id="Group-54">
            <g transform="translate(0.000000, 2745.000000)">
                <g id="Group-40" transform="translate(288.000000, 844.000000)">
                    <g id="Group-37" transform="translate(0.000000, 141.000000)">
                        <path d="M837,33 L831,33 L831,27 C831,26.4 830.6,26 830,26 C829.4,26 829,26.4 829,27 L829,33 L823,33 C822.4,33 822,33.4 822,34 C822,34.6 822.4,35 823,35 L829,35 L829,41 C829,41.6 829.4,42 830,42 C830.6,42 831,41.6 831,41 L831,35 L837,35 C837.6,35 838,34.6 838,34 C838,33.4 837.6,33 837,33 Z" id="Path"></path>
                    </g>
                </g>
            </g>
        </g>
    </g>
</svg>